<?xml version="1.0" encoding="UTF-8" standalone="no"?><svg xmlns="http://www.w3.org/2000/svg" xmlns:xlink="http://www.w3.org/1999/xlink" contentStyleType="text/css" height="1234px" preserveAspectRatio="none" style="width:1616px;height:1234px;background:#FFFFFF;" version="1.1" viewBox="0 0 1616 1234" width="1616px" zoomAndPan="magnify"><defs/><g><!--MD5=[7e9942140dc15f76c2dda46cfb391697]
class C_0001633597064224137669--><g id="elem_C_0001633597064224137669"><rect codeLine="3" fill="#F1F1F1" height="48" id="C_0001633597064224137669" rx="2.5" ry="2.5" style="stroke:#181818;stroke-width:0.5;" width="178" x="789.5" y="1179.16"/><ellipse cx="804.5" cy="1195.16" fill="#ADD1B2" rx="11" ry="11" style="stroke:#181818;stroke-width:1.0;"/><path d="M802.4063,1195.0038 Q802.4063,1196.8788 802.9844,1197.8944 Q803.5625,1198.8944 804.7188,1198.8944 Q806.0625,1198.8944 806.7188,1196.8788 L808.9844,1197.3006 Q807.875,1200.8319 804.7031,1200.8319 Q802.3594,1200.8319 801.1406,1199.3475 Q799.9219,1197.8631 799.9219,1195.0038 Q799.9219,1189.285 804.625,1189.285 Q806.1719,1189.285 807.2031,1190.0975 Q808.25,1190.91 808.75,1192.5194 L806.4844,1193.0663 Q806.25,1192.1913 805.7656,1191.7069 Q805.2813,1191.2069 804.6563,1191.2069 Q802.4063,1191.2069 802.4063,1195.0038 Z " fill="#000000"/><text fill="#000000" font-family="sans-serif" font-size="14" lengthAdjust="spacing" textLength="60" x="818.5" y="1200.2425">std::array</text><rect fill="#FFFFFF" height="15.7988" style="stroke:#181818;stroke-width:1.0;stroke-dasharray:2.0,2.0;" width="84" x="886.5" y="1176.16"/><text fill="#000000" font-family="sans-serif" font-size="12" font-style="italic" lengthAdjust="spacing" textLength="82" x="887.5" y="1188.4159">size_t,N_DIMS</text><line style="stroke:#181818;stroke-width:0.5;" x1="790.5" x2="966.5" y1="1211.16" y2="1211.16"/><line style="stroke:#181818;stroke-width:0.5;" x1="790.5" x2="966.5" y1="1219.16" y2="1219.16"/></g><!--MD5=[38169d60eed4619969da931ba7ce4943]
class C_0001136170508500136644--><g id="elem_C_0001136170508500136644"><rect codeLine="8" fill="#F1F1F1" height="48" id="C_0001136170508500136644" rx="2.5" ry="2.5" style="stroke:#181818;stroke-width:0.5;" width="371" x="905" y="1070.16"/><ellipse cx="920" cy="1086.16" fill="#ADD1B2" rx="11" ry="11" style="stroke:#181818;stroke-width:1.0;"/><path d="M917.9063,1086.0038 Q917.9063,1087.8788 918.4844,1088.8944 Q919.0625,1089.8944 920.2188,1089.8944 Q921.5625,1089.8944 922.2188,1087.8788 L924.4844,1088.3006 Q923.375,1091.8319 920.2031,1091.8319 Q917.8594,1091.8319 916.6406,1090.3475 Q915.4219,1088.8631 915.4219,1086.0038 Q915.4219,1080.285 920.125,1080.285 Q921.6719,1080.285 922.7031,1081.0975 Q923.75,1081.91 924.25,1083.5194 L921.9844,1084.0663 Q921.75,1083.1913 921.2656,1082.7069 Q920.7813,1082.2069 920.1563,1082.2069 Q917.9063,1082.2069 917.9063,1086.0038 Z " fill="#000000"/><text fill="#000000" font-family="sans-serif" font-size="14" lengthAdjust="spacing" textLength="96" x="934" y="1091.2425">std::shared_ptr</text><rect fill="#FFFFFF" height="15.7988" style="stroke:#181818;stroke-width:1.0;stroke-dasharray:2.0,2.0;" width="241" x="1038" y="1067.16"/><text fill="#000000" font-family="sans-serif" font-size="12" font-style="italic" lengthAdjust="spacing" textLength="239" x="1039" y="1079.4159">sparse::details::IndexType&lt;size_t,N_DIMS&gt;</text><line style="stroke:#181818;stroke-width:0.5;" x1="906" x2="1275" y1="1102.16" y2="1102.16"/><line style="stroke:#181818;stroke-width:0.5;" x1="906" x2="1275" y1="1110.16" y2="1110.16"/></g><!--MD5=[714df4c390785c46437e6212e47928d5]
class C_0002101388404201062680--><g id="elem_C_0002101388404201062680"><rect codeLine="13" fill="#F1F1F1" height="48" id="C_0002101388404201062680" rx="2.5" ry="2.5" style="stroke:#181818;stroke-width:0.5;" width="339" x="515" y="1070.16"/><ellipse cx="530" cy="1086.16" fill="#ADD1B2" rx="11" ry="11" style="stroke:#181818;stroke-width:1.0;"/><path d="M527.9063,1086.0038 Q527.9063,1087.8788 528.4844,1088.8944 Q529.0625,1089.8944 530.2188,1089.8944 Q531.5625,1089.8944 532.2188,1087.8788 L534.4844,1088.3006 Q533.375,1091.8319 530.2031,1091.8319 Q527.8594,1091.8319 526.6406,1090.3475 Q525.4219,1088.8631 525.4219,1086.0038 Q525.4219,1080.285 530.125,1080.285 Q531.6719,1080.285 532.7031,1081.0975 Q533.75,1081.91 534.25,1083.5194 L531.9844,1084.0663 Q531.75,1083.1913 531.2656,1082.7069 Q530.7813,1082.2069 530.1563,1082.2069 Q527.9063,1082.2069 527.9063,1086.0038 Z " fill="#000000"/><text fill="#000000" font-family="sans-serif" font-size="14" lengthAdjust="spacing" textLength="54" x="544" y="1091.2425">std::map</text><rect fill="#FFFFFF" height="15.7988" style="stroke:#181818;stroke-width:1.0;stroke-dasharray:2.0,2.0;" width="251" x="606" y="1067.16"/><text fill="#000000" font-family="sans-serif" font-size="12" font-style="italic" lengthAdjust="spacing" textLength="249" x="607" y="1079.4159">sparse::details::IndexType&lt;size_t,N_DIMS&gt;,T</text><line style="stroke:#181818;stroke-width:0.5;" x1="516" x2="853" y1="1102.16" y2="1102.16"/><line style="stroke:#181818;stroke-width:0.5;" x1="516" x2="853" y1="1110.16" y2="1110.16"/></g><!--MD5=[ecba8816d563dd25b63df65e9d66b7e7]
class C_0002212443975218405385--><g id="elem_C_0002212443975218405385"><rect codeLine="18" fill="#F1F1F1" height="96.2959" id="C_0002212443975218405385" rx="2.5" ry="2.5" style="stroke:#181818;stroke-width:0.5;" width="521" x="517" y="765.12"/><ellipse cx="596.25" cy="781.12" fill="#A9DCDF" rx="11" ry="11" style="stroke:#181818;stroke-width:1.0;"/><path d="M601.4531,785.62 L599.0156,785.62 L598.25,782.8856 L594.4688,782.8856 L593.7031,785.62 L591.25,785.62 L594.9219,774.4169 L597.7813,774.4169 L601.4531,785.62 Z M596.3594,775.9325 Q596.2813,776.2763 596.1094,776.9794 Q595.9375,777.6669 594.9844,781.0419 L597.7344,781.0419 Q596.7656,777.62 596.5938,776.9481 Q596.4219,776.2763 596.3594,775.9325 Z " fill="#000000"/><text fill="#000000" font-family="sans-serif" font-size="14" font-style="italic" lengthAdjust="spacing" textLength="182" x="616.75" y="786.2025">sparse::details::CellAccessor</text><rect fill="#FFFFFF" height="15.7988" style="stroke:#181818;stroke-width:1.0;stroke-dasharray:2.0,2.0;" width="170" x="871" y="762.12"/><text fill="#000000" font-family="sans-serif" font-size="12" font-style="italic" lengthAdjust="spacing" textLength="168" x="872" y="774.3759">std::copyable T,size_t N_DIMS</text><line style="stroke:#181818;stroke-width:0.5;" x1="518" x2="1037" y1="797.12" y2="797.12"/><ellipse cx="528" cy="810.6693" fill="#84BE84" rx="3" ry="3" style="stroke:#038048;stroke-width:1.0;"/><text fill="#000000" font-family="sans-serif" font-size="14" font-style="italic" lengthAdjust="spacing" textLength="443" x="537" y="814.2518">get(IndexTypeConstShared&lt;N_DIMS&gt;) const noexcept = 0 : const T &amp;</text><ellipse cx="528" cy="826.7679" fill="#84BE84" rx="3" ry="3" style="stroke:#038048;stroke-width:1.0;"/><text fill="#000000" font-family="sans-serif" font-size="14" font-style="italic" lengthAdjust="spacing" textLength="495" x="537" y="830.3505">set(IndexTypeConstShared&lt;N_DIMS&gt; idx, const T &amp; value) noexcept = 0 : void</text><ellipse cx="528" cy="842.8666" fill="#84BE84" rx="3" ry="3" style="stroke:#038048;stroke-width:1.0;"/><text fill="#000000" font-family="sans-serif" font-size="14" font-style="italic" lengthAdjust="spacing" textLength="466" x="537" y="846.4491">set(IndexTypeConstShared&lt;N_DIMS&gt; idx, T &amp;&amp; value) noexcept = 0 : void</text><line style="stroke:#181818;stroke-width:0.5;" x1="518" x2="1037" y1="853.4159" y2="853.4159"/></g><!--MD5=[3600e43b9bad103d020661441e62d18b]
class C_0000419081589640496338--><g id="elem_C_0000419081589640496338"><rect codeLine="29" fill="#F1F1F1" height="48" id="C_0000419081589640496338" rx="2.5" ry="2.5" style="stroke:#181818;stroke-width:0.5;" width="274" x="470.5" y="508.38"/><ellipse cx="485.5" cy="524.38" fill="#ADD1B2" rx="11" ry="11" style="stroke:#181818;stroke-width:1.0;"/><path d="M483.4063,524.2238 Q483.4063,526.0988 483.9844,527.1144 Q484.5625,528.1144 485.7188,528.1144 Q487.0625,528.1144 487.7188,526.0988 L489.9844,526.5206 Q488.875,530.0519 485.7031,530.0519 Q483.3594,530.0519 482.1406,528.5675 Q480.9219,527.0831 480.9219,524.2238 Q480.9219,518.505 485.625,518.505 Q487.1719,518.505 488.2031,519.3175 Q489.25,520.13 489.75,521.7394 L487.4844,522.2863 Q487.25,521.4113 486.7656,520.9269 Q486.2813,520.4269 485.6563,520.4269 Q483.4063,520.4269 483.4063,524.2238 Z " fill="#000000"/><text fill="#000000" font-family="sans-serif" font-size="14" lengthAdjust="spacing" textLength="182" x="499.5" y="529.4625">sparse::details::CellAccessor</text><rect fill="#FFFFFF" height="15.7988" style="stroke:#181818;stroke-width:1.0;stroke-dasharray:2.0,2.0;" width="58" x="689.5" y="505.38"/><text fill="#000000" font-family="sans-serif" font-size="12" font-style="italic" lengthAdjust="spacing" textLength="56" x="690.5" y="517.6359">T,N_DIMS</text><line style="stroke:#181818;stroke-width:0.5;" x1="471.5" x2="743.5" y1="540.38" y2="540.38"/><line style="stroke:#181818;stroke-width:0.5;" x1="471.5" x2="743.5" y1="548.38" y2="548.38"/></g><!--MD5=[cfc8598872cfea930e70d44f4b65979c]
class C_0000136384432202654581--><g id="elem_C_0000136384432202654581"><rect codeLine="34" fill="#F1F1F1" height="160.5918" id="C_0000136384432202654581" rx="2.5" ry="2.5" style="stroke:#181818;stroke-width:0.5;" width="597" x="616" y="271.79"/><ellipse cx="713.25" cy="287.79" fill="#ADD1B2" rx="11" ry="11" style="stroke:#181818;stroke-width:1.0;"/><path d="M711.1563,287.6338 Q711.1563,289.5088 711.7344,290.5244 Q712.3125,291.5244 713.4688,291.5244 Q714.8125,291.5244 715.4688,289.5088 L717.7344,289.9306 Q716.625,293.4619 713.4531,293.4619 Q711.1094,293.4619 709.8906,291.9775 Q708.6719,290.4931 708.6719,287.6338 Q708.6719,281.915 713.375,281.915 Q714.9219,281.915 715.9531,282.7275 Q717,283.54 717.5,285.1494 L715.2344,285.6963 Q715,284.8213 714.5156,284.3369 Q714.0313,283.8369 713.4063,283.8369 Q711.1563,283.8369 711.1563,287.6338 Z " fill="#000000"/><text fill="#000000" font-family="sans-serif" font-size="14" lengthAdjust="spacing" textLength="161" x="733.75" y="292.8725">sparse::details::ShiftIndex</text><rect fill="#FFFFFF" height="15.7988" style="stroke:#181818;stroke-width:1.0;stroke-dasharray:2.0,2.0;" width="231" x="985" y="268.79"/><text fill="#000000" font-family="sans-serif" font-size="12" font-style="italic" lengthAdjust="spacing" textLength="229" x="986" y="281.0459">std::copyable T,size_t N_DIMS,size_t DIM</text><line style="stroke:#181818;stroke-width:0.5;" x1="617" x2="1212" y1="303.79" y2="303.79"/><rect fill="#F24D5C" height="6" style="stroke:#C82930;stroke-width:1.0;" width="6" x="624" y="314.3393"/><text fill="#000000" font-family="sans-serif" font-size="14" lengthAdjust="spacing" textLength="571" x="636" y="320.9218">ShiftIndex(CellAccessor&lt;T,N_DIMS&gt; * cell, IndexTypeShared&lt;N_DIMS&gt; idx) noexcept : void</text><rect fill="#F24D5C" height="6" style="stroke:#C82930;stroke-width:1.0;" width="6" x="624" y="330.4379"/><text fill="#000000" font-family="sans-serif" font-size="14" lengthAdjust="spacing" textLength="391" x="636" y="337.0205">ShiftIndex(const ShiftIndex&lt;T,N_DIMS,DIM&gt; &amp;) = deleted : void</text><line style="stroke:#181818;stroke-width:1.0;stroke-dasharray:1.0,2.0;" x1="617" x2="1212" y1="343.9873" y2="343.9873"/><rect fill="#F24D5C" height="6" style="stroke:#C82930;stroke-width:1.0;" width="6" x="624" y="354.5366"/><text fill="#000000" font-family="sans-serif" font-size="14" lengthAdjust="spacing" textLength="547" x="636" y="361.1191">operator=(const ShiftIndex&lt;T,N_DIMS,DIM&gt; &amp;) = deleted : ShiftIndex&lt;T,N_DIMS,DIM&gt; &amp;</text><line style="stroke:#181818;stroke-width:1.0;stroke-dasharray:1.0,2.0;" x1="617" x2="1212" y1="368.0859" y2="368.0859"/><ellipse cx="627" cy="381.6352" fill="#84BE84" rx="3" ry="3" style="stroke:#038048;stroke-width:1.0;"/><text fill="#000000" font-family="sans-serif" font-size="14" lengthAdjust="spacing" textLength="260" x="636" y="385.2177">operator[](size_t last_idx) noexcept : auto</text><line style="stroke:#181818;stroke-width:0.5;" x1="617" x2="1212" y1="392.1845" y2="392.1845"/><rect fill="none" height="6" style="stroke:#C82930;stroke-width:1.0;" width="6" x="624" y="402.7338"/><text fill="#000000" font-family="sans-serif" font-size="14" lengthAdjust="spacing" textLength="211" x="636" y="409.3164">_cell : CellAccessor&lt;T,N_DIMS&gt; *</text><rect fill="none" height="6" style="stroke:#C82930;stroke-width:1.0;" width="6" x="624" y="418.8325"/><text fill="#000000" font-family="sans-serif" font-size="14" lengthAdjust="spacing" textLength="252" x="636" y="425.415">_idx : const IndexTypeShared&lt;N_DIMS&gt;</text></g><!--MD5=[9ec17c4db6406765bfc3f0a8c2f5070f]
class C_0002263803576604671280--><g id="elem_C_0002263803576604671280"><rect codeLine="53" fill="#F1F1F1" height="200.7891" id="C_0002263803576604671280" rx="2.5" ry="2.5" style="stroke:#181818;stroke-width:0.5;" width="853" x="752" y="10"/><ellipse cx="1039.25" cy="26" fill="#ADD1B2" rx="11" ry="11" style="stroke:#181818;stroke-width:1.0;"/><path d="M1037.1563,25.8438 Q1037.1563,27.7188 1037.7344,28.7344 Q1038.3125,29.7344 1039.4688,29.7344 Q1040.8125,29.7344 1041.4688,27.7188 L1043.7344,28.1406 Q1042.625,31.6719 1039.4531,31.6719 Q1037.1094,31.6719 1035.8906,30.1875 Q1034.6719,28.7031 1034.6719,25.8438 Q1034.6719,20.125 1039.375,20.125 Q1040.9219,20.125 1041.9531,20.9375 Q1043,21.75 1043.5,23.3594 L1041.2344,23.9063 Q1041,23.0313 1040.5156,22.5469 Q1040.0313,22.0469 1039.4063,22.0469 Q1037.1563,22.0469 1037.1563,25.8438 Z " fill="#000000"/><text fill="#000000" font-family="sans-serif" font-size="14" lengthAdjust="spacing" textLength="161" x="1059.75" y="31.0825">sparse::details::ShiftIndex</text><rect fill="#FFFFFF" height="15.7988" style="stroke:#181818;stroke-width:1.0;stroke-dasharray:2.0,2.0;" width="107" x="1501" y="7"/><text fill="#000000" font-family="sans-serif" font-size="12" font-style="italic" lengthAdjust="spacing" textLength="105" x="1502" y="19.2559">T,N_DIMS,N_DIMS</text><line style="stroke:#181818;stroke-width:0.5;" x1="753" x2="1604" y1="42" y2="42"/><rect fill="#F24D5C" height="6" style="stroke:#C82930;stroke-width:1.0;" width="6" x="760" y="52.5493"/><text fill="#000000" font-family="sans-serif" font-size="14" lengthAdjust="spacing" textLength="571" x="772" y="59.1318">ShiftIndex(CellAccessor&lt;T,N_DIMS&gt; * cell, IndexTypeShared&lt;N_DIMS&gt; idx) noexcept : void</text><rect fill="#F24D5C" height="6" style="stroke:#C82930;stroke-width:1.0;" width="6" x="760" y="68.6479"/><text fill="#000000" font-family="sans-serif" font-size="14" lengthAdjust="spacing" textLength="531" x="772" y="75.2305">ShiftIndex(const ShiftIndex&lt;type-parameter-0-0,N_DIMS,N_DIMS&gt; &amp;) = deleted : void</text><line style="stroke:#181818;stroke-width:1.0;stroke-dasharray:1.0,2.0;" x1="753" x2="1604" y1="82.1973" y2="82.1973"/><rect fill="#F24D5C" height="6" style="stroke:#C82930;stroke-width:1.0;" width="6" x="760" y="92.7466"/><text fill="#000000" font-family="sans-serif" font-size="14" lengthAdjust="spacing" textLength="827" x="772" y="99.3291">operator=(const ShiftIndex&lt;type-parameter-0-0,N_DIMS,N_DIMS&gt; &amp;) = deleted : ShiftIndex&lt;type-parameter-0-0,N_DIMS,N_DIMS&gt; &amp;</text><line style="stroke:#181818;stroke-width:1.0;stroke-dasharray:1.0,2.0;" x1="753" x2="1604" y1="106.2959" y2="106.2959"/><ellipse cx="763" cy="119.8452" fill="#84BE84" rx="3" ry="3" style="stroke:#038048;stroke-width:1.0;"/><text fill="#000000" font-family="sans-serif" font-size="14" lengthAdjust="spacing" textLength="255" x="772" y="123.4277">operator=(T &amp;&amp; value) noexcept : auto &amp;</text><ellipse cx="763" cy="135.9438" fill="#84BE84" rx="3" ry="3" style="stroke:#038048;stroke-width:1.0;"/><text fill="#000000" font-family="sans-serif" font-size="14" lengthAdjust="spacing" textLength="284" x="772" y="139.5264">operator=(const T &amp; value) noexcept : auto &amp;</text><line style="stroke:#181818;stroke-width:1.0;stroke-dasharray:1.0,2.0;" x1="753" x2="1604" y1="146.4932" y2="146.4932"/><ellipse cx="763" cy="160.0425" fill="#84BE84" rx="3" ry="3" style="stroke:#038048;stroke-width:1.0;"/><text fill="#000000" font-family="sans-serif" font-size="14" lengthAdjust="spacing" textLength="311" x="772" y="163.625">operator type-parameter-0-0() const noexcept : T</text><line style="stroke:#181818;stroke-width:0.5;" x1="753" x2="1604" y1="170.5918" y2="170.5918"/><rect fill="none" height="6" style="stroke:#C82930;stroke-width:1.0;" width="6" x="760" y="181.1411"/><text fill="#000000" font-family="sans-serif" font-size="14" lengthAdjust="spacing" textLength="211" x="772" y="187.7236">_cell : CellAccessor&lt;T,N_DIMS&gt; *</text><rect fill="none" height="6" style="stroke:#C82930;stroke-width:1.0;" width="6" x="760" y="197.2397"/><text fill="#000000" font-family="sans-serif" font-size="14" lengthAdjust="spacing" textLength="289" x="772" y="203.8223">_idx : const IndexTypeConstShared&lt;N_DIMS&gt;</text></g><!--MD5=[1b842457dc546f603a6a5254a5e087cf]
class C_0000163967524215595475--><g id="elem_C_0000163967524215595475"><rect codeLine="77" fill="#F1F1F1" height="361.7754" id="C_0000163967524215595475" rx="2.5" ry="2.5" style="stroke:#181818;stroke-width:0.5;" width="475" x="7" y="632.38"/><ellipse cx="103.25" cy="648.38" fill="#ADD1B2" rx="11" ry="11" style="stroke:#181818;stroke-width:1.0;"/><path d="M101.1563,648.2238 Q101.1563,650.0988 101.7344,651.1144 Q102.3125,652.1144 103.4688,652.1144 Q104.8125,652.1144 105.4688,650.0988 L107.7344,650.5206 Q106.625,654.0519 103.4531,654.0519 Q101.1094,654.0519 99.8906,652.5675 Q98.6719,651.0831 98.6719,648.2238 Q98.6719,642.505 103.375,642.505 Q104.9219,642.505 105.9531,643.3175 Q107,644.13 107.5,645.7394 L105.2344,646.2863 Q105,645.4113 104.5156,644.9269 Q104.0313,644.4269 103.4063,644.4269 Q101.1563,644.4269 101.1563,648.2238 Z " fill="#000000"/><text fill="#000000" font-family="sans-serif" font-size="14" lengthAdjust="spacing" textLength="88" x="123.75" y="653.4625">sparse::Matrix</text><rect fill="#FFFFFF" height="15.7988" style="stroke:#181818;stroke-width:1.0;stroke-dasharray:2.0,2.0;" width="184" x="301" y="629.38"/><text fill="#000000" font-family="sans-serif" font-size="12" font-style="italic" lengthAdjust="spacing" textLength="182" x="302" y="641.6359">std::copyable T,size_t N_DIMS=2</text><line style="stroke:#181818;stroke-width:0.5;" x1="8" x2="481" y1="664.38" y2="664.38"/><ellipse cx="18" cy="677.9293" fill="#84BE84" rx="3" ry="3" style="stroke:#038048;stroke-width:1.0;"/><text fill="#000000" font-family="sans-serif" font-size="14" lengthAdjust="spacing" textLength="330" x="27" y="681.5118">Matrix(const T &amp; default_value = T{}) noexcept : void</text><ellipse cx="18" cy="694.0279" fill="#84BE84" rx="3" ry="3" style="stroke:#038048;stroke-width:1.0;"/><text fill="#000000" font-family="sans-serif" font-size="14" lengthAdjust="spacing" textLength="266" x="27" y="697.6105">Matrix(T &amp;&amp; default_value) noexcept : void</text><ellipse cx="18" cy="710.1266" fill="#84BE84" rx="3" ry="3" style="stroke:#038048;stroke-width:1.0;"/><text fill="#000000" font-family="sans-serif" font-size="14" lengthAdjust="spacing" textLength="289" x="27" y="713.7091">Matrix(const Matrix&lt;T,N_DIMS&gt; &amp; other) : void</text><ellipse cx="18" cy="726.2252" fill="#84BE84" rx="3" ry="3" style="stroke:#038048;stroke-width:1.0;"/><text fill="#000000" font-family="sans-serif" font-size="14" lengthAdjust="spacing" textLength="260" x="27" y="729.8077">Matrix(Matrix&lt;T,N_DIMS&gt; &amp;&amp; other) : void</text><line style="stroke:#181818;stroke-width:1.0;stroke-dasharray:1.0,2.0;" x1="8" x2="481" y1="736.7745" y2="736.7745"/><ellipse cx="18" cy="750.3238" fill="#84BE84" rx="3" ry="3" style="stroke:#038048;stroke-width:1.0;"/><text fill="#000000" font-family="sans-serif" font-size="14" lengthAdjust="spacing" textLength="417" x="27" y="753.9064">operator=(const Matrix&lt;T,N_DIMS&gt; &amp; other) : Matrix&lt;T,N_DIMS&gt; &amp;</text><ellipse cx="18" cy="766.4225" fill="#84BE84" rx="3" ry="3" style="stroke:#038048;stroke-width:1.0;"/><text fill="#000000" font-family="sans-serif" font-size="14" lengthAdjust="spacing" textLength="449" x="27" y="770.005">operator=(Matrix&lt;T,N_DIMS&gt; &amp;&amp; other) noexcept : Matrix&lt;T,N_DIMS&gt; &amp;</text><line style="stroke:#181818;stroke-width:1.0;stroke-dasharray:1.0,2.0;" x1="8" x2="481" y1="776.9718" y2="776.9718"/><ellipse cx="18" cy="790.5211" fill="#84BE84" rx="3" ry="3" style="stroke:#038048;stroke-width:1.0;"/><text fill="#000000" font-family="sans-serif" font-size="14" lengthAdjust="spacing" textLength="177" x="27" y="794.1036">operator[](size_t idx1) : auto</text><line style="stroke:#181818;stroke-width:1.0;stroke-dasharray:1.0,2.0;" x1="8" x2="481" y1="801.0704" y2="801.0704"/><ellipse cx="18" cy="814.6197" fill="#84BE84" rx="3" ry="3" style="stroke:#038048;stroke-width:1.0;"/><text fill="#000000" font-family="sans-serif" font-size="14" lengthAdjust="spacing" textLength="243" x="27" y="818.2023">begin() const noexcept : const_iterator</text><ellipse cx="18" cy="830.7184" fill="#84BE84" rx="3" ry="3" style="stroke:#038048;stroke-width:1.0;"/><text fill="#000000" font-family="sans-serif" font-size="14" lengthAdjust="spacing" textLength="250" x="27" y="834.3009">cbegin() const noexcept : const_iterator</text><ellipse cx="18" cy="846.817" fill="#84BE84" rx="3" ry="3" style="stroke:#038048;stroke-width:1.0;"/><text fill="#000000" font-family="sans-serif" font-size="14" lengthAdjust="spacing" textLength="239" x="27" y="850.3995">cend() const noexcept : const_iterator</text><ellipse cx="18" cy="862.9156" fill="#84BE84" rx="3" ry="3" style="stroke:#038048;stroke-width:1.0;"/><text fill="#000000" font-family="sans-serif" font-size="14" lengthAdjust="spacing" textLength="232" x="27" y="866.4982">end() const noexcept : const_iterator</text><ellipse cx="18" cy="879.0143" fill="#84BE84" rx="3" ry="3" style="stroke:#038048;stroke-width:1.0;"/><text fill="#000000" font-family="sans-serif" font-size="14" lengthAdjust="spacing" textLength="370" x="27" y="882.5968">get(IndexTypeConstShared idx) const noexcept : const T &amp;</text><ellipse cx="18" cy="895.1129" fill="#84BE84" rx="3" ry="3" style="stroke:#038048;stroke-width:1.0;"/><text fill="#000000" font-family="sans-serif" font-size="14" lengthAdjust="spacing" textLength="403" x="27" y="898.6954">set(IndexTypeConstShared idx, const T &amp; value) noexcept : void</text><ellipse cx="18" cy="911.2115" fill="#84BE84" rx="3" ry="3" style="stroke:#038048;stroke-width:1.0;"/><text fill="#000000" font-family="sans-serif" font-size="14" lengthAdjust="spacing" textLength="374" x="27" y="914.7941">set(IndexTypeConstShared idx, T &amp;&amp; value) noexcept : void</text><ellipse cx="18" cy="927.3102" fill="#84BE84" rx="3" ry="3" style="stroke:#038048;stroke-width:1.0;"/><text fill="#000000" font-family="sans-serif" font-size="14" lengthAdjust="spacing" textLength="181" x="27" y="930.8927">size() const noexcept : size_t</text><rect fill="#F24D5C" height="6" style="stroke:#C82930;stroke-width:1.0;" width="6" x="15" y="940.4088"/><text fill="#000000" font-family="sans-serif" font-size="14" lengthAdjust="spacing" textLength="316" x="27" y="946.9913">swap(Matrix&lt;T,N_DIMS&gt; &amp;&amp; other) noexcept : void</text><line style="stroke:#181818;stroke-width:0.5;" x1="8" x2="481" y1="953.9581" y2="953.9581"/><rect fill="none" height="6" style="stroke:#C82930;stroke-width:1.0;" width="6" x="15" y="964.5074"/><text fill="#000000" font-family="sans-serif" font-size="14" lengthAdjust="spacing" textLength="72" x="27" y="971.09">_default : T</text><rect fill="none" height="6" style="stroke:#C82930;stroke-width:1.0;" width="6" x="15" y="980.6061"/><text fill="#000000" font-family="sans-serif" font-size="14" lengthAdjust="spacing" textLength="195" x="27" y="987.1886">_map : std::map&lt;IndexType,T&gt;</text></g><!--MD5=[19641a37d086a293b398fe50e52c7fa5]
link C_0001136170508500136644 to C_0001633597064224137669--><g id="link_C_0001136170508500136644_C_0001633597064224137669"><path codeLine="119" d="M1043.98,1118.64 C1010.29,1135.65 964.74,1158.63 929.97,1176.18 " fill="none" id="C_0001136170508500136644-to-C_0001633597064224137669" style="stroke:#181818;stroke-width:1.0;stroke-dasharray:7.0,7.0;"/><polygon fill="#181818" points="925.92,1178.73,935.7563,1178.2325,930.3806,1176.4711,932.142,1171.0954,925.92,1178.73" style="stroke:#181818;stroke-width:1.0;"/></g><!--MD5=[001c3ba7f967274b91937b81773a3517]
link C_0002101388404201062680 to C_0001633597064224137669--><g id="link_C_0002101388404201062680_C_0001633597064224137669"><path codeLine="120" d="M727.07,1118.64 C757.78,1135.58 799.24,1158.44 831.01,1175.97 " fill="none" id="C_0002101388404201062680-to-C_0001633597064224137669" style="stroke:#181818;stroke-width:1.0;stroke-dasharray:7.0,7.0;"/><polygon fill="#181818" points="835.03,1178.73,829.0855,1170.8774,830.6532,1176.3127,825.2179,1177.8804,835.03,1178.73" style="stroke:#181818;stroke-width:1.0;"/></g><!--MD5=[194bfa789f98f44fabcc5bc371110bb5]
link C_0002212443975218405385 to C_0001136170508500136644--><g id="link_C_0002212443975218405385_C_0001136170508500136644"><path codeLine="121" d="M830.95,861.9 C897.01,920.76 1007.18,1018.92 1060.19,1066.15 " fill="none" id="C_0002212443975218405385-to-C_0001136170508500136644" style="stroke:#181818;stroke-width:1.0;stroke-dasharray:7.0,7.0;"/><polygon fill="#181818" points="1063.52,1069.01,1059.4699,1060.0324,1059.7901,1065.6802,1054.1423,1066.0003,1063.52,1069.01" style="stroke:#181818;stroke-width:1.0;"/></g><!--MD5=[62652b9baf78e1eab4d1f6f3bfbac7ae]
link C_0000419081589640496338 to C_0002212443975218405385--><g id="link_C_0000419081589640496338_C_0002212443975218405385"><path codeLine="122" d="M621.7,556.68 C646.96,598.12 700.53,686 737.75,747.06 " fill="none" id="C_0000419081589640496338-to-C_0002212443975218405385" style="stroke:#181818;stroke-width:1.0;stroke-dasharray:7.0,7.0;"/><polygon fill="none" points="744.06,742.96,748.49,763.68,732.11,750.25,744.06,742.96" style="stroke:#181818;stroke-width:1.0;"/></g><!--MD5=[3abefd5ce8fafb347621ac12c7215e99]
link C_0000136384432202654581 to C_0001136170508500136644--><g id="link_C_0000136384432202654581_C_0001136170508500136644"><path codeLine="123" d="M965.33,432.75 C997.12,486.84 1035.68,561.22 1055.5,632.38 C1099.58,790.62 1095.54,990.48 1092.15,1064.17 " fill="none" id="C_0000136384432202654581-to-C_0001136170508500136644" style="stroke:#181818;stroke-width:1.0;stroke-dasharray:7.0,7.0;"/><polygon fill="#181818" points="1091.87,1069.08,1096.2768,1060.2721,1092.0983,1064.0852,1088.2852,1059.9067,1091.87,1069.08" style="stroke:#181818;stroke-width:1.0;"/></g><!--MD5=[1a8cfa83570eabf85a3f5f34c1781699]
reverse link C_0000136384432202654581 to C_0001136170508500136644--><g id="link_C_0000136384432202654581_C_0001136170508500136644"><path codeLine="125" d="M998.13,443.42 C1039.08,494.6 1083.22,562.28 1100.5,632.38 C1142.22,801.62 1114.5,849.9 1118.5,1024.16 C1118.66,1031.27 1120.21,1033.26 1118.5,1040.16 C1115.95,1050.46 1110.98,1060.97 1105.93,1069.88 " fill="none" id="C_0000136384432202654581-backto-C_0001136170508500136644" style="stroke:#181818;stroke-width:1.0;"/><polygon fill="none" points="989.45,433.75,990.1375,440.9283,997.028,443.0545,996.3405,435.8762,989.45,433.75" style="stroke:#181818;stroke-width:1.0;"/><rect fill="none" height="6" style="stroke:#C82930;stroke-width:1.0;" width="6" x="1092.5" y="592.3544"/><text fill="#000000" font-family="sans-serif" font-size="13" lengthAdjust="spacing" textLength="24" x="1102.5" y="599.5738">_idx</text></g><!--MD5=[7b8874d742c8a85730d75b410f217d0c]
link C_0000136384432202654581 to C_0000419081589640496338--><g id="link_C_0000136384432202654581_C_0000419081589640496338"><path codeLine="124" d="M777.16,432.85 C732.46,458.81 685.9,485.85 652.9,505.02 " fill="none" id="C_0000136384432202654581-to-C_0000419081589640496338" style="stroke:#181818;stroke-width:1.0;"/><polygon fill="#181818" points="648.72,508.03,658.5115,506.9684,653.0435,505.5186,654.4933,500.0507,648.72,508.03" style="stroke:#181818;stroke-width:1.0;"/><rect fill="none" height="6" style="stroke:#C82930;stroke-width:1.0;" width="6" x="727.5" y="468.3544"/><text fill="#000000" font-family="sans-serif" font-size="13" lengthAdjust="spacing" textLength="27" x="737.5" y="475.5738">_cell</text></g><!--MD5=[5292037be0d81b6d627981066f40861a]
link C_0002263803576604671280 to C_0001136170508500136644--><g id="link_C_0002263803576604671280_C_0001136170508500136644"><path codeLine="126" d="M1232.73,211.1 C1250.84,253.07 1266.5,303.21 1266.5,351.09 C1266.5,351.09 1266.5,351.09 1266.5,814.27 C1266.5,920.91 1173.33,1020.01 1122.57,1066.09 " fill="none" id="C_0002263803576604671280-to-C_0001136170508500136644" style="stroke:#181818;stroke-width:1.0;stroke-dasharray:7.0,7.0;"/><polygon fill="#181818" points="1119.39,1068.85,1128.7549,1065.8005,1123.1058,1065.5044,1123.4019,1059.8553,1119.39,1068.85" style="stroke:#181818;stroke-width:1.0;"/></g><!--MD5=[3526e0c01d574938874315a9f4f409a8]
reverse link C_0002263803576604671280 to C_0001136170508500136644--><g id="link_C_0002263803576604671280_C_0001136170508500136644"><path codeLine="128" d="M1302.72,222.08 C1331.81,259.35 1354.5,303.63 1354.5,351.09 C1354.5,351.09 1354.5,351.09 1354.5,814.27 C1354.5,898.84 1348.48,930.78 1292.5,994.16 C1260.83,1030.02 1213.21,1054.23 1172.17,1069.73 " fill="none" id="C_0002263803576604671280-backto-C_0001136170508500136644" style="stroke:#181818;stroke-width:1.0;"/><polygon fill="none" points="1293.93,212.26,1294.6064,219.4393,1301.4936,221.5762,1300.8172,214.3969,1293.93,212.26" style="stroke:#181818;stroke-width:1.0;"/><rect fill="none" height="6" style="stroke:#C82930;stroke-width:1.0;" width="6" x="1357.5" y="530.3544"/><text fill="#000000" font-family="sans-serif" font-size="13" lengthAdjust="spacing" textLength="24" x="1367.5" y="537.5738">_idx</text></g><!--MD5=[6b0b181fc2d32eec1f770e7e4f56d0c3]
link C_0002263803576604671280 to C_0000419081589640496338--><g id="link_C_0002263803576604671280_C_0000419081589640496338"><path codeLine="127" d="M751.78,181.56 C662.16,205.11 586.01,234.98 557.5,271.79 C503.84,341.08 558.04,451.42 589.06,503.03 " fill="none" id="C_0002263803576604671280-to-C_0000419081589640496338" style="stroke:#181818;stroke-width:1.0;"/><polygon fill="#181818" points="592.16,507.14,590.8973,497.3724,589.5603,502.869,584.0637,501.532,592.16,507.14" style="stroke:#181818;stroke-width:1.0;"/><rect fill="none" height="6" style="stroke:#C82930;stroke-width:1.0;" width="6" x="560.5" y="350.0644"/><text fill="#000000" font-family="sans-serif" font-size="13" lengthAdjust="spacing" textLength="27" x="570.5" y="357.2838">_cell</text></g><!--MD5=[c849ad29985a55a247813c3644cc4b0b]
link C_0002263803576604671280 to C_0000136384432202654581--><g id="link_C_0002263803576604671280_C_0000136384432202654581"><path codeLine="129" d="M1068.83,210.97 C1051.89,226.35 1034.44,242.19 1017.65,257.44 " fill="none" id="C_0002263803576604671280-to-C_0000136384432202654581" style="stroke:#181818;stroke-width:1.0;stroke-dasharray:7.0,7.0;"/><polygon fill="none" points="1022.63,262.28,1003.12,270.54,1013.22,251.91,1022.63,262.28" style="stroke:#181818;stroke-width:1.0;"/></g><!--MD5=[7ffe087389bd6bd757b11719beaa8bac]
link C_0000163967524215595475 to C_0001136170508500136644--><g id="link_C_0000163967524215595475_C_0001136170508500136644"><path codeLine="130" d="M482.23,986.62 C487.98,989.27 493.74,991.79 499.5,994.16 C538.16,1010.06 761.22,1045.01 921.9,1068.83 " fill="none" id="C_0000163967524215595475-to-C_0001136170508500136644" style="stroke:#181818;stroke-width:1.0;stroke-dasharray:7.0,7.0;"/><polygon fill="#181818" points="926.59,1069.68,918.2695,1064.4103,921.6434,1068.9509,917.1029,1072.3248,926.59,1069.68" style="stroke:#181818;stroke-width:1.0;"/></g><!--MD5=[d6514d910eeaa9337d5d921ef760c6aa]
reverse link C_0000163967524215595475 to C_0002101388404201062680--><g id="link_C_0000163967524215595475_C_0002101388404201062680"><path codeLine="131" d="M494.19,990.87 C495.97,991.97 497.73,993.07 499.5,994.16 C544.92,1022.18 598.94,1050.56 636.84,1069.7 " fill="none" id="C_0000163967524215595475-backto-C_0002101388404201062680" style="stroke:#181818;stroke-width:1.0;"/><polygon fill="none" points="483.44,983.48,486.395,990.0578,493.6034,989.8601,490.6484,983.2823,483.44,983.48" style="stroke:#181818;stroke-width:1.0;"/><rect fill="none" height="6" style="stroke:#C82930;stroke-width:1.0;" width="6" x="582.5" y="1030.1344"/><text fill="#000000" font-family="sans-serif" font-size="13" lengthAdjust="spacing" textLength="32" x="592.5" y="1037.3538">_map</text></g><!--MD5=[e5741efe1b6ad03f6de4a12370ae5783]
reverse link C_0000419081589640496338 to C_0000163967524215595475--><g id="link_C_0000419081589640496338_C_0000163967524215595475"><path codeLine="132" d="M560.71,569.34 C538.42,586.46 509.93,608.34 479.22,631.94 " fill="none" id="C_0000419081589640496338-backto-C_0000163967524215595475" style="stroke:#181818;stroke-width:1.0;"/><polygon fill="none" points="556.05,563.32,576.18,556.68,564.58,574.42,556.05,563.32" style="stroke:#181818;stroke-width:1.0;"/></g><!--MD5=[c7d092728d780b236f081c5db5253f23]
@startuml
' /usr/lib/gcc/x86_64-pc-linux-gnu/13/include/g++-v13/array:94
class "std::array<size_t,N_DIMS>" as C_0001633597064224137669
class C_0001633597064224137669 {
__
}
' /usr/lib/gcc/x86_64-pc-linux-gnu/13/include/g++-v13/bits/shared_ptr.h:175
class "std::shared_ptr<sparse::details::IndexType<size_t,N_DIMS>>" as C_0001136170508500136644
class C_0001136170508500136644 {
__
}
' /usr/lib/gcc/x86_64-pc-linux-gnu/13/include/g++-v13/bits/stl_multimap.h:70
class "std::map<sparse::details::IndexType<size_t,N_DIMS>,T>" as C_0002101388404201062680
class C_0002101388404201062680 {
__
}
' /home/jn/codes/cpp/otus23/sparse_matrix/src/sparse/matrix.hpp:30
abstract "sparse::details::CellAccessor<std::copyable T,size_t N_DIMS>" as C_0002212443975218405385
abstract C_0002212443975218405385 {
' /home/jn/codes/cpp/otus23/sparse_matrix/src/sparse/matrix.hpp:31
{abstract} +get(IndexTypeConstShared<N_DIMS>) const noexcept = 0 : const T &
' /home/jn/codes/cpp/otus23/sparse_matrix/src/sparse/matrix.hpp:32
{abstract} +set(IndexTypeConstShared<N_DIMS> idx, const T & value) noexcept = 0 : void
' /home/jn/codes/cpp/otus23/sparse_matrix/src/sparse/matrix.hpp:34
{abstract} +set(IndexTypeConstShared<N_DIMS> idx, T && value) noexcept = 0 : void
__
}
' /home/jn/codes/cpp/otus23/sparse_matrix/src/sparse/matrix.hpp:30
class "sparse::details::CellAccessor<T,N_DIMS>" as C_0000419081589640496338
class C_0000419081589640496338 {
__
}
' /home/jn/codes/cpp/otus23/sparse_matrix/src/sparse/matrix.hpp:39
class "sparse::details::ShiftIndex<std::copyable T,size_t N_DIMS,size_t DIM>" as C_0000136384432202654581
class C_0000136384432202654581 {
' /home/jn/codes/cpp/otus23/sparse_matrix/src/sparse/matrix.hpp:46
-ShiftIndex(CellAccessor<T,N_DIMS> * cell, IndexTypeShared<N_DIMS> idx) noexcept : void
' /home/jn/codes/cpp/otus23/sparse_matrix/src/sparse/matrix.hpp:48
-ShiftIndex(const ShiftIndex<T,N_DIMS,DIM> &) = deleted : void
..
' /home/jn/codes/cpp/otus23/sparse_matrix/src/sparse/matrix.hpp:49
-operator=(const ShiftIndex<T,N_DIMS,DIM> &) = deleted : ShiftIndex<T,N_DIMS,DIM> &
..
' /home/jn/codes/cpp/otus23/sparse_matrix/src/sparse/matrix.hpp:55
+operator[](size_t last_idx) noexcept : auto
__
' /home/jn/codes/cpp/otus23/sparse_matrix/src/sparse/matrix.hpp:43
-_cell : CellAccessor<T,N_DIMS> *
' /home/jn/codes/cpp/otus23/sparse_matrix/src/sparse/matrix.hpp:44
-_idx : const IndexTypeShared<N_DIMS>
}
' /home/jn/codes/cpp/otus23/sparse_matrix/src/sparse/matrix.hpp:62
class "sparse::details::ShiftIndex<T,N_DIMS,N_DIMS>" as C_0002263803576604671280
class C_0002263803576604671280 {
' /home/jn/codes/cpp/otus23/sparse_matrix/src/sparse/matrix.hpp:68
-ShiftIndex(CellAccessor<T,N_DIMS> * cell, IndexTypeShared<N_DIMS> idx) noexcept : void
' /home/jn/codes/cpp/otus23/sparse_matrix/src/sparse/matrix.hpp:70
-ShiftIndex(const ShiftIndex<type-parameter-0-0,N_DIMS,N_DIMS> &) = deleted : void
..
' /home/jn/codes/cpp/otus23/sparse_matrix/src/sparse/matrix.hpp:71
-operator=(const ShiftIndex<type-parameter-0-0,N_DIMS,N_DIMS> &) = deleted : ShiftIndex<type-parameter-0-0,N_DIMS,N_DIMS> &
..
' /home/jn/codes/cpp/otus23/sparse_matrix/src/sparse/matrix.hpp:78
+operator=(T && value) noexcept : auto &
' /home/jn/codes/cpp/otus23/sparse_matrix/src/sparse/matrix.hpp:82
+operator=(const T & value) noexcept : auto &
..
' /home/jn/codes/cpp/otus23/sparse_matrix/src/sparse/matrix.hpp:77
+operator type-parameter-0-0() const noexcept : T
__
' /home/jn/codes/cpp/otus23/sparse_matrix/src/sparse/matrix.hpp:65
-_cell : CellAccessor<T,N_DIMS> *
' /home/jn/codes/cpp/otus23/sparse_matrix/src/sparse/matrix.hpp:66
-_idx : const IndexTypeConstShared<N_DIMS>
}
' /home/jn/codes/cpp/otus23/sparse_matrix/src/sparse/matrix.hpp:91
class "sparse::Matrix<std::copyable T,size_t N_DIMS=2>" as C_0000163967524215595475
class C_0000163967524215595475 {
' /home/jn/codes/cpp/otus23/sparse_matrix/src/sparse/matrix.hpp:111
+Matrix(const T & default_value = T{}) noexcept : void
' /home/jn/codes/cpp/otus23/sparse_matrix/src/sparse/matrix.hpp:112
+Matrix(T && default_value) noexcept : void
' /home/jn/codes/cpp/otus23/sparse_matrix/src/sparse/matrix.hpp:114
+Matrix(const Matrix<T,N_DIMS> & other) : void
' /home/jn/codes/cpp/otus23/sparse_matrix/src/sparse/matrix.hpp:115
+Matrix(Matrix<T,N_DIMS> && other) : void
..
' /home/jn/codes/cpp/otus23/sparse_matrix/src/sparse/matrix.hpp:118
+operator=(const Matrix<T,N_DIMS> & other) : Matrix<T,N_DIMS> &
' /home/jn/codes/cpp/otus23/sparse_matrix/src/sparse/matrix.hpp:125
+operator=(Matrix<T,N_DIMS> && other) noexcept : Matrix<T,N_DIMS> &
..
' /home/jn/codes/cpp/otus23/sparse_matrix/src/sparse/matrix.hpp:158
+operator[](size_t idx1) : auto
..
' /home/jn/codes/cpp/otus23/sparse_matrix/src/sparse/matrix.hpp:167
+begin() const noexcept : const_iterator
' /home/jn/codes/cpp/otus23/sparse_matrix/src/sparse/matrix.hpp:169
+cbegin() const noexcept : const_iterator
' /home/jn/codes/cpp/otus23/sparse_matrix/src/sparse/matrix.hpp:170
+cend() const noexcept : const_iterator
' /home/jn/codes/cpp/otus23/sparse_matrix/src/sparse/matrix.hpp:168
+end() const noexcept : const_iterator
' /home/jn/codes/cpp/otus23/sparse_matrix/src/sparse/matrix.hpp:131
+get(IndexTypeConstShared idx) const noexcept : const T &
' /home/jn/codes/cpp/otus23/sparse_matrix/src/sparse/matrix.hpp:138
+set(IndexTypeConstShared idx, const T & value) noexcept : void
' /home/jn/codes/cpp/otus23/sparse_matrix/src/sparse/matrix.hpp:146
+set(IndexTypeConstShared idx, T && value) noexcept : void
' /home/jn/codes/cpp/otus23/sparse_matrix/src/sparse/matrix.hpp:164
+size() const noexcept : size_t
' /home/jn/codes/cpp/otus23/sparse_matrix/src/sparse/matrix.hpp:104
-swap(Matrix<T,N_DIMS> && other) noexcept : void
__
' /home/jn/codes/cpp/otus23/sparse_matrix/src/sparse/matrix.hpp:102
-_default : T
' /home/jn/codes/cpp/otus23/sparse_matrix/src/sparse/matrix.hpp:101
-_map : std::map<IndexType,T>
}
C_0001136170508500136644 ..> C_0001633597064224137669
C_0002101388404201062680 ..> C_0001633597064224137669
C_0002212443975218405385 ..> C_0001136170508500136644
C_0000419081589640496338 ..|> C_0002212443975218405385
C_0000136384432202654581 ..> C_0001136170508500136644
C_0000136384432202654581 - -> C_0000419081589640496338 : -_cell
C_0000136384432202654581 o- - C_0001136170508500136644 : -_idx
C_0002263803576604671280 ..> C_0001136170508500136644
C_0002263803576604671280 - -> C_0000419081589640496338 : -_cell
C_0002263803576604671280 o- - C_0001136170508500136644 : -_idx
C_0002263803576604671280 ..|> C_0000136384432202654581
C_0000163967524215595475 ..> C_0001136170508500136644
C_0000163967524215595475 o- - C_0002101388404201062680 : -_map
C_0000419081589640496338 <|- - C_0000163967524215595475

'Generated with clang-uml, version 0.3.8
'LLVM version clang version 16.0.6
@enduml

@startuml
class "std::array<size_t,N_DIMS>" as C_0001633597064224137669
class C_0001633597064224137669 {
__
}
class "std::shared_ptr<sparse::details::IndexType<size_t,N_DIMS>>" as C_0001136170508500136644
class C_0001136170508500136644 {
__
}
class "std::map<sparse::details::IndexType<size_t,N_DIMS>,T>" as C_0002101388404201062680
class C_0002101388404201062680 {
__
}
abstract "sparse::details::CellAccessor<std::copyable T,size_t N_DIMS>" as C_0002212443975218405385
abstract C_0002212443975218405385 {
{abstract} +get(IndexTypeConstShared<N_DIMS>) const noexcept = 0 : const T &
{abstract} +set(IndexTypeConstShared<N_DIMS> idx, const T & value) noexcept = 0 : void
{abstract} +set(IndexTypeConstShared<N_DIMS> idx, T && value) noexcept = 0 : void
__
}
class "sparse::details::CellAccessor<T,N_DIMS>" as C_0000419081589640496338
class C_0000419081589640496338 {
__
}
class "sparse::details::ShiftIndex<std::copyable T,size_t N_DIMS,size_t DIM>" as C_0000136384432202654581
class C_0000136384432202654581 {
-ShiftIndex(CellAccessor<T,N_DIMS> * cell, IndexTypeShared<N_DIMS> idx) noexcept : void
-ShiftIndex(const ShiftIndex<T,N_DIMS,DIM> &) = deleted : void
..
-operator=(const ShiftIndex<T,N_DIMS,DIM> &) = deleted : ShiftIndex<T,N_DIMS,DIM> &
..
+operator[](size_t last_idx) noexcept : auto
__
-_cell : CellAccessor<T,N_DIMS> *
-_idx : const IndexTypeShared<N_DIMS>
}
class "sparse::details::ShiftIndex<T,N_DIMS,N_DIMS>" as C_0002263803576604671280
class C_0002263803576604671280 {
-ShiftIndex(CellAccessor<T,N_DIMS> * cell, IndexTypeShared<N_DIMS> idx) noexcept : void
-ShiftIndex(const ShiftIndex<type-parameter-0-0,N_DIMS,N_DIMS> &) = deleted : void
..
-operator=(const ShiftIndex<type-parameter-0-0,N_DIMS,N_DIMS> &) = deleted : ShiftIndex<type-parameter-0-0,N_DIMS,N_DIMS> &
..
+operator=(T && value) noexcept : auto &
+operator=(const T & value) noexcept : auto &
..
+operator type-parameter-0-0() const noexcept : T
__
-_cell : CellAccessor<T,N_DIMS> *
-_idx : const IndexTypeConstShared<N_DIMS>
}
class "sparse::Matrix<std::copyable T,size_t N_DIMS=2>" as C_0000163967524215595475
class C_0000163967524215595475 {
+Matrix(const T & default_value = T{}) noexcept : void
+Matrix(T && default_value) noexcept : void
+Matrix(const Matrix<T,N_DIMS> & other) : void
+Matrix(Matrix<T,N_DIMS> && other) : void
..
+operator=(const Matrix<T,N_DIMS> & other) : Matrix<T,N_DIMS> &
+operator=(Matrix<T,N_DIMS> && other) noexcept : Matrix<T,N_DIMS> &
..
+operator[](size_t idx1) : auto
..
+begin() const noexcept : const_iterator
+cbegin() const noexcept : const_iterator
+cend() const noexcept : const_iterator
+end() const noexcept : const_iterator
+get(IndexTypeConstShared idx) const noexcept : const T &
+set(IndexTypeConstShared idx, const T & value) noexcept : void
+set(IndexTypeConstShared idx, T && value) noexcept : void
+size() const noexcept : size_t
-swap(Matrix<T,N_DIMS> && other) noexcept : void
__
-_default : T
-_map : std::map<IndexType,T>
}
C_0001136170508500136644 ..> C_0001633597064224137669
C_0002101388404201062680 ..> C_0001633597064224137669
C_0002212443975218405385 ..> C_0001136170508500136644
C_0000419081589640496338 ..|> C_0002212443975218405385
C_0000136384432202654581 ..> C_0001136170508500136644
C_0000136384432202654581 - -> C_0000419081589640496338 : -_cell
C_0000136384432202654581 o- - C_0001136170508500136644 : -_idx
C_0002263803576604671280 ..> C_0001136170508500136644
C_0002263803576604671280 - -> C_0000419081589640496338 : -_cell
C_0002263803576604671280 o- - C_0001136170508500136644 : -_idx
C_0002263803576604671280 ..|> C_0000136384432202654581
C_0000163967524215595475 ..> C_0001136170508500136644
C_0000163967524215595475 o- - C_0002101388404201062680 : -_map
C_0000419081589640496338 <|- - C_0000163967524215595475

@enduml

PlantUML version 1.2022.7(Mon Aug 22 20:01:30 MSK 2022)
(GPL source distribution)
Java Runtime: OpenJDK Runtime Environment
JVM: OpenJDK 64-Bit Server VM
Default Encoding: UTF-8
Language: ru
Country: RU
--></g></svg>