<?xml version="1.0" encoding="UTF-8" standalone="no"?><svg xmlns="http://www.w3.org/2000/svg" xmlns:xlink="http://www.w3.org/1999/xlink" contentStyleType="text/css" height="1470px" preserveAspectRatio="none" style="width:1374px;height:1470px;background:#FFFFFF;" version="1.1" viewBox="0 0 1374 1470" width="1374px" zoomAndPan="magnify"><defs/><g><!--MD5=[7e9942140dc15f76c2dda46cfb391697]
class C_0001633597064224137669--><g id="elem_C_0001633597064224137669"><rect codeLine="3" fill="#F1F1F1" height="48" id="C_0001633597064224137669" rx="2.5" ry="2.5" style="stroke:#181818;stroke-width:0.5;" width="178" x="885.5" y="1415.45"/><ellipse cx="900.5" cy="1431.45" fill="#ADD1B2" rx="11" ry="11" style="stroke:#181818;stroke-width:1.0;"/><path d="M898.4063,1431.2938 Q898.4063,1433.1688 898.9844,1434.1844 Q899.5625,1435.1844 900.7188,1435.1844 Q902.0625,1435.1844 902.7188,1433.1688 L904.9844,1433.5906 Q903.875,1437.1219 900.7031,1437.1219 Q898.3594,1437.1219 897.1406,1435.6375 Q895.9219,1434.1531 895.9219,1431.2938 Q895.9219,1425.575 900.625,1425.575 Q902.1719,1425.575 903.2031,1426.3875 Q904.25,1427.2 904.75,1428.8094 L902.4844,1429.3563 Q902.25,1428.4813 901.7656,1427.9969 Q901.2813,1427.4969 900.6563,1427.4969 Q898.4063,1427.4969 898.4063,1431.2938 Z " fill="#000000"/><text fill="#000000" font-family="sans-serif" font-size="14" lengthAdjust="spacing" textLength="60" x="914.5" y="1436.5325">std::array</text><rect fill="#FFFFFF" height="15.7988" style="stroke:#181818;stroke-width:1.0;stroke-dasharray:2.0,2.0;" width="84" x="982.5" y="1412.45"/><text fill="#000000" font-family="sans-serif" font-size="12" font-style="italic" lengthAdjust="spacing" textLength="82" x="983.5" y="1424.7059">size_t,N_DIMS</text><line style="stroke:#181818;stroke-width:0.5;" x1="886.5" x2="1062.5" y1="1447.45" y2="1447.45"/><line style="stroke:#181818;stroke-width:0.5;" x1="886.5" x2="1062.5" y1="1455.45" y2="1455.45"/></g><!--MD5=[38169d60eed4619969da931ba7ce4943]
class C_0001136170508500136644--><g id="elem_C_0001136170508500136644"><rect codeLine="8" fill="#F1F1F1" height="48" id="C_0001136170508500136644" rx="2.5" ry="2.5" style="stroke:#181818;stroke-width:0.5;" width="371" x="437" y="1306.45"/><ellipse cx="452" cy="1322.45" fill="#ADD1B2" rx="11" ry="11" style="stroke:#181818;stroke-width:1.0;"/><path d="M449.9063,1322.2938 Q449.9063,1324.1688 450.4844,1325.1844 Q451.0625,1326.1844 452.2188,1326.1844 Q453.5625,1326.1844 454.2188,1324.1688 L456.4844,1324.5906 Q455.375,1328.1219 452.2031,1328.1219 Q449.8594,1328.1219 448.6406,1326.6375 Q447.4219,1325.1531 447.4219,1322.2938 Q447.4219,1316.575 452.125,1316.575 Q453.6719,1316.575 454.7031,1317.3875 Q455.75,1318.2 456.25,1319.8094 L453.9844,1320.3563 Q453.75,1319.4813 453.2656,1318.9969 Q452.7813,1318.4969 452.1563,1318.4969 Q449.9063,1318.4969 449.9063,1322.2938 Z " fill="#000000"/><text fill="#000000" font-family="sans-serif" font-size="14" lengthAdjust="spacing" textLength="96" x="466" y="1327.5325">std::shared_ptr</text><rect fill="#FFFFFF" height="15.7988" style="stroke:#181818;stroke-width:1.0;stroke-dasharray:2.0,2.0;" width="241" x="570" y="1303.45"/><text fill="#000000" font-family="sans-serif" font-size="12" font-style="italic" lengthAdjust="spacing" textLength="239" x="571" y="1315.7059">sparse::details::IndexType&lt;size_t,N_DIMS&gt;</text><line style="stroke:#181818;stroke-width:0.5;" x1="438" x2="807" y1="1338.45" y2="1338.45"/><line style="stroke:#181818;stroke-width:0.5;" x1="438" x2="807" y1="1346.45" y2="1346.45"/></g><!--MD5=[714df4c390785c46437e6212e47928d5]
class C_0002101388404201062680--><g id="elem_C_0002101388404201062680"><rect codeLine="13" fill="#F1F1F1" height="48" id="C_0002101388404201062680" rx="2.5" ry="2.5" style="stroke:#181818;stroke-width:0.5;" width="339" x="997" y="991.86"/><ellipse cx="1012" cy="1007.86" fill="#ADD1B2" rx="11" ry="11" style="stroke:#181818;stroke-width:1.0;"/><path d="M1009.9063,1007.7038 Q1009.9063,1009.5788 1010.4844,1010.5944 Q1011.0625,1011.5944 1012.2188,1011.5944 Q1013.5625,1011.5944 1014.2188,1009.5788 L1016.4844,1010.0006 Q1015.375,1013.5319 1012.2031,1013.5319 Q1009.8594,1013.5319 1008.6406,1012.0475 Q1007.4219,1010.5631 1007.4219,1007.7038 Q1007.4219,1001.985 1012.125,1001.985 Q1013.6719,1001.985 1014.7031,1002.7975 Q1015.75,1003.61 1016.25,1005.2194 L1013.9844,1005.7663 Q1013.75,1004.8913 1013.2656,1004.4069 Q1012.7813,1003.9069 1012.1563,1003.9069 Q1009.9063,1003.9069 1009.9063,1007.7038 Z " fill="#000000"/><text fill="#000000" font-family="sans-serif" font-size="14" lengthAdjust="spacing" textLength="54" x="1026" y="1012.9425">std::map</text><rect fill="#FFFFFF" height="15.7988" style="stroke:#181818;stroke-width:1.0;stroke-dasharray:2.0,2.0;" width="251" x="1088" y="988.86"/><text fill="#000000" font-family="sans-serif" font-size="12" font-style="italic" lengthAdjust="spacing" textLength="249" x="1089" y="1001.1159">sparse::details::IndexType&lt;size_t,N_DIMS&gt;,T</text><line style="stroke:#181818;stroke-width:0.5;" x1="998" x2="1335" y1="1023.86" y2="1023.86"/><line style="stroke:#181818;stroke-width:0.5;" x1="998" x2="1335" y1="1031.86" y2="1031.86"/></g><!--MD5=[ecba8816d563dd25b63df65e9d66b7e7]
class C_0002212443975218405385--><g id="elem_C_0002212443975218405385"><rect codeLine="18" fill="#F1F1F1" height="96.2959" id="C_0002212443975218405385" rx="2.5" ry="2.5" style="stroke:#181818;stroke-width:0.5;" width="521" x="165" y="787.56"/><ellipse cx="244.25" cy="803.56" fill="#A9DCDF" rx="11" ry="11" style="stroke:#181818;stroke-width:1.0;"/><path d="M249.4531,808.06 L247.0156,808.06 L246.25,805.3256 L242.4688,805.3256 L241.7031,808.06 L239.25,808.06 L242.9219,796.8569 L245.7813,796.8569 L249.4531,808.06 Z M244.3594,798.3725 Q244.2813,798.7163 244.1094,799.4194 Q243.9375,800.1069 242.9844,803.4819 L245.7344,803.4819 Q244.7656,800.06 244.5938,799.3881 Q244.4219,798.7163 244.3594,798.3725 Z " fill="#000000"/><text fill="#000000" font-family="sans-serif" font-size="14" font-style="italic" lengthAdjust="spacing" textLength="182" x="264.75" y="808.6425">sparse::details::CellAccessor</text><rect fill="#FFFFFF" height="15.7988" style="stroke:#181818;stroke-width:1.0;stroke-dasharray:2.0,2.0;" width="170" x="519" y="784.56"/><text fill="#000000" font-family="sans-serif" font-size="12" font-style="italic" lengthAdjust="spacing" textLength="168" x="520" y="796.8159">std::copyable T,size_t N_DIMS</text><line style="stroke:#181818;stroke-width:0.5;" x1="166" x2="685" y1="819.56" y2="819.56"/><ellipse cx="176" cy="833.1093" fill="#84BE84" rx="3" ry="3" style="stroke:#038048;stroke-width:1.0;"/><text fill="#000000" font-family="sans-serif" font-size="14" font-style="italic" lengthAdjust="spacing" textLength="443" x="185" y="836.6918">get(IndexTypeConstShared&lt;N_DIMS&gt;) const noexcept = 0 : const T &amp;</text><ellipse cx="176" cy="849.2079" fill="#84BE84" rx="3" ry="3" style="stroke:#038048;stroke-width:1.0;"/><text fill="#000000" font-family="sans-serif" font-size="14" font-style="italic" lengthAdjust="spacing" textLength="495" x="185" y="852.7905">set(IndexTypeConstShared&lt;N_DIMS&gt; idx, const T &amp; value) noexcept = 0 : void</text><ellipse cx="176" cy="865.3066" fill="#84BE84" rx="3" ry="3" style="stroke:#038048;stroke-width:1.0;"/><text fill="#000000" font-family="sans-serif" font-size="14" font-style="italic" lengthAdjust="spacing" textLength="466" x="185" y="868.8891">set(IndexTypeConstShared&lt;N_DIMS&gt; idx, T &amp;&amp; value) noexcept = 0 : void</text><line style="stroke:#181818;stroke-width:0.5;" x1="166" x2="685" y1="875.8559" y2="875.8559"/></g><!--MD5=[3600e43b9bad103d020661441e62d18b]
class C_0000419081589640496338--><g id="elem_C_0000419081589640496338"><rect codeLine="29" fill="#F1F1F1" height="48" id="C_0000419081589640496338" rx="2.5" ry="2.5" style="stroke:#181818;stroke-width:0.5;" width="274" x="515.5" y="286.79"/><ellipse cx="530.5" cy="302.79" fill="#ADD1B2" rx="11" ry="11" style="stroke:#181818;stroke-width:1.0;"/><path d="M528.4063,302.6337 Q528.4063,304.5087 528.9844,305.5244 Q529.5625,306.5244 530.7188,306.5244 Q532.0625,306.5244 532.7188,304.5087 L534.9844,304.9306 Q533.875,308.4619 530.7031,308.4619 Q528.3594,308.4619 527.1406,306.9775 Q525.9219,305.4931 525.9219,302.6337 Q525.9219,296.915 530.625,296.915 Q532.1719,296.915 533.2031,297.7275 Q534.25,298.54 534.75,300.1494 L532.4844,300.6962 Q532.25,299.8212 531.7656,299.3369 Q531.2813,298.8369 530.6563,298.8369 Q528.4063,298.8369 528.4063,302.6337 Z " fill="#000000"/><text fill="#000000" font-family="sans-serif" font-size="14" lengthAdjust="spacing" textLength="182" x="544.5" y="307.8725">sparse::details::CellAccessor</text><rect fill="#FFFFFF" height="15.7988" style="stroke:#181818;stroke-width:1.0;stroke-dasharray:2.0,2.0;" width="58" x="734.5" y="283.79"/><text fill="#000000" font-family="sans-serif" font-size="12" font-style="italic" lengthAdjust="spacing" textLength="56" x="735.5" y="296.0459">T,N_DIMS</text><line style="stroke:#181818;stroke-width:0.5;" x1="516.5" x2="788.5" y1="318.79" y2="318.79"/><line style="stroke:#181818;stroke-width:0.5;" x1="516.5" x2="788.5" y1="326.79" y2="326.79"/></g><!--MD5=[cfc8598872cfea930e70d44f4b65979c]
class C_0000136384432202654581--><g id="elem_C_0000136384432202654581"><rect codeLine="34" fill="#F1F1F1" height="160.5918" id="C_0000136384432202654581" rx="2.5" ry="2.5" style="stroke:#181818;stroke-width:0.5;" width="597" x="676" y="1069.86"/><ellipse cx="773.25" cy="1085.86" fill="#ADD1B2" rx="11" ry="11" style="stroke:#181818;stroke-width:1.0;"/><path d="M771.1563,1085.7038 Q771.1563,1087.5788 771.7344,1088.5944 Q772.3125,1089.5944 773.4688,1089.5944 Q774.8125,1089.5944 775.4688,1087.5788 L777.7344,1088.0006 Q776.625,1091.5319 773.4531,1091.5319 Q771.1094,1091.5319 769.8906,1090.0475 Q768.6719,1088.5631 768.6719,1085.7038 Q768.6719,1079.985 773.375,1079.985 Q774.9219,1079.985 775.9531,1080.7975 Q777,1081.61 777.5,1083.2194 L775.2344,1083.7663 Q775,1082.8913 774.5156,1082.4069 Q774.0313,1081.9069 773.4063,1081.9069 Q771.1563,1081.9069 771.1563,1085.7038 Z " fill="#000000"/><text fill="#000000" font-family="sans-serif" font-size="14" lengthAdjust="spacing" textLength="161" x="793.75" y="1090.9425">sparse::details::ShiftIndex</text><rect fill="#FFFFFF" height="15.7988" style="stroke:#181818;stroke-width:1.0;stroke-dasharray:2.0,2.0;" width="231" x="1045" y="1066.86"/><text fill="#000000" font-family="sans-serif" font-size="12" font-style="italic" lengthAdjust="spacing" textLength="229" x="1046" y="1079.1159">std::copyable T,size_t N_DIMS,size_t DIM</text><line style="stroke:#181818;stroke-width:0.5;" x1="677" x2="1272" y1="1101.86" y2="1101.86"/><rect fill="#F24D5C" height="6" style="stroke:#C82930;stroke-width:1.0;" width="6" x="684" y="1112.4093"/><text fill="#000000" font-family="sans-serif" font-size="14" lengthAdjust="spacing" textLength="571" x="696" y="1118.9918">ShiftIndex(CellAccessor&lt;T,N_DIMS&gt; * cell, IndexTypeShared&lt;N_DIMS&gt; idx) noexcept : void</text><rect fill="#F24D5C" height="6" style="stroke:#C82930;stroke-width:1.0;" width="6" x="684" y="1128.5079"/><text fill="#000000" font-family="sans-serif" font-size="14" lengthAdjust="spacing" textLength="391" x="696" y="1135.0905">ShiftIndex(const ShiftIndex&lt;T,N_DIMS,DIM&gt; &amp;) = deleted : void</text><line style="stroke:#181818;stroke-width:1.0;stroke-dasharray:1.0,2.0;" x1="677" x2="1272" y1="1142.0573" y2="1142.0573"/><rect fill="#F24D5C" height="6" style="stroke:#C82930;stroke-width:1.0;" width="6" x="684" y="1152.6066"/><text fill="#000000" font-family="sans-serif" font-size="14" lengthAdjust="spacing" textLength="547" x="696" y="1159.1891">operator=(const ShiftIndex&lt;T,N_DIMS,DIM&gt; &amp;) = deleted : ShiftIndex&lt;T,N_DIMS,DIM&gt; &amp;</text><line style="stroke:#181818;stroke-width:1.0;stroke-dasharray:1.0,2.0;" x1="677" x2="1272" y1="1166.1559" y2="1166.1559"/><ellipse cx="687" cy="1179.7052" fill="#84BE84" rx="3" ry="3" style="stroke:#038048;stroke-width:1.0;"/><text fill="#000000" font-family="sans-serif" font-size="14" lengthAdjust="spacing" textLength="260" x="696" y="1183.2877">operator[](size_t last_idx) noexcept : auto</text><line style="stroke:#181818;stroke-width:0.5;" x1="677" x2="1272" y1="1190.2545" y2="1190.2545"/><rect fill="none" height="6" style="stroke:#C82930;stroke-width:1.0;" width="6" x="684" y="1200.8038"/><text fill="#000000" font-family="sans-serif" font-size="14" lengthAdjust="spacing" textLength="211" x="696" y="1207.3864">_cell : CellAccessor&lt;T,N_DIMS&gt; *</text><rect fill="none" height="6" style="stroke:#C82930;stroke-width:1.0;" width="6" x="684" y="1216.9025"/><text fill="#000000" font-family="sans-serif" font-size="14" lengthAdjust="spacing" textLength="252" x="696" y="1223.485">_idx : const IndexTypeShared&lt;N_DIMS&gt;</text></g><!--MD5=[9ec17c4db6406765bfc3f0a8c2f5070f]
class C_0002263803576604671280--><g id="elem_C_0002263803576604671280"><rect codeLine="53" fill="#F1F1F1" height="200.7891" id="C_0002263803576604671280" rx="2.5" ry="2.5" style="stroke:#181818;stroke-width:0.5;" width="853" x="7" y="10"/><ellipse cx="294.25" cy="26" fill="#ADD1B2" rx="11" ry="11" style="stroke:#181818;stroke-width:1.0;"/><path d="M292.1563,25.8438 Q292.1563,27.7188 292.7344,28.7344 Q293.3125,29.7344 294.4688,29.7344 Q295.8125,29.7344 296.4688,27.7188 L298.7344,28.1406 Q297.625,31.6719 294.4531,31.6719 Q292.1094,31.6719 290.8906,30.1875 Q289.6719,28.7031 289.6719,25.8438 Q289.6719,20.125 294.375,20.125 Q295.9219,20.125 296.9531,20.9375 Q298,21.75 298.5,23.3594 L296.2344,23.9063 Q296,23.0313 295.5156,22.5469 Q295.0313,22.0469 294.4063,22.0469 Q292.1563,22.0469 292.1563,25.8438 Z " fill="#000000"/><text fill="#000000" font-family="sans-serif" font-size="14" lengthAdjust="spacing" textLength="161" x="314.75" y="31.0825">sparse::details::ShiftIndex</text><rect fill="#FFFFFF" height="15.7988" style="stroke:#181818;stroke-width:1.0;stroke-dasharray:2.0,2.0;" width="107" x="756" y="7"/><text fill="#000000" font-family="sans-serif" font-size="12" font-style="italic" lengthAdjust="spacing" textLength="105" x="757" y="19.2559">T,N_DIMS,N_DIMS</text><line style="stroke:#181818;stroke-width:0.5;" x1="8" x2="859" y1="42" y2="42"/><rect fill="#F24D5C" height="6" style="stroke:#C82930;stroke-width:1.0;" width="6" x="15" y="52.5493"/><text fill="#000000" font-family="sans-serif" font-size="14" lengthAdjust="spacing" textLength="571" x="27" y="59.1318">ShiftIndex(CellAccessor&lt;T,N_DIMS&gt; * cell, IndexTypeShared&lt;N_DIMS&gt; idx) noexcept : void</text><rect fill="#F24D5C" height="6" style="stroke:#C82930;stroke-width:1.0;" width="6" x="15" y="68.6479"/><text fill="#000000" font-family="sans-serif" font-size="14" lengthAdjust="spacing" textLength="531" x="27" y="75.2305">ShiftIndex(const ShiftIndex&lt;type-parameter-0-0,N_DIMS,N_DIMS&gt; &amp;) = deleted : void</text><line style="stroke:#181818;stroke-width:1.0;stroke-dasharray:1.0,2.0;" x1="8" x2="859" y1="82.1973" y2="82.1973"/><rect fill="#F24D5C" height="6" style="stroke:#C82930;stroke-width:1.0;" width="6" x="15" y="92.7466"/><text fill="#000000" font-family="sans-serif" font-size="14" lengthAdjust="spacing" textLength="827" x="27" y="99.3291">operator=(const ShiftIndex&lt;type-parameter-0-0,N_DIMS,N_DIMS&gt; &amp;) = deleted : ShiftIndex&lt;type-parameter-0-0,N_DIMS,N_DIMS&gt; &amp;</text><line style="stroke:#181818;stroke-width:1.0;stroke-dasharray:1.0,2.0;" x1="8" x2="859" y1="106.2959" y2="106.2959"/><ellipse cx="18" cy="119.8452" fill="#84BE84" rx="3" ry="3" style="stroke:#038048;stroke-width:1.0;"/><text fill="#000000" font-family="sans-serif" font-size="14" lengthAdjust="spacing" textLength="255" x="27" y="123.4277">operator=(T &amp;&amp; value) noexcept : auto &amp;</text><ellipse cx="18" cy="135.9438" fill="#84BE84" rx="3" ry="3" style="stroke:#038048;stroke-width:1.0;"/><text fill="#000000" font-family="sans-serif" font-size="14" lengthAdjust="spacing" textLength="284" x="27" y="139.5264">operator=(const T &amp; value) noexcept : auto &amp;</text><line style="stroke:#181818;stroke-width:1.0;stroke-dasharray:1.0,2.0;" x1="8" x2="859" y1="146.4932" y2="146.4932"/><ellipse cx="18" cy="160.0425" fill="#84BE84" rx="3" ry="3" style="stroke:#038048;stroke-width:1.0;"/><text fill="#000000" font-family="sans-serif" font-size="14" lengthAdjust="spacing" textLength="311" x="27" y="163.625">operator type-parameter-0-0() const noexcept : T</text><line style="stroke:#181818;stroke-width:0.5;" x1="8" x2="859" y1="170.5918" y2="170.5918"/><rect fill="none" height="6" style="stroke:#C82930;stroke-width:1.0;" width="6" x="15" y="181.1411"/><text fill="#000000" font-family="sans-serif" font-size="14" lengthAdjust="spacing" textLength="211" x="27" y="187.7236">_cell : CellAccessor&lt;T,N_DIMS&gt; *</text><rect fill="none" height="6" style="stroke:#C82930;stroke-width:1.0;" width="6" x="15" y="197.2397"/><text fill="#000000" font-family="sans-serif" font-size="14" lengthAdjust="spacing" textLength="289" x="27" y="203.8223">_idx : const IndexTypeConstShared&lt;N_DIMS&gt;</text></g><!--MD5=[3ea49a31f5181868fad5d535f57e0911]
class C_0000755254241326504162--><g id="elem_C_0000755254241326504162"><rect codeLine="77" fill="#F1F1F1" height="48" id="C_0000755254241326504162" rx="2.5" ry="2.5" style="stroke:#181818;stroke-width:0.5;" width="263" x="850" y="913.86"/><ellipse cx="865" cy="929.86" fill="#ADD1B2" rx="11" ry="11" style="stroke:#181818;stroke-width:1.0;"/><path d="M862.9063,929.7038 Q862.9063,931.5788 863.4844,932.5944 Q864.0625,933.5944 865.2188,933.5944 Q866.5625,933.5944 867.2188,931.5788 L869.4844,932.0006 Q868.375,935.5319 865.2031,935.5319 Q862.8594,935.5319 861.6406,934.0475 Q860.4219,932.5631 860.4219,929.7038 Q860.4219,923.985 865.125,923.985 Q866.6719,923.985 867.7031,924.7975 Q868.75,925.61 869.25,927.2194 L866.9844,927.7663 Q866.75,926.8913 866.2656,926.4069 Q865.7813,925.9069 865.1563,925.9069 Q862.9063,925.9069 862.9063,929.7038 Z " fill="#000000"/><text fill="#000000" font-family="sans-serif" font-size="14" lengthAdjust="spacing" textLength="161" x="879" y="934.9425">sparse::details::ShiftIndex</text><rect fill="#FFFFFF" height="15.7988" style="stroke:#181818;stroke-width:1.0;stroke-dasharray:2.0,2.0;" width="68" x="1048" y="910.86"/><text fill="#000000" font-family="sans-serif" font-size="12" font-style="italic" lengthAdjust="spacing" textLength="66" x="1049" y="923.1159">T,N_DIMS,1</text><line style="stroke:#181818;stroke-width:0.5;" x1="851" x2="1112" y1="945.86" y2="945.86"/><line style="stroke:#181818;stroke-width:0.5;" x1="851" x2="1112" y1="953.86" y2="953.86"/></g><!--MD5=[1b842457dc546f603a6a5254a5e087cf]
class C_0000163967524215595475--><g id="elem_C_0000163967524215595475"><rect codeLine="82" fill="#F1F1F1" height="361.7754" id="C_0000163967524215595475" rx="2.5" ry="2.5" style="stroke:#181818;stroke-width:0.5;" width="475" x="778" y="395.79"/><ellipse cx="874.25" cy="411.79" fill="#ADD1B2" rx="11" ry="11" style="stroke:#181818;stroke-width:1.0;"/><path d="M872.1563,411.6337 Q872.1563,413.5087 872.7344,414.5244 Q873.3125,415.5244 874.4688,415.5244 Q875.8125,415.5244 876.4688,413.5087 L878.7344,413.9306 Q877.625,417.4619 874.4531,417.4619 Q872.1094,417.4619 870.8906,415.9775 Q869.6719,414.4931 869.6719,411.6337 Q869.6719,405.915 874.375,405.915 Q875.9219,405.915 876.9531,406.7275 Q878,407.54 878.5,409.1494 L876.2344,409.6962 Q876,408.8212 875.5156,408.3369 Q875.0313,407.8369 874.4063,407.8369 Q872.1563,407.8369 872.1563,411.6337 Z " fill="#000000"/><text fill="#000000" font-family="sans-serif" font-size="14" lengthAdjust="spacing" textLength="88" x="894.75" y="416.8725">sparse::Matrix</text><rect fill="#FFFFFF" height="15.7988" style="stroke:#181818;stroke-width:1.0;stroke-dasharray:2.0,2.0;" width="184" x="1072" y="392.79"/><text fill="#000000" font-family="sans-serif" font-size="12" font-style="italic" lengthAdjust="spacing" textLength="182" x="1073" y="405.0459">std::copyable T,size_t N_DIMS=2</text><line style="stroke:#181818;stroke-width:0.5;" x1="779" x2="1252" y1="427.79" y2="427.79"/><ellipse cx="789" cy="441.3393" fill="#84BE84" rx="3" ry="3" style="stroke:#038048;stroke-width:1.0;"/><text fill="#000000" font-family="sans-serif" font-size="14" lengthAdjust="spacing" textLength="295" x="798" y="444.9218">Matrix(const T &amp; default_value) noexcept : void</text><ellipse cx="789" cy="457.4379" fill="#84BE84" rx="3" ry="3" style="stroke:#038048;stroke-width:1.0;"/><text fill="#000000" font-family="sans-serif" font-size="14" lengthAdjust="spacing" textLength="301" x="798" y="461.0205">Matrix(T &amp;&amp; default_value = T{}) noexcept : void</text><ellipse cx="789" cy="473.5366" fill="#84BE84" rx="3" ry="3" style="stroke:#038048;stroke-width:1.0;"/><text fill="#000000" font-family="sans-serif" font-size="14" lengthAdjust="spacing" textLength="289" x="798" y="477.1191">Matrix(const Matrix&lt;T,N_DIMS&gt; &amp; other) : void</text><ellipse cx="789" cy="489.6352" fill="#84BE84" rx="3" ry="3" style="stroke:#038048;stroke-width:1.0;"/><text fill="#000000" font-family="sans-serif" font-size="14" lengthAdjust="spacing" textLength="260" x="798" y="493.2177">Matrix(Matrix&lt;T,N_DIMS&gt; &amp;&amp; other) : void</text><line style="stroke:#181818;stroke-width:1.0;stroke-dasharray:1.0,2.0;" x1="779" x2="1252" y1="500.1845" y2="500.1845"/><ellipse cx="789" cy="513.7338" fill="#84BE84" rx="3" ry="3" style="stroke:#038048;stroke-width:1.0;"/><text fill="#000000" font-family="sans-serif" font-size="14" lengthAdjust="spacing" textLength="417" x="798" y="517.3164">operator=(const Matrix&lt;T,N_DIMS&gt; &amp; other) : Matrix&lt;T,N_DIMS&gt; &amp;</text><ellipse cx="789" cy="529.8325" fill="#84BE84" rx="3" ry="3" style="stroke:#038048;stroke-width:1.0;"/><text fill="#000000" font-family="sans-serif" font-size="14" lengthAdjust="spacing" textLength="449" x="798" y="533.415">operator=(Matrix&lt;T,N_DIMS&gt; &amp;&amp; other) noexcept : Matrix&lt;T,N_DIMS&gt; &amp;</text><line style="stroke:#181818;stroke-width:1.0;stroke-dasharray:1.0,2.0;" x1="779" x2="1252" y1="540.3818" y2="540.3818"/><ellipse cx="789" cy="553.9311" fill="#84BE84" rx="3" ry="3" style="stroke:#038048;stroke-width:1.0;"/><text fill="#000000" font-family="sans-serif" font-size="14" lengthAdjust="spacing" textLength="243" x="798" y="557.5136">operator[](size_t idx1) : HeadShiftIndex</text><line style="stroke:#181818;stroke-width:1.0;stroke-dasharray:1.0,2.0;" x1="779" x2="1252" y1="564.4804" y2="564.4804"/><ellipse cx="789" cy="578.0297" fill="#84BE84" rx="3" ry="3" style="stroke:#038048;stroke-width:1.0;"/><text fill="#000000" font-family="sans-serif" font-size="14" lengthAdjust="spacing" textLength="243" x="798" y="581.6123">begin() const noexcept : const_iterator</text><ellipse cx="789" cy="594.1284" fill="#84BE84" rx="3" ry="3" style="stroke:#038048;stroke-width:1.0;"/><text fill="#000000" font-family="sans-serif" font-size="14" lengthAdjust="spacing" textLength="250" x="798" y="597.7109">cbegin() const noexcept : const_iterator</text><ellipse cx="789" cy="610.227" fill="#84BE84" rx="3" ry="3" style="stroke:#038048;stroke-width:1.0;"/><text fill="#000000" font-family="sans-serif" font-size="14" lengthAdjust="spacing" textLength="239" x="798" y="613.8095">cend() const noexcept : const_iterator</text><ellipse cx="789" cy="626.3256" fill="#84BE84" rx="3" ry="3" style="stroke:#038048;stroke-width:1.0;"/><text fill="#000000" font-family="sans-serif" font-size="14" lengthAdjust="spacing" textLength="232" x="798" y="629.9082">end() const noexcept : const_iterator</text><ellipse cx="789" cy="642.4243" fill="#84BE84" rx="3" ry="3" style="stroke:#038048;stroke-width:1.0;"/><text fill="#000000" font-family="sans-serif" font-size="14" lengthAdjust="spacing" textLength="370" x="798" y="646.0068">get(IndexTypeConstShared idx) const noexcept : const T &amp;</text><ellipse cx="789" cy="658.5229" fill="#84BE84" rx="3" ry="3" style="stroke:#038048;stroke-width:1.0;"/><text fill="#000000" font-family="sans-serif" font-size="14" lengthAdjust="spacing" textLength="403" x="798" y="662.1054">set(IndexTypeConstShared idx, const T &amp; value) noexcept : void</text><ellipse cx="789" cy="674.6215" fill="#84BE84" rx="3" ry="3" style="stroke:#038048;stroke-width:1.0;"/><text fill="#000000" font-family="sans-serif" font-size="14" lengthAdjust="spacing" textLength="374" x="798" y="678.2041">set(IndexTypeConstShared idx, T &amp;&amp; value) noexcept : void</text><ellipse cx="789" cy="690.7202" fill="#84BE84" rx="3" ry="3" style="stroke:#038048;stroke-width:1.0;"/><text fill="#000000" font-family="sans-serif" font-size="14" lengthAdjust="spacing" textLength="181" x="798" y="694.3027">size() const noexcept : size_t</text><rect fill="#F24D5C" height="6" style="stroke:#C82930;stroke-width:1.0;" width="6" x="786" y="703.8188"/><text fill="#000000" font-family="sans-serif" font-size="14" lengthAdjust="spacing" textLength="316" x="798" y="710.4013">swap(Matrix&lt;T,N_DIMS&gt; &amp;&amp; other) noexcept : void</text><line style="stroke:#181818;stroke-width:0.5;" x1="779" x2="1252" y1="717.3681" y2="717.3681"/><rect fill="none" height="6" style="stroke:#C82930;stroke-width:1.0;" width="6" x="786" y="727.9174"/><text fill="#000000" font-family="sans-serif" font-size="14" lengthAdjust="spacing" textLength="72" x="798" y="734.5">_default : T</text><rect fill="none" height="6" style="stroke:#C82930;stroke-width:1.0;" width="6" x="786" y="744.0161"/><text fill="#000000" font-family="sans-serif" font-size="14" lengthAdjust="spacing" textLength="195" x="798" y="750.5986">_map : std::map&lt;IndexType,T&gt;</text></g><!--MD5=[19641a37d086a293b398fe50e52c7fa5]
link C_0001136170508500136644 to C_0001633597064224137669--><g id="link_C_0001136170508500136644_C_0001633597064224137669"><path codeLine="124" d="M699.75,1354.93 C756.6,1372.21 833.79,1395.68 891.87,1413.33 " fill="none" id="C_0001136170508500136644-to-C_0001633597064224137669" style="stroke:#181818;stroke-width:1.0;stroke-dasharray:7.0,7.0;"/><polygon fill="#181818" points="896.43,1415.02,888.9853,1408.572,891.6468,1413.5636,886.6551,1416.2251,896.43,1415.02" style="stroke:#181818;stroke-width:1.0;"/></g><!--MD5=[001c3ba7f967274b91937b81773a3517]
link C_0002101388404201062680 to C_0001633597064224137669--><g id="link_C_0002101388404201062680_C_0001633597064224137669"><path codeLine="125" d="M1256.89,1040.3 C1270.18,1047.64 1282.18,1057.26 1290.5,1069.86 C1329.82,1129.43 1324.36,1167.62 1290.5,1230.45 C1239.99,1324.18 1126.73,1382.61 1050.45,1412.86 " fill="none" id="C_0002101388404201062680-to-C_0001633597064224137669" style="stroke:#181818;stroke-width:1.0;stroke-dasharray:7.0,7.0;"/><polygon fill="#181818" points="1046.03,1414.99,1055.8693,1415.424,1050.6841,1413.1626,1052.9455,1407.9774,1046.03,1414.99" style="stroke:#181818;stroke-width:1.0;"/></g><!--MD5=[194bfa789f98f44fabcc5bc371110bb5]
link C_0002212443975218405385 to C_0001136170508500136644--><g id="link_C_0002212443975218405385_C_0001136170508500136644"><path codeLine="126" d="M442.42,884.11 C471.74,965.29 534.79,1135.81 596.5,1276.45 C600.01,1284.46 604.07,1293.01 607.92,1300.86 " fill="none" id="C_0002212443975218405385-to-C_0001136170508500136644" style="stroke:#181818;stroke-width:1.0;stroke-dasharray:7.0,7.0;"/><polygon fill="#181818" points="610.55,1305.17,610.1531,1295.3291,608.3368,1300.6865,602.9795,1298.8703,610.55,1305.17" style="stroke:#181818;stroke-width:1.0;"/></g><!--MD5=[62652b9baf78e1eab4d1f6f3bfbac7ae]
link C_0000419081589640496338 to C_0002212443975218405385--><g id="link_C_0000419081589640496338_C_0002212443975218405385"><path codeLine="127" d="M642.31,335.27 C609.44,410.98 505.45,650.53 454.38,768.19 " fill="none" id="C_0000419081589640496338-to-C_0002212443975218405385" style="stroke:#181818;stroke-width:1.0;stroke-dasharray:7.0,7.0;"/><polygon fill="none" points="460.45,770.77,446.07,786.33,447.61,765.2,460.45,770.77" style="stroke:#181818;stroke-width:1.0;"/></g><!--MD5=[3abefd5ce8fafb347621ac12c7215e99]
link C_0000136384432202654581 to C_0001136170508500136644--><g id="link_C_0000136384432202654581_C_0001136170508500136644"><path codeLine="128" d="M865.04,1230.91 C839.68,1247.32 812.27,1263.52 785.5,1276.45 C763.3,1287.17 738.39,1296.51 714.86,1304.23 " fill="none" id="C_0000136384432202654581-to-C_0001136170508500136644" style="stroke:#181818;stroke-width:1.0;stroke-dasharray:7.0,7.0;"/><polygon fill="#181818" points="710.23,1306.05,720.0259,1307.0697,714.9847,1304.5033,717.5512,1299.4621,710.23,1306.05" style="stroke:#181818;stroke-width:1.0;"/></g><!--MD5=[1a8cfa83570eabf85a3f5f34c1781699]
reverse link C_0000136384432202654581 to C_0001136170508500136644--><g id="link_C_0000136384432202654581_C_0001136170508500136644"><path codeLine="130" d="M785.98,1236.84 C770.16,1244.64 754.5,1252.57 739.5,1260.45 C712.47,1274.66 682.85,1292.15 660.17,1305.97 " fill="none" id="C_0000136384432202654581-backto-C_0001136170508500136644" style="stroke:#181818;stroke-width:1.0;"/><polygon fill="none" points="797.1,1230.92,789.9528,1229.9624,786.3198,1236.1915,793.4671,1237.1491,797.1,1230.92" style="stroke:#181818;stroke-width:1.0;"/><rect fill="none" height="6" style="stroke:#C82930;stroke-width:1.0;" width="6" x="742.5" y="1266.4244"/><text fill="#000000" font-family="sans-serif" font-size="13" lengthAdjust="spacing" textLength="24" x="752.5" y="1273.6438">_idx</text></g><!--MD5=[7b8874d742c8a85730d75b410f217d0c]
link C_0000136384432202654581 to C_0000419081589640496338--><g id="link_C_0000136384432202654581_C_0000419081589640496338"><path codeLine="129" d="M876.07,1069.55 C823.72,1021.5 763.33,955.76 729.5,883.86 C683.23,785.5 660.09,443.06 654.1,340.82 " fill="none" id="C_0000136384432202654581-to-C_0000419081589640496338" style="stroke:#181818;stroke-width:1.0;"/><polygon fill="#181818" points="653.76,336,650.3062,345.2234,654.0595,340.991,658.2918,344.7443,653.76,336" style="stroke:#181818;stroke-width:1.0;"/><rect fill="none" height="6" style="stroke:#C82930;stroke-width:1.0;" width="6" x="732.5" y="833.6844"/><text fill="#000000" font-family="sans-serif" font-size="13" lengthAdjust="spacing" textLength="27" x="742.5" y="840.9038">_cell</text></g><!--MD5=[5292037be0d81b6d627981066f40861a]
link C_0002263803576604671280 to C_0001136170508500136644--><g id="link_C_0002263803576604671280_C_0001136170508500136644"><path codeLine="131" d="M189.58,211.24 C161.4,237.44 142.5,269.89 142.5,309.79 C142.5,309.79 142.5,309.79 142.5,1151.15 C142.5,1223.77 337.96,1276.31 479.42,1304.83 " fill="none" id="C_0002263803576604671280-to-C_0001136170508500136644" style="stroke:#181818;stroke-width:1.0;stroke-dasharray:7.0,7.0;"/><polygon fill="#181818" points="484.27,1306,476.2197,1300.3262,479.3655,1305.0277,474.664,1308.1734,484.27,1306" style="stroke:#181818;stroke-width:1.0;"/></g><!--MD5=[3526e0c01d574938874315a9f4f409a8]
reverse link C_0002263803576604671280 to C_0001136170508500136644--><g id="link_C_0002263803576604671280_C_0001136170508500136644"><path codeLine="133" d="M107.37,220.61 C85.24,244.69 71.5,274.04 71.5,309.79 C71.5,309.79 71.5,309.79 71.5,1151.15 C71.5,1191.68 84.19,1205.99 116.5,1230.45 C166.59,1268.37 313.89,1294.47 436.73,1310.31 " fill="none" id="C_0002263803576604671280-backto-C_0001136170508500136644" style="stroke:#181818;stroke-width:1.0;"/><polygon fill="none" points="115.98,211.95,108.9122,213.3807,107.5145,220.455,114.5823,219.0243,115.98,211.95" style="stroke:#181818;stroke-width:1.0;"/><rect fill="none" height="6" style="stroke:#C82930;stroke-width:1.0;" width="6" x="74.5" y="833.6844"/><text fill="#000000" font-family="sans-serif" font-size="13" lengthAdjust="spacing" textLength="24" x="84.5" y="840.9038">_idx</text></g><!--MD5=[6b0b181fc2d32eec1f770e7e4f56d0c3]
link C_0002263803576604671280 to C_0000419081589640496338--><g id="link_C_0002263803576604671280_C_0000419081589640496338"><path codeLine="132" d="M543.64,211.17 C572.68,237.48 601.66,263.73 622.4,282.52 " fill="none" id="C_0002263803576604671280-to-C_0000419081589640496338" style="stroke:#181818;stroke-width:1.0;"/><polygon fill="#181818" points="625.7,285.42,621.7053,276.4176,621.9906,282.0673,616.341,282.3526,625.7,285.42" style="stroke:#181818;stroke-width:1.0;"/><rect fill="none" height="6" style="stroke:#C82930;stroke-width:1.0;" width="6" x="596.5" y="246.7644"/><text fill="#000000" font-family="sans-serif" font-size="13" lengthAdjust="spacing" textLength="27" x="606.5" y="253.9838">_cell</text></g><!--MD5=[c849ad29985a55a247813c3644cc4b0b]
link C_0002263803576604671280 to C_0000136384432202654581--><g id="link_C_0002263803576604671280_C_0000136384432202654581"><path codeLine="134" d="M860.46,128.37 C1102.93,150.13 1358.5,199.28 1358.5,309.79 C1358.5,309.79 1358.5,309.79 1358.5,938.86 C1358.5,984.8 1367.68,1006.12 1336.5,1039.86 C1323.02,1054.44 1307.68,1067.1 1291.1,1078.09 " fill="none" id="C_0002263803576604671280-to-C_0000136384432202654581" style="stroke:#181818;stroke-width:1.0;stroke-dasharray:7.0,7.0;"/><polygon fill="none" points="1295.1,1084.46,1274.39,1088.95,1287.78,1072.53,1295.1,1084.46" style="stroke:#181818;stroke-width:1.0;"/></g><!--MD5=[7cfe61b3770292594cef5b253058e33a]
link C_0000755254241326504162 to C_0000136384432202654581--><g id="link_C_0000755254241326504162_C_0000136384432202654581"><path codeLine="135" d="M980.72,962.17 C980.01,983.5 978.91,1016.59 977.83,1049.04 " fill="none" id="C_0000755254241326504162-to-C_0000136384432202654581" style="stroke:#181818;stroke-width:1.0;stroke-dasharray:7.0,7.0;"/><polygon fill="none" points="984.81,1048.83,977.15,1068.59,970.82,1048.37,984.81,1048.83" style="stroke:#181818;stroke-width:1.0;"/></g><!--MD5=[7ffe087389bd6bd757b11719beaa8bac]
link C_0000163967524215595475 to C_0001136170508500136644--><g id="link_C_0000163967524215595475_C_0001136170508500136644"><path codeLine="136" d="M870.66,757.76 C783.84,869.27 685.23,1003.45 658.5,1069.86 C626.67,1148.95 622.15,1251.34 622.01,1300.54 " fill="none" id="C_0000163967524215595475-to-C_0001136170508500136644" style="stroke:#181818;stroke-width:1.0;stroke-dasharray:7.0,7.0;"/><polygon fill="#181818" points="622.01,1305.28,626.01,1296.28,622.01,1300.28,618.01,1296.28,622.01,1305.28" style="stroke:#181818;stroke-width:1.0;"/></g><!--MD5=[e6f04426803e38b5fd1a8b0dfcaa849c]
link C_0000163967524215595475 to C_0000755254241326504162--><g id="link_C_0000163967524215595475_C_0000755254241326504162"><path codeLine="137" d="M998.43,758.06 C992.92,816.24 987.42,874.32 984.25,907.85 " fill="none" id="C_0000163967524215595475-to-C_0000755254241326504162" style="stroke:#181818;stroke-width:1.0;stroke-dasharray:7.0,7.0;"/><polygon fill="#181818" points="983.72,912.42,988.5518,903.8378,984.192,907.4423,980.5875,903.0826,983.72,912.42" style="stroke:#181818;stroke-width:1.0;"/></g><!--MD5=[d6514d910eeaa9337d5d921ef760c6aa]
reverse link C_0000163967524215595475 to C_0002101388404201062680--><g id="link_C_0000163967524215595475_C_0002101388404201062680"><path codeLine="138" d="M1082.29,771.04 C1112.22,857.72 1144.01,949.76 1158.49,991.66 " fill="none" id="C_0000163967524215595475-backto-C_0002101388404201062680" style="stroke:#181818;stroke-width:1.0;"/><polygon fill="none" points="1077.79,759.02,1075.9677,765.9971,1081.7072,770.3627,1083.5295,763.3856,1077.79,759.02" style="stroke:#181818;stroke-width:1.0;"/><rect fill="none" height="6" style="stroke:#C82930;stroke-width:1.0;" width="6" x="1121.5" y="833.6844"/><text fill="#000000" font-family="sans-serif" font-size="13" lengthAdjust="spacing" textLength="32" x="1131.5" y="840.9038">_map</text></g><!--MD5=[e5741efe1b6ad03f6de4a12370ae5783]
reverse link C_0000419081589640496338 to C_0000163967524215595475--><g id="link_C_0000419081589640496338_C_0000163967524215595475"><path codeLine="139" d="M718.92,345.18 C730.01,351.36 741.23,358.02 751.5,364.79 C766.19,374.47 781.07,384.78 795.88,395.44 " fill="none" id="C_0000419081589640496338-backto-C_0000163967524215595475" style="stroke:#181818;stroke-width:1.0;"/><polygon fill="none" points="715.87,350.95,701.6,335.29,722.53,338.63,715.87,350.95" style="stroke:#181818;stroke-width:1.0;"/></g><!--MD5=[a69f1ab5318b48e4c3339309d94a64c4]
@startuml
' /usr/lib/gcc/x86_64-pc-linux-gnu/13/include/g++-v13/array:94
class "std::array<size_t,N_DIMS>" as C_0001633597064224137669
class C_0001633597064224137669 {
__
}
' /usr/lib/gcc/x86_64-pc-linux-gnu/13/include/g++-v13/bits/shared_ptr.h:175
class "std::shared_ptr<sparse::details::IndexType<size_t,N_DIMS>>" as C_0001136170508500136644
class C_0001136170508500136644 {
__
}
' /usr/lib/gcc/x86_64-pc-linux-gnu/13/include/g++-v13/bits/stl_multimap.h:70
class "std::map<sparse::details::IndexType<size_t,N_DIMS>,T>" as C_0002101388404201062680
class C_0002101388404201062680 {
__
}
' /home/jn/codes/cpp/otus23/sparse_matrix/src/sparse/matrix.hpp:30
abstract "sparse::details::CellAccessor<std::copyable T,size_t N_DIMS>" as C_0002212443975218405385
abstract C_0002212443975218405385 {
' /home/jn/codes/cpp/otus23/sparse_matrix/src/sparse/matrix.hpp:31
{abstract} +get(IndexTypeConstShared<N_DIMS>) const noexcept = 0 : const T &
' /home/jn/codes/cpp/otus23/sparse_matrix/src/sparse/matrix.hpp:32
{abstract} +set(IndexTypeConstShared<N_DIMS> idx, const T & value) noexcept = 0 : void
' /home/jn/codes/cpp/otus23/sparse_matrix/src/sparse/matrix.hpp:34
{abstract} +set(IndexTypeConstShared<N_DIMS> idx, T && value) noexcept = 0 : void
__
}
' /home/jn/codes/cpp/otus23/sparse_matrix/src/sparse/matrix.hpp:30
class "sparse::details::CellAccessor<T,N_DIMS>" as C_0000419081589640496338
class C_0000419081589640496338 {
__
}
' /home/jn/codes/cpp/otus23/sparse_matrix/src/sparse/matrix.hpp:39
class "sparse::details::ShiftIndex<std::copyable T,size_t N_DIMS,size_t DIM>" as C_0000136384432202654581
class C_0000136384432202654581 {
' /home/jn/codes/cpp/otus23/sparse_matrix/src/sparse/matrix.hpp:46
-ShiftIndex(CellAccessor<T,N_DIMS> * cell, IndexTypeShared<N_DIMS> idx) noexcept : void
' /home/jn/codes/cpp/otus23/sparse_matrix/src/sparse/matrix.hpp:48
-ShiftIndex(const ShiftIndex<T,N_DIMS,DIM> &) = deleted : void
..
' /home/jn/codes/cpp/otus23/sparse_matrix/src/sparse/matrix.hpp:49
-operator=(const ShiftIndex<T,N_DIMS,DIM> &) = deleted : ShiftIndex<T,N_DIMS,DIM> &
..
' /home/jn/codes/cpp/otus23/sparse_matrix/src/sparse/matrix.hpp:55
+operator[](size_t last_idx) noexcept : auto
__
' /home/jn/codes/cpp/otus23/sparse_matrix/src/sparse/matrix.hpp:43
-_cell : CellAccessor<T,N_DIMS> *
' /home/jn/codes/cpp/otus23/sparse_matrix/src/sparse/matrix.hpp:44
-_idx : const IndexTypeShared<N_DIMS>
}
' /home/jn/codes/cpp/otus23/sparse_matrix/src/sparse/matrix.hpp:62
class "sparse::details::ShiftIndex<T,N_DIMS,N_DIMS>" as C_0002263803576604671280
class C_0002263803576604671280 {
' /home/jn/codes/cpp/otus23/sparse_matrix/src/sparse/matrix.hpp:68
-ShiftIndex(CellAccessor<T,N_DIMS> * cell, IndexTypeShared<N_DIMS> idx) noexcept : void
' /home/jn/codes/cpp/otus23/sparse_matrix/src/sparse/matrix.hpp:70
-ShiftIndex(const ShiftIndex<type-parameter-0-0,N_DIMS,N_DIMS> &) = deleted : void
..
' /home/jn/codes/cpp/otus23/sparse_matrix/src/sparse/matrix.hpp:71
-operator=(const ShiftIndex<type-parameter-0-0,N_DIMS,N_DIMS> &) = deleted : ShiftIndex<type-parameter-0-0,N_DIMS,N_DIMS> &
..
' /home/jn/codes/cpp/otus23/sparse_matrix/src/sparse/matrix.hpp:78
+operator=(T && value) noexcept : auto &
' /home/jn/codes/cpp/otus23/sparse_matrix/src/sparse/matrix.hpp:82
+operator=(const T & value) noexcept : auto &
..
' /home/jn/codes/cpp/otus23/sparse_matrix/src/sparse/matrix.hpp:77
+operator type-parameter-0-0() const noexcept : T
__
' /home/jn/codes/cpp/otus23/sparse_matrix/src/sparse/matrix.hpp:65
-_cell : CellAccessor<T,N_DIMS> *
' /home/jn/codes/cpp/otus23/sparse_matrix/src/sparse/matrix.hpp:66
-_idx : const IndexTypeConstShared<N_DIMS>
}
' /home/jn/codes/cpp/otus23/sparse_matrix/src/sparse/matrix.hpp:39
class "sparse::details::ShiftIndex<T,N_DIMS,1>" as C_0000755254241326504162
class C_0000755254241326504162 {
__
}
' /home/jn/codes/cpp/otus23/sparse_matrix/src/sparse/matrix.hpp:91
class "sparse::Matrix<std::copyable T,size_t N_DIMS=2>" as C_0000163967524215595475
class C_0000163967524215595475 {
' /home/jn/codes/cpp/otus23/sparse_matrix/src/sparse/matrix.hpp:111
+Matrix(const T & default_value) noexcept : void
' /home/jn/codes/cpp/otus23/sparse_matrix/src/sparse/matrix.hpp:112
+Matrix(T && default_value = T{}) noexcept : void
' /home/jn/codes/cpp/otus23/sparse_matrix/src/sparse/matrix.hpp:114
+Matrix(const Matrix<T,N_DIMS> & other) : void
' /home/jn/codes/cpp/otus23/sparse_matrix/src/sparse/matrix.hpp:115
+Matrix(Matrix<T,N_DIMS> && other) : void
..
' /home/jn/codes/cpp/otus23/sparse_matrix/src/sparse/matrix.hpp:118
+operator=(const Matrix<T,N_DIMS> & other) : Matrix<T,N_DIMS> &
' /home/jn/codes/cpp/otus23/sparse_matrix/src/sparse/matrix.hpp:125
+operator=(Matrix<T,N_DIMS> && other) noexcept : Matrix<T,N_DIMS> &
..
' /home/jn/codes/cpp/otus23/sparse_matrix/src/sparse/matrix.hpp:158
+operator[](size_t idx1) : HeadShiftIndex
..
' /home/jn/codes/cpp/otus23/sparse_matrix/src/sparse/matrix.hpp:167
+begin() const noexcept : const_iterator
' /home/jn/codes/cpp/otus23/sparse_matrix/src/sparse/matrix.hpp:169
+cbegin() const noexcept : const_iterator
' /home/jn/codes/cpp/otus23/sparse_matrix/src/sparse/matrix.hpp:170
+cend() const noexcept : const_iterator
' /home/jn/codes/cpp/otus23/sparse_matrix/src/sparse/matrix.hpp:168
+end() const noexcept : const_iterator
' /home/jn/codes/cpp/otus23/sparse_matrix/src/sparse/matrix.hpp:131
+get(IndexTypeConstShared idx) const noexcept : const T &
' /home/jn/codes/cpp/otus23/sparse_matrix/src/sparse/matrix.hpp:138
+set(IndexTypeConstShared idx, const T & value) noexcept : void
' /home/jn/codes/cpp/otus23/sparse_matrix/src/sparse/matrix.hpp:146
+set(IndexTypeConstShared idx, T && value) noexcept : void
' /home/jn/codes/cpp/otus23/sparse_matrix/src/sparse/matrix.hpp:164
+size() const noexcept : size_t
' /home/jn/codes/cpp/otus23/sparse_matrix/src/sparse/matrix.hpp:104
-swap(Matrix<T,N_DIMS> && other) noexcept : void
__
' /home/jn/codes/cpp/otus23/sparse_matrix/src/sparse/matrix.hpp:102
-_default : T
' /home/jn/codes/cpp/otus23/sparse_matrix/src/sparse/matrix.hpp:101
-_map : std::map<IndexType,T>
}
C_0001136170508500136644 ..> C_0001633597064224137669
C_0002101388404201062680 ..> C_0001633597064224137669
C_0002212443975218405385 ..> C_0001136170508500136644
C_0000419081589640496338 ..|> C_0002212443975218405385
C_0000136384432202654581 ..> C_0001136170508500136644
C_0000136384432202654581 - -> C_0000419081589640496338 : -_cell
C_0000136384432202654581 o- - C_0001136170508500136644 : -_idx
C_0002263803576604671280 ..> C_0001136170508500136644
C_0002263803576604671280 - -> C_0000419081589640496338 : -_cell
C_0002263803576604671280 o- - C_0001136170508500136644 : -_idx
C_0002263803576604671280 ..|> C_0000136384432202654581
C_0000755254241326504162 ..|> C_0000136384432202654581
C_0000163967524215595475 ..> C_0001136170508500136644
C_0000163967524215595475 ..> C_0000755254241326504162
C_0000163967524215595475 o- - C_0002101388404201062680 : -_map
C_0000419081589640496338 <|- - C_0000163967524215595475

'Generated with clang-uml, version 0.3.8
'LLVM version clang version 16.0.6
@enduml

@startuml
class "std::array<size_t,N_DIMS>" as C_0001633597064224137669
class C_0001633597064224137669 {
__
}
class "std::shared_ptr<sparse::details::IndexType<size_t,N_DIMS>>" as C_0001136170508500136644
class C_0001136170508500136644 {
__
}
class "std::map<sparse::details::IndexType<size_t,N_DIMS>,T>" as C_0002101388404201062680
class C_0002101388404201062680 {
__
}
abstract "sparse::details::CellAccessor<std::copyable T,size_t N_DIMS>" as C_0002212443975218405385
abstract C_0002212443975218405385 {
{abstract} +get(IndexTypeConstShared<N_DIMS>) const noexcept = 0 : const T &
{abstract} +set(IndexTypeConstShared<N_DIMS> idx, const T & value) noexcept = 0 : void
{abstract} +set(IndexTypeConstShared<N_DIMS> idx, T && value) noexcept = 0 : void
__
}
class "sparse::details::CellAccessor<T,N_DIMS>" as C_0000419081589640496338
class C_0000419081589640496338 {
__
}
class "sparse::details::ShiftIndex<std::copyable T,size_t N_DIMS,size_t DIM>" as C_0000136384432202654581
class C_0000136384432202654581 {
-ShiftIndex(CellAccessor<T,N_DIMS> * cell, IndexTypeShared<N_DIMS> idx) noexcept : void
-ShiftIndex(const ShiftIndex<T,N_DIMS,DIM> &) = deleted : void
..
-operator=(const ShiftIndex<T,N_DIMS,DIM> &) = deleted : ShiftIndex<T,N_DIMS,DIM> &
..
+operator[](size_t last_idx) noexcept : auto
__
-_cell : CellAccessor<T,N_DIMS> *
-_idx : const IndexTypeShared<N_DIMS>
}
class "sparse::details::ShiftIndex<T,N_DIMS,N_DIMS>" as C_0002263803576604671280
class C_0002263803576604671280 {
-ShiftIndex(CellAccessor<T,N_DIMS> * cell, IndexTypeShared<N_DIMS> idx) noexcept : void
-ShiftIndex(const ShiftIndex<type-parameter-0-0,N_DIMS,N_DIMS> &) = deleted : void
..
-operator=(const ShiftIndex<type-parameter-0-0,N_DIMS,N_DIMS> &) = deleted : ShiftIndex<type-parameter-0-0,N_DIMS,N_DIMS> &
..
+operator=(T && value) noexcept : auto &
+operator=(const T & value) noexcept : auto &
..
+operator type-parameter-0-0() const noexcept : T
__
-_cell : CellAccessor<T,N_DIMS> *
-_idx : const IndexTypeConstShared<N_DIMS>
}
class "sparse::details::ShiftIndex<T,N_DIMS,1>" as C_0000755254241326504162
class C_0000755254241326504162 {
__
}
class "sparse::Matrix<std::copyable T,size_t N_DIMS=2>" as C_0000163967524215595475
class C_0000163967524215595475 {
+Matrix(const T & default_value) noexcept : void
+Matrix(T && default_value = T{}) noexcept : void
+Matrix(const Matrix<T,N_DIMS> & other) : void
+Matrix(Matrix<T,N_DIMS> && other) : void
..
+operator=(const Matrix<T,N_DIMS> & other) : Matrix<T,N_DIMS> &
+operator=(Matrix<T,N_DIMS> && other) noexcept : Matrix<T,N_DIMS> &
..
+operator[](size_t idx1) : HeadShiftIndex
..
+begin() const noexcept : const_iterator
+cbegin() const noexcept : const_iterator
+cend() const noexcept : const_iterator
+end() const noexcept : const_iterator
+get(IndexTypeConstShared idx) const noexcept : const T &
+set(IndexTypeConstShared idx, const T & value) noexcept : void
+set(IndexTypeConstShared idx, T && value) noexcept : void
+size() const noexcept : size_t
-swap(Matrix<T,N_DIMS> && other) noexcept : void
__
-_default : T
-_map : std::map<IndexType,T>
}
C_0001136170508500136644 ..> C_0001633597064224137669
C_0002101388404201062680 ..> C_0001633597064224137669
C_0002212443975218405385 ..> C_0001136170508500136644
C_0000419081589640496338 ..|> C_0002212443975218405385
C_0000136384432202654581 ..> C_0001136170508500136644
C_0000136384432202654581 - -> C_0000419081589640496338 : -_cell
C_0000136384432202654581 o- - C_0001136170508500136644 : -_idx
C_0002263803576604671280 ..> C_0001136170508500136644
C_0002263803576604671280 - -> C_0000419081589640496338 : -_cell
C_0002263803576604671280 o- - C_0001136170508500136644 : -_idx
C_0002263803576604671280 ..|> C_0000136384432202654581
C_0000755254241326504162 ..|> C_0000136384432202654581
C_0000163967524215595475 ..> C_0001136170508500136644
C_0000163967524215595475 ..> C_0000755254241326504162
C_0000163967524215595475 o- - C_0002101388404201062680 : -_map
C_0000419081589640496338 <|- - C_0000163967524215595475

@enduml

PlantUML version 1.2022.7(Mon Aug 22 20:01:30 MSK 2022)
(GPL source distribution)
Java Runtime: OpenJDK Runtime Environment
JVM: OpenJDK 64-Bit Server VM
Default Encoding: UTF-8
Language: ru
Country: RU
--></g></svg>