<?xml version="1.0" encoding="UTF-8" standalone="no"?>
<!DOCTYPE svg PUBLIC "-//W3C//DTD SVG 1.1//EN"
 "http://www.w3.org/Graphics/SVG/1.1/DTD/svg11.dtd">
<!-- Generated by graphviz version 8.1.0 (20230707.0739)
 -->
<!-- Title: sparse::details::ShiftIndex&lt; T, N_DIMS, DIM &gt; Pages: 1 -->
<svg width="133pt" height="114pt"
 viewBox="0.00 0.00 133.00 114.00" xmlns="http://www.w3.org/2000/svg" xmlns:xlink="http://www.w3.org/1999/xlink">
<g id="graph0" class="graph" transform="scale(1 1) rotate(0) translate(4 110)">
<title>sparse::details::ShiftIndex&lt; T, N_DIMS, DIM &gt;</title>
<!-- Node1 -->
<g id="Node000001" class="node">
<title>Node1</title>
<g id="a_Node000001"><a xlink:title=" ">
<polygon fill="#999999" stroke="none" points="125,-106 0,-106 0,0 125,0 125,-106"/>
<text text-anchor="start" x="5.12" y="-92.5" font-family="Helvetica,sans-Serif" font-size="10.00">sparse::details::ShiftIndex</text>
<text text-anchor="start" x="16.38" y="-77.5" font-family="Helvetica,sans-Serif" font-size="10.00">&lt; T, N_DIMS, DIM &gt;</text>
<text text-anchor="start" x="61" y="-58.5" font-family="Helvetica,sans-Serif" font-size="10.00"> </text>
<text text-anchor="start" x="4" y="-39.5" font-family="Helvetica,sans-Serif" font-size="10.00">+</text>
<text text-anchor="start" x="14" y="-39.5" font-family="Helvetica,sans-Serif" font-size="10.00">ShiftIndex&lt; T, N_DIMS,</text>
<text text-anchor="start" x="14" y="-24.5" font-family="Helvetica,sans-Serif" font-size="10.00"> DIM+1 &gt; operator[](size</text>
<text text-anchor="start" x="14" y="-9.5" font-family="Helvetica,sans-Serif" font-size="10.00">_t last_idx) noexcept</text>
<polygon fill="#666666" stroke="#666666" points="0,-70 0,-70 125,-70 125,-70 0,-70"/>
<polygon fill="#666666" stroke="#666666" points="0,-51 0,-51 125,-51 125,-51 0,-51"/>
<polygon fill="none" stroke="#666666" points="0,0 0,-106 125,-106 125,0 0,0"/>
</a>
</g>
</g>
</g>
</svg>
