<?xml version="1.0" encoding="UTF-8" standalone="no"?>
<!DOCTYPE svg PUBLIC "-//W3C//DTD SVG 1.1//EN"
 "http://www.w3.org/Graphics/SVG/1.1/DTD/svg11.dtd">
<!-- Generated by graphviz version 8.0.5 (20230430.1635)
 -->
<!-- Title: sparse::details::ShiftIndex&lt; T, N_DIMS, N_DIMS &gt; Pages: 1 -->
<svg width="132pt" height="198pt"
 viewBox="0.00 0.00 132.00 198.00" xmlns="http://www.w3.org/2000/svg" xmlns:xlink="http://www.w3.org/1999/xlink">
<g id="graph0" class="graph" transform="scale(1 1) rotate(0) translate(4 194)">
<title>sparse::details::ShiftIndex&lt; T, N_DIMS, N_DIMS &gt;</title>
<!-- Node1 -->
<g id="Node000001" class="node">
<title>Node1</title>
<g id="a_Node000001"><a xlink:title=" ">
<polygon fill="#999999" stroke="none" points="124,-190 0,-190 0,0 124,0 124,-190"/>
<text text-anchor="start" x="4.62" y="-176.5" font-family="Helvetica,sans-Serif" font-size="10.00">sparse::details::ShiftIndex</text>
<text text-anchor="start" x="6.12" y="-161.5" font-family="Helvetica,sans-Serif" font-size="10.00">&lt; T, N_DIMS, N_DIMS &gt;</text>
<text text-anchor="start" x="19.5" y="-142.5" font-family="Helvetica,sans-Serif" font-size="10.00">&#45;</text>
<text text-anchor="start" x="42" y="-142.5" font-family="Helvetica,sans-Serif" font-size="10.00">_cell</text>
<text text-anchor="start" x="19.5" y="-123.5" font-family="Helvetica,sans-Serif" font-size="10.00">&#45;</text>
<text text-anchor="start" x="42" y="-123.5" font-family="Helvetica,sans-Serif" font-size="10.00">_idx</text>
<text text-anchor="start" x="18" y="-104.5" font-family="Helvetica,sans-Serif" font-size="10.00">+</text>
<text text-anchor="start" x="42" y="-104.5" font-family="Helvetica,sans-Serif" font-size="10.00">operator T()</text>
<text text-anchor="start" x="18" y="-85.5" font-family="Helvetica,sans-Serif" font-size="10.00">+</text>
<text text-anchor="start" x="42" y="-85.5" font-family="Helvetica,sans-Serif" font-size="10.00">operator=()</text>
<text text-anchor="start" x="18" y="-66.5" font-family="Helvetica,sans-Serif" font-size="10.00">+</text>
<text text-anchor="start" x="42" y="-66.5" font-family="Helvetica,sans-Serif" font-size="10.00">operator=()</text>
<text text-anchor="start" x="19.5" y="-47.5" font-family="Helvetica,sans-Serif" font-size="10.00">&#45;</text>
<text text-anchor="start" x="42" y="-47.5" font-family="Helvetica,sans-Serif" font-size="10.00">ShiftIndex()</text>
<text text-anchor="start" x="19.5" y="-28.5" font-family="Helvetica,sans-Serif" font-size="10.00">&#45;</text>
<text text-anchor="start" x="42" y="-28.5" font-family="Helvetica,sans-Serif" font-size="10.00">operator=()</text>
<text text-anchor="start" x="19.5" y="-9.5" font-family="Helvetica,sans-Serif" font-size="10.00">&#45;</text>
<text text-anchor="start" x="42" y="-9.5" font-family="Helvetica,sans-Serif" font-size="10.00">ShiftIndex()</text>
<polygon fill="#666666" stroke="#666666" points="0,-154 0,-154 124,-154 124,-154 0,-154"/>
<polygon fill="#666666" stroke="#666666" points="0,-116 0,-116 40,-116 40,-116 0,-116"/>
<polygon fill="#666666" stroke="#666666" points="40,-116 40,-116 124,-116 124,-116 40,-116"/>
<polygon fill="none" stroke="#666666" points="0,0 0,-190 124,-190 124,0 0,0"/>
</a>
</g>
</g>
</g>
</svg>
