<?xml version="1.0" encoding="UTF-8" standalone="no"?>
<!DOCTYPE svg PUBLIC "-//W3C//DTD SVG 1.1//EN"
 "http://www.w3.org/Graphics/SVG/1.1/DTD/svg11.dtd">
<!-- Generated by graphviz version 8.0.5 (20230430.1635)
 -->
<!-- Title: Graph Legend Pages: 1 -->
<svg width="504pt" height="179pt"
 viewBox="0.00 0.00 504.38 179.00" xmlns="http://www.w3.org/2000/svg" xmlns:xlink="http://www.w3.org/1999/xlink">
<g id="graph0" class="graph" transform="scale(1 1) rotate(0) translate(4 175)">
<title>Graph Legend</title>
<!-- Node9 -->
<g id="Node000009" class="node">
<title>Node9</title>
<g id="a_Node000009"><a xlink:title=" ">
<polygon fill="#999999" stroke="#666666" points="289.5,-23 236,-23 236,0 289.5,0 289.5,-23"/>
<text text-anchor="middle" x="262.75" y="-9.5" font-family="Helvetica,sans-Serif" font-size="10.00">Inherited</text>
</a>
</g>
</g>
<!-- Node10 -->
<g id="Node000010" class="node">
<title>Node10</title>
<g id="a_Node000010"><a xlink:title=" ">
<polygon fill="white" stroke="#666666" points="65.5,-97 0,-97 0,-74 65.5,-74 65.5,-97"/>
<text text-anchor="middle" x="32.75" y="-83.5" font-family="Helvetica,sans-Serif" font-size="10.00">PublicBase</text>
</a>
</g>
</g>
<!-- Node10&#45;&gt;Node9 -->
<g id="edge1" class="edge">
<title>Node10&#45;&gt;Node9</title>
<g id="a_edge1"><a xlink:title=" ">
<path fill="none" stroke="#63b8ff" d="M76.15,-70.91C123.03,-56.24 196.27,-33.31 235.6,-21"/>
<polygon fill="#63b8ff" stroke="#63b8ff" points="75.2,-67.86 66.7,-74.18 77.29,-74.54 75.2,-67.86"/>
</a>
</g>
</g>
<!-- Node11 -->
<g id="Node000011" class="node">
<title>Node11</title>
<g id="a_Node000011"><a xlink:title=" ">
<polygon fill="#fff0f0" stroke="red" points="62.12,-171 3.38,-171 3.38,-148 62.12,-148 62.12,-171"/>
<text text-anchor="middle" x="32.75" y="-157.5" font-family="Helvetica,sans-Serif" font-size="10.00">Truncated</text>
</a>
</g>
</g>
<!-- Node11&#45;&gt;Node10 -->
<g id="edge2" class="edge">
<title>Node11&#45;&gt;Node10</title>
<g id="a_edge2"><a xlink:title=" ">
<path fill="none" stroke="#63b8ff" d="M32.75,-136.61C32.75,-123.49 32.75,-107.42 32.75,-97.07"/>
<polygon fill="#63b8ff" stroke="#63b8ff" points="29.25,-136.56 32.75,-146.56 36.25,-136.56 29.25,-136.56"/>
</a>
</g>
</g>
<!-- Node13 -->
<g id="node4" class="node">
<title>Node13</title>
<g id="a_node4"><a xlink:title=" ">
<polygon fill="white" stroke="#666666" points="164,-97 83.5,-97 83.5,-74 164,-74 164,-97"/>
<text text-anchor="middle" x="123.75" y="-83.5" font-family="Helvetica,sans-Serif" font-size="10.00">ProtectedBase</text>
</a>
</g>
</g>
<!-- Node13&#45;&gt;Node9 -->
<g id="edge3" class="edge">
<title>Node13&#45;&gt;Node9</title>
<g id="a_edge3"><a xlink:title=" ">
<path fill="none" stroke="darkgreen" d="M154.44,-68.6C181.01,-54.84 218.7,-35.32 241.9,-23.3"/>
<polygon fill="darkgreen" stroke="darkgreen" points="153.13,-65.86 145.86,-73.56 156.35,-72.07 153.13,-65.86"/>
</a>
</g>
</g>
<!-- Node14 -->
<g id="node5" class="node">
<title>Node14</title>
<g id="a_node5"><a xlink:title=" ">
<polygon fill="white" stroke="#666666" points="251,-97 182.5,-97 182.5,-74 251,-74 251,-97"/>
<text text-anchor="middle" x="216.75" y="-83.5" font-family="Helvetica,sans-Serif" font-size="10.00">PrivateBase</text>
</a>
</g>
</g>
<!-- Node14&#45;&gt;Node9 -->
<g id="edge4" class="edge">
<title>Node14&#45;&gt;Node9</title>
<g id="a_edge4"><a xlink:title=" ">
<path fill="none" stroke="#8b1a1a" d="M229.47,-64.59C238.06,-51.15 249.05,-33.94 256,-23.07"/>
<polygon fill="#8b1a1a" stroke="#8b1a1a" points="226.17,-62.25 223.74,-72.56 232.07,-66.02 226.17,-62.25"/>
</a>
</g>
</g>
<!-- Node15 -->
<g id="Node000015" class="node">
<title>Node15</title>
<g id="a_Node000015"><a xlink:title=" ">
<polygon fill="#e0e0e0" stroke="#999999" points="350.75,-97 268.75,-97 268.75,-74 350.75,-74 350.75,-97"/>
<text text-anchor="middle" x="309.75" y="-83.5" font-family="Helvetica,sans-Serif" font-size="10.00">Undocumented</text>
</a>
</g>
</g>
<!-- Node15&#45;&gt;Node9 -->
<g id="edge5" class="edge">
<title>Node15&#45;&gt;Node9</title>
<g id="a_edge5"><a xlink:title=" ">
<path fill="none" stroke="#63b8ff" d="M296.75,-64.59C287.98,-51.15 276.75,-33.94 269.65,-23.07"/>
<polygon fill="#63b8ff" stroke="#63b8ff" points="294.21,-66.1 302.61,-72.56 300.08,-62.28 294.21,-66.1"/>
</a>
</g>
</g>
<!-- Node16 -->
<g id="node7" class="node">
<title>Node16</title>
<g id="a_node7"><a xlink:title=" ">
<polygon fill="white" stroke="#666666" points="439.12,-97 368.38,-97 368.38,-74 439.12,-74 439.12,-97"/>
<text text-anchor="middle" x="403.75" y="-83.5" font-family="Helvetica,sans-Serif" font-size="10.00">Templ&lt; int &gt;</text>
</a>
</g>
</g>
<!-- Node16&#45;&gt;Node9 -->
<g id="edge6" class="edge">
<title>Node16&#45;&gt;Node9</title>
<g id="a_edge6"><a xlink:title=" ">
<path fill="none" stroke="#63b8ff" d="M372.62,-68.6C345.67,-54.84 307.43,-35.32 283.9,-23.3"/>
<polygon fill="#63b8ff" stroke="#63b8ff" points="370.84,-72.13 381.34,-73.56 374.02,-65.9 370.84,-72.13"/>
</a>
</g>
</g>
<!-- Node17 -->
<g id="node8" class="node">
<title>Node17</title>
<g id="a_node8"><a xlink:title=" ">
<polygon fill="white" stroke="#666666" points="436.88,-171 370.62,-171 370.62,-148 436.88,-148 436.88,-171"/>
<text text-anchor="middle" x="403.75" y="-157.5" font-family="Helvetica,sans-Serif" font-size="10.00">Templ&lt; T &gt;</text>
</a>
</g>
</g>
<!-- Node17&#45;&gt;Node16 -->
<g id="edge7" class="edge">
<title>Node17&#45;&gt;Node16</title>
<g id="a_edge7"><a xlink:title=" ">
<path fill="none" stroke="orange" stroke-dasharray="5,2" d="M403.75,-136.61C403.75,-123.49 403.75,-107.42 403.75,-97.07"/>
<polygon fill="orange" stroke="orange" points="400.25,-136.56 403.75,-146.56 407.25,-136.56 400.25,-136.56"/>
</a>
</g>
<text text-anchor="middle" x="418" y="-120.5" font-family="Helvetica,sans-Serif" font-size="10.00" fill="grey">&lt; int &gt;</text>
</g>
<!-- Node18 -->
<g id="node9" class="node">
<title>Node18</title>
<g id="a_node9"><a xlink:title=" ">
<polygon fill="white" stroke="#666666" points="496.38,-97 457.12,-97 457.12,-74 496.38,-74 496.38,-97"/>
<text text-anchor="middle" x="476.75" y="-83.5" font-family="Helvetica,sans-Serif" font-size="10.00">Used</text>
</a>
</g>
</g>
<!-- Node18&#45;&gt;Node9 -->
<g id="edge8" class="edge">
<title>Node18&#45;&gt;Node9</title>
<g id="a_edge8"><a xlink:title=" ">
<path fill="none" stroke="#9a32cd" stroke-dasharray="5,2" d="M446.52,-73.63C384.93,-52.32 323.99,-32.35 289.79,-21.24"/>
<polygon fill="#9a32cd" stroke="#9a32cd" points="445.21,-77.23 455.81,-77.2 447.51,-70.62 445.21,-77.23"/>
</a>
</g>
<text text-anchor="middle" x="421.75" y="-46.5" font-family="Helvetica,sans-Serif" font-size="10.00" fill="grey">m_usedClass</text>
</g>
</g>
</svg>
