<?xml version="1.0" encoding="UTF-8" standalone="no"?>
<!DOCTYPE svg PUBLIC "-//W3C//DTD SVG 1.1//EN"
 "http://www.w3.org/Graphics/SVG/1.1/DTD/svg11.dtd">
<!-- Generated by graphviz version 8.1.0 (20230707.0739)
 -->
<!-- Title: src/utils/logging.hpp Pages: 1 -->
<svg width="260pt" height="149pt"
 viewBox="0.00 0.00 259.50 149.00" xmlns="http://www.w3.org/2000/svg" xmlns:xlink="http://www.w3.org/1999/xlink">
<g id="graph0" class="graph" transform="scale(1 1) rotate(0) translate(4 145)">
<title>src/utils/logging.hpp</title>
<!-- Node1 -->
<g id="Node000001" class="node">
<title>Node1</title>
<g id="a_Node000001"><a xlink:title=" ">
<polygon fill="#999999" stroke="#666666" points="174.12,-141 71.12,-141 71.12,-118 174.12,-118 174.12,-141"/>
<text text-anchor="middle" x="122.62" y="-127.5" font-family="Helvetica,sans-Serif" font-size="10.00">src/utils/logging.hpp</text>
</a>
</g>
</g>
<!-- Node2 -->
<g id="Node000002" class="node">
<title>Node2</title>
<g id="a_Node000002"><a xlink:href="matrix_8hpp.html" target="_top" xlink:title=" ">
<polygon fill="white" stroke="#666666" points="111.25,-82 0,-82 0,-59 111.25,-59 111.25,-82"/>
<text text-anchor="middle" x="55.62" y="-68.5" font-family="Helvetica,sans-Serif" font-size="10.00">src/sparse/matrix.hpp</text>
</a>
</g>
</g>
<!-- Node1&#45;&gt;Node2 -->
<g id="edge1_Node000001_Node000002" class="edge">
<title>Node1&#45;&gt;Node2</title>
<g id="a_edge1_Node000001_Node000002"><a xlink:title=" ">
<path fill="none" stroke="#63b8ff" d="M101.55,-110.57C90.72,-101.35 77.86,-90.41 68.5,-82.46"/>
<polygon fill="#63b8ff" stroke="#63b8ff" points="98.82,-113.7 108.71,-117.51 103.36,-108.36 98.82,-113.7"/>
</a>
</g>
</g>
<!-- Node4 -->
<g id="Node000004" class="node">
<title>Node4</title>
<g id="a_Node000004"><a xlink:href="matrix23_8hpp.html" target="_top" xlink:title=" ">
<polygon fill="white" stroke="#666666" points="251.5,-82 129.75,-82 129.75,-59 251.5,-59 251.5,-82"/>
<text text-anchor="middle" x="190.62" y="-68.5" font-family="Helvetica,sans-Serif" font-size="10.00">src/sparse/matrix23.hpp</text>
</a>
</g>
</g>
<!-- Node1&#45;&gt;Node4 -->
<g id="edge3_Node000001_Node000004" class="edge">
<title>Node1&#45;&gt;Node4</title>
<g id="a_edge3_Node000001_Node000004"><a xlink:title=" ">
<path fill="none" stroke="#63b8ff" d="M144.01,-110.57C155.01,-101.35 168.06,-90.41 177.55,-82.46"/>
<polygon fill="#63b8ff" stroke="#63b8ff" points="142.15,-108.4 136.74,-117.51 146.65,-113.77 142.15,-108.4"/>
</a>
</g>
</g>
<!-- Node3 -->
<g id="Node000003" class="node">
<title>Node3</title>
<g id="a_Node000003"><a xlink:href="main_8cpp.html" target="_top" xlink:title=" ">
<polygon fill="white" stroke="#666666" points="91.75,-23 19.5,-23 19.5,0 91.75,0 91.75,-23"/>
<text text-anchor="middle" x="55.62" y="-9.5" font-family="Helvetica,sans-Serif" font-size="10.00">src/main.cpp</text>
</a>
</g>
</g>
<!-- Node2&#45;&gt;Node3 -->
<g id="edge2_Node000002_Node000003" class="edge">
<title>Node2&#45;&gt;Node3</title>
<g id="a_edge2_Node000002_Node000003"><a xlink:title=" ">
<path fill="none" stroke="#63b8ff" d="M55.62,-47.65C55.62,-39.38 55.62,-30.31 55.62,-23.46"/>
<polygon fill="#63b8ff" stroke="#63b8ff" points="52.13,-47.51 55.62,-57.51 59.13,-47.51 52.13,-47.51"/>
</a>
</g>
</g>
</g>
</svg>
