<?xml version="1.0" encoding="UTF-8" standalone="no"?>
<!DOCTYPE svg PUBLIC "-//W3C//DTD SVG 1.1//EN"
 "http://www.w3.org/Graphics/SVG/1.1/DTD/svg11.dtd">
<!-- Generated by graphviz version 8.0.5 (20230430.1635)
 -->
<!-- Title: src/utils/logging.hpp Pages: 1 -->
<svg width="236pt" height="149pt"
 viewBox="0.00 0.00 236.25 149.00" xmlns="http://www.w3.org/2000/svg" xmlns:xlink="http://www.w3.org/1999/xlink">

<svg id="main" version="1.1" xmlns="http://www.w3.org/2000/svg" xmlns:xlink="http://www.w3.org/1999/xlink" xml:space="preserve" onload="init(evt)">
<style type="text/css"><![CDATA[
.node, .edge {opacity: 0.7;}
.node.selected, .edge.selected {opacity: 1;}
.edge:hover path { stroke: red; }
.edge:hover polygon { stroke: red; fill: red; }
]]></style>
<script type="application/ecmascript" xlink:href="svg.min.js"/>
<svg id="graph" class="graph">
<g id="graph0" class="graph" transform="scale(1 1) rotate(0) translate(4 145)">
<title>src/utils/logging.hpp</title>
<!-- Node1 -->
<g id="Node000001" class="node">
<title>Node1</title>
<g id="a_Node000001"><a xlink:title=" ">
<polygon fill="#999999" stroke="#666666" points="148.62,-141 45.62,-141 45.62,-118 148.62,-118 148.62,-141"/>
<text text-anchor="middle" x="97.12" y="-127.5" font-family="Helvetica,sans-Serif" font-size="10.00">src/utils/logging.hpp</text>
</a>
</g>
</g>
<!-- Node2 -->
<g id="Node000002" class="node">
<title>Node2</title>
<g id="a_Node000002"><a xlink:href="matrix_8hpp.html" target="_top" xlink:title=" ">
<polygon fill="white" stroke="#666666" points="152.75,-82 41.5,-82 41.5,-59 152.75,-59 152.75,-82"/>
<text text-anchor="middle" x="97.12" y="-68.5" font-family="Helvetica,sans-Serif" font-size="10.00">src/sparse/matrix.hpp</text>
</a>
</g>
</g>
<!-- Node1&#45;&gt;Node2 -->
<g id="edge1_Node000001_Node000002" class="edge">
<title>Node1&#45;&gt;Node2</title>
<g id="a_edge1_Node000001_Node000002"><a xlink:title=" ">
<path fill="none" stroke="#63b8ff" d="M97.12,-106.65C97.12,-98.38 97.12,-89.31 97.12,-82.46"/>
<polygon fill="#63b8ff" stroke="#63b8ff" points="93.63,-106.51 97.12,-116.51 100.63,-106.51 93.63,-106.51"/>
</a>
</g>
</g>
<!-- Node3 -->
<g id="Node000003" class="node">
<title>Node3</title>
<g id="a_Node000003"><a xlink:href="main_8cpp.html" target="_top" xlink:title=" ">
<polygon fill="white" stroke="#666666" points="72.25,-23 0,-23 0,0 72.25,0 72.25,-23"/>
<text text-anchor="middle" x="36.12" y="-9.5" font-family="Helvetica,sans-Serif" font-size="10.00">src/main.cpp</text>
</a>
</g>
</g>
<!-- Node2&#45;&gt;Node3 -->
<g id="edge2_Node000002_Node000003" class="edge">
<title>Node2&#45;&gt;Node3</title>
<g id="a_edge2_Node000002_Node000003"><a xlink:title=" ">
<path fill="none" stroke="#63b8ff" d="M77.35,-51.02C67.61,-41.92 56.2,-31.25 47.85,-23.46"/>
<polygon fill="#63b8ff" stroke="#63b8ff" points="74.67,-53.24 84.36,-57.51 79.45,-48.13 74.67,-53.24"/>
</a>
</g>
</g>
<!-- Node4 -->
<g id="Node000004" class="node">
<title>Node4</title>
<g id="a_Node000004"><a xlink:href="matrix__gtest_8cpp.html" target="_top" xlink:title=" ">
<polygon fill="white" stroke="#666666" points="228.25,-23 90,-23 90,0 228.25,0 228.25,-23"/>
<text text-anchor="middle" x="159.12" y="-9.5" font-family="Helvetica,sans-Serif" font-size="10.00">src/sparse/matrix_gtest.cpp</text>
</a>
</g>
</g>
<!-- Node2&#45;&gt;Node4 -->
<g id="edge3_Node000002_Node000004" class="edge">
<title>Node2&#45;&gt;Node4</title>
<g id="a_edge3_Node000002_Node000004"><a xlink:title=" ">
<path fill="none" stroke="#63b8ff" d="M116.92,-51.3C126.89,-42.14 138.64,-31.33 147.21,-23.46"/>
<polygon fill="#63b8ff" stroke="#63b8ff" points="115.07,-48.17 110.08,-57.51 119.81,-53.32 115.07,-48.17"/>
</a>
</g>
</g>
</g>
</svg>
</svg>

<style type='text/css'>
<![CDATA[
[data-mouse-over-selected='false'] { opacity: 0.7; }
[data-mouse-over-selected='true']  { opacity: 1.0; }
]]>
</style>
<script type="application/ecmascript"><![CDATA[
document.addEventListener('DOMContentLoaded', (event) => {
  highlightEdges();
  highlightAdjacentNodes();
});
]]></script>
</svg>
