<?xml version="1.0" encoding="UTF-8" standalone="no"?>
<!DOCTYPE svg PUBLIC "-//W3C//DTD SVG 1.1//EN"
 "http://www.w3.org/Graphics/SVG/1.1/DTD/svg11.dtd">
<!-- Generated by graphviz version 8.0.5 (20230430.1635)
 -->
<!-- Title: src/sparse/matrix_gtest.cpp Pages: 1 -->
<svg width="575pt" height="149pt"
 viewBox="0.00 0.00 574.62 149.00" xmlns="http://www.w3.org/2000/svg" xmlns:xlink="http://www.w3.org/1999/xlink">
<g id="graph0" class="graph" transform="scale(1 1) rotate(0) translate(4 145)">
<title>src/sparse/matrix_gtest.cpp</title>
<!-- Node1 -->
<g id="Node000001" class="node">
<title>Node1</title>
<g id="a_Node000001"><a xlink:title=" ">
<polygon fill="#999999" stroke="#666666" points="219.5,-141 81.25,-141 81.25,-118 219.5,-118 219.5,-141"/>
<text text-anchor="middle" x="150.38" y="-127.5" font-family="Helvetica,sans-Serif" font-size="10.00">src/sparse/matrix_gtest.cpp</text>
</a>
</g>
</g>
<!-- Node2 -->
<g id="Node000002" class="node">
<title>Node2</title>
<g id="a_Node000002"><a xlink:title=" ">
<polygon fill="#e0e0e0" stroke="#999999" points="70.75,-82 0,-82 0,-59 70.75,-59 70.75,-82"/>
<text text-anchor="middle" x="35.38" y="-68.5" font-family="Helvetica,sans-Serif" font-size="10.00">gtest/gtest.h</text>
</a>
</g>
</g>
<!-- Node1&#45;&gt;Node2 -->
<g id="edge1_Node000001_Node000002" class="edge">
<title>Node1&#45;&gt;Node2</title>
<g id="a_edge1_Node000001_Node000002"><a xlink:title=" ">
<path fill="none" stroke="#63b8ff" d="M128.2,-117.51C110.86,-108.91 86.52,-96.85 67.11,-87.23"/>
<polygon fill="#63b8ff" stroke="#63b8ff" points="68.99,-83.76 58.48,-82.46 65.89,-90.03 68.99,-83.76"/>
</a>
</g>
</g>
<!-- Node3 -->
<g id="Node000003" class="node">
<title>Node3</title>
<g id="a_Node000003"><a xlink:title=" ">
<polygon fill="#e0e0e0" stroke="#999999" points="140,-82 88.75,-82 88.75,-59 140,-59 140,-82"/>
<text text-anchor="middle" x="114.38" y="-68.5" font-family="Helvetica,sans-Serif" font-size="10.00">sstream</text>
</a>
</g>
</g>
<!-- Node1&#45;&gt;Node3 -->
<g id="edge2_Node000001_Node000003" class="edge">
<title>Node1&#45;&gt;Node3</title>
<g id="a_edge2_Node000001_Node000003"><a xlink:title=" ">
<path fill="none" stroke="#63b8ff" d="M143.43,-117.51C138.8,-110.18 132.58,-100.32 127.07,-91.61"/>
<polygon fill="#63b8ff" stroke="#63b8ff" points="129.59,-90.04 121.29,-83.46 123.68,-93.78 129.59,-90.04"/>
</a>
</g>
</g>
<!-- Node4 -->
<g id="Node000004" class="node">
<title>Node4</title>
<g id="a_Node000004"><a xlink:title=" ">
<polygon fill="#e0e0e0" stroke="#999999" points="214.25,-82 158.5,-82 158.5,-59 214.25,-59 214.25,-82"/>
<text text-anchor="middle" x="186.38" y="-68.5" font-family="Helvetica,sans-Serif" font-size="10.00">algorithm</text>
</a>
</g>
</g>
<!-- Node1&#45;&gt;Node4 -->
<g id="edge3_Node000001_Node000004" class="edge">
<title>Node1&#45;&gt;Node4</title>
<g id="a_edge3_Node000001_Node000004"><a xlink:title=" ">
<path fill="none" stroke="#63b8ff" d="M157.32,-117.51C161.95,-110.18 168.17,-100.32 173.68,-91.61"/>
<polygon fill="#63b8ff" stroke="#63b8ff" points="177.07,-93.78 179.46,-83.46 171.16,-90.04 177.07,-93.78"/>
</a>
</g>
</g>
<!-- Node5 -->
<g id="Node000005" class="node">
<title>Node5</title>
<g id="a_Node000005"><a xlink:href="matrix_8hpp.html" target="_top" xlink:title=" ">
<polygon fill="white" stroke="#666666" points="294.25,-82 232.5,-82 232.5,-59 294.25,-59 294.25,-82"/>
<text text-anchor="middle" x="263.38" y="-68.5" font-family="Helvetica,sans-Serif" font-size="10.00">matrix.hpp</text>
</a>
</g>
</g>
<!-- Node1&#45;&gt;Node5 -->
<g id="edge4_Node000001_Node000005" class="edge">
<title>Node1&#45;&gt;Node5</title>
<g id="a_edge4_Node000001_Node000005"><a xlink:title=" ">
<path fill="none" stroke="#63b8ff" d="M172.16,-117.51C189.12,-108.95 212.9,-96.96 231.92,-87.36"/>
<polygon fill="#63b8ff" stroke="#63b8ff" points="233.3,-90.09 240.65,-82.46 230.15,-83.84 233.3,-90.09"/>
</a>
</g>
</g>
<!-- Node6 -->
<g id="Node000006" class="node">
<title>Node6</title>
<g id="a_Node000006"><a xlink:title=" ">
<polygon fill="#e0e0e0" stroke="#999999" points="58.25,-23 20.5,-23 20.5,0 58.25,0 58.25,-23"/>
<text text-anchor="middle" x="39.38" y="-9.5" font-family="Helvetica,sans-Serif" font-size="10.00">array</text>
</a>
</g>
</g>
<!-- Node5&#45;&gt;Node6 -->
<g id="edge5_Node000005_Node000006" class="edge">
<title>Node5&#45;&gt;Node6</title>
<g id="a_edge5_Node000005_Node000006"><a xlink:title=" ">
<path fill="none" stroke="#63b8ff" d="M232.39,-61.27C229.35,-60.49 226.3,-59.72 223.38,-59 157.53,-42.76 137.37,-43.43 68.99,-23.21"/>
<polygon fill="#63b8ff" stroke="#63b8ff" points="70.12,-19.59 59.54,-20.07 68.11,-26.3 70.12,-19.59"/>
</a>
</g>
</g>
<!-- Node7 -->
<g id="Node000007" class="node">
<title>Node7</title>
<g id="a_Node000007"><a xlink:title=" ">
<polygon fill="#e0e0e0" stroke="#999999" points="132.25,-23 76.5,-23 76.5,0 132.25,0 132.25,-23"/>
<text text-anchor="middle" x="104.38" y="-9.5" font-family="Helvetica,sans-Serif" font-size="10.00">concepts</text>
</a>
</g>
</g>
<!-- Node5&#45;&gt;Node7 -->
<g id="edge6_Node000005_Node000007" class="edge">
<title>Node5&#45;&gt;Node7</title>
<g id="a_edge6_Node000005_Node000007"><a xlink:title=" ">
<path fill="none" stroke="#63b8ff" d="M232.72,-58.51C207.03,-49.3 170.24,-36.11 142.63,-26.21"/>
<polygon fill="#63b8ff" stroke="#63b8ff" points="144.13,-22.68 133.54,-22.6 141.77,-29.27 144.13,-22.68"/>
</a>
</g>
</g>
<!-- Node8 -->
<g id="Node000008" class="node">
<title>Node8</title>
<g id="a_Node000008"><a xlink:title=" ">
<polygon fill="#e0e0e0" stroke="#999999" points="184.75,-23 150,-23 150,0 184.75,0 184.75,-23"/>
<text text-anchor="middle" x="167.38" y="-9.5" font-family="Helvetica,sans-Serif" font-size="10.00">map</text>
</a>
</g>
</g>
<!-- Node5&#45;&gt;Node8 -->
<g id="edge7_Node000005_Node000008" class="edge">
<title>Node5&#45;&gt;Node8</title>
<g id="a_edge7_Node000005_Node000008"><a xlink:title=" ">
<path fill="none" stroke="#63b8ff" d="M244.87,-58.51C230.61,-50.04 210.68,-38.21 194.61,-28.67"/>
<polygon fill="#63b8ff" stroke="#63b8ff" points="196.56,-25.17 186.18,-23.07 192.99,-31.19 196.56,-25.17"/>
</a>
</g>
</g>
<!-- Node9 -->
<g id="Node000009" class="node">
<title>Node9</title>
<g id="a_Node000009"><a xlink:title=" ">
<polygon fill="#e0e0e0" stroke="#999999" points="254.38,-23 202.38,-23 202.38,0 254.38,0 254.38,-23"/>
<text text-anchor="middle" x="228.38" y="-9.5" font-family="Helvetica,sans-Serif" font-size="10.00">memory</text>
</a>
</g>
</g>
<!-- Node5&#45;&gt;Node9 -->
<g id="edge8_Node000005_Node000009" class="edge">
<title>Node5&#45;&gt;Node9</title>
<g id="a_edge8_Node000005_Node000009"><a xlink:title=" ">
<path fill="none" stroke="#63b8ff" d="M256.63,-58.51C252.12,-51.18 246.07,-41.32 240.72,-32.61"/>
<polygon fill="#63b8ff" stroke="#63b8ff" points="243.32,-31.15 235.1,-24.46 237.35,-34.81 243.32,-31.15"/>
</a>
</g>
</g>
<!-- Node10 -->
<g id="Node000010" class="node">
<title>Node10</title>
<g id="a_Node000010"><a xlink:title=" ">
<polygon fill="#e0e0e0" stroke="#999999" points="324,-23 272.75,-23 272.75,0 324,0 324,-23"/>
<text text-anchor="middle" x="298.38" y="-9.5" font-family="Helvetica,sans-Serif" font-size="10.00">ostream</text>
</a>
</g>
</g>
<!-- Node5&#45;&gt;Node10 -->
<g id="edge9_Node000005_Node000010" class="edge">
<title>Node5&#45;&gt;Node10</title>
<g id="a_edge9_Node000005_Node000010"><a xlink:title=" ">
<path fill="none" stroke="#63b8ff" d="M270.12,-58.51C274.63,-51.18 280.68,-41.32 286.03,-32.61"/>
<polygon fill="#63b8ff" stroke="#63b8ff" points="289.4,-34.81 291.65,-24.46 283.43,-31.15 289.4,-34.81"/>
</a>
</g>
</g>
<!-- Node11 -->
<g id="Node000011" class="node">
<title>Node11</title>
<g id="a_Node000011"><a xlink:title=" ">
<polygon fill="#e0e0e0" stroke="#999999" points="404.25,-23 342.5,-23 342.5,0 404.25,0 404.25,-23"/>
<text text-anchor="middle" x="373.38" y="-9.5" font-family="Helvetica,sans-Serif" font-size="10.00">type_traits</text>
</a>
</g>
</g>
<!-- Node5&#45;&gt;Node11 -->
<g id="edge10_Node000005_Node000011" class="edge">
<title>Node5&#45;&gt;Node11</title>
<g id="a_edge10_Node000005_Node000011"><a xlink:title=" ">
<path fill="none" stroke="#63b8ff" d="M284.58,-58.51C301.02,-49.99 324.03,-38.07 342.5,-28.5"/>
<polygon fill="#63b8ff" stroke="#63b8ff" points="343.96,-31.16 351.23,-23.46 340.74,-24.95 343.96,-31.16"/>
</a>
</g>
</g>
<!-- Node12 -->
<g id="Node000012" class="node">
<title>Node12</title>
<g id="a_Node000012"><a xlink:title=" ">
<polygon fill="#e0e0e0" stroke="#999999" points="462,-23 422.75,-23 422.75,0 462,0 462,-23"/>
<text text-anchor="middle" x="442.38" y="-9.5" font-family="Helvetica,sans-Serif" font-size="10.00">utility</text>
</a>
</g>
</g>
<!-- Node5&#45;&gt;Node12 -->
<g id="edge11_Node000005_Node000012" class="edge">
<title>Node5&#45;&gt;Node12</title>
<g id="a_edge11_Node000005_Node000012"><a xlink:title=" ">
<path fill="none" stroke="#63b8ff" d="M294.54,-60.3C322.89,-51.83 366.12,-38.67 412.25,-23.28"/>
<polygon fill="#63b8ff" stroke="#63b8ff" points="413.08,-26.35 421.45,-19.85 410.86,-19.72 413.08,-26.35"/>
</a>
</g>
</g>
<!-- Node13 -->
<g id="Node000013" class="node">
<title>Node13</title>
<g id="a_Node000013"><a xlink:href="logging_8hpp.html" target="_top" xlink:title=" ">
<polygon fill="white" stroke="#666666" points="566.62,-23 480.12,-23 480.12,0 566.62,0 566.62,-23"/>
<text text-anchor="middle" x="523.38" y="-9.5" font-family="Helvetica,sans-Serif" font-size="10.00">utils/logging.hpp</text>
</a>
</g>
</g>
<!-- Node5&#45;&gt;Node13 -->
<g id="edge12_Node000005_Node000013" class="edge">
<title>Node5&#45;&gt;Node13</title>
<g id="a_edge12_Node000005_Node000013"><a xlink:title=" ">
<path fill="none" stroke="#63b8ff" d="M294.74,-62.62C337.95,-53.15 416.44,-35.94 469.24,-24.37"/>
<polygon fill="#63b8ff" stroke="#63b8ff" points="469.75,-27.62 478.77,-22.06 468.25,-20.78 469.75,-27.62"/>
</a>
</g>
</g>
</g>
</svg>
