<?xml version="1.0" encoding="UTF-8" standalone="no"?>
<!DOCTYPE svg PUBLIC "-//W3C//DTD SVG 1.1//EN"
 "http://www.w3.org/Graphics/SVG/1.1/DTD/svg11.dtd">
<!-- Generated by graphviz version 8.1.0 (20230707.0739)
 -->
<!-- Title: src/sparse/matrix.hpp Pages: 1 -->
<svg width="554pt" height="90pt"
 viewBox="0.00 0.00 554.12 90.00" xmlns="http://www.w3.org/2000/svg" xmlns:xlink="http://www.w3.org/1999/xlink">
<g id="graph0" class="graph" transform="scale(1 1) rotate(0) translate(4 86)">
<title>src/sparse/matrix.hpp</title>
<!-- Node1 -->
<g id="Node000001" class="node">
<title>Node1</title>
<g id="a_Node000001"><a xlink:title=" ">
<polygon fill="#999999" stroke="#666666" points="298.5,-82 187.25,-82 187.25,-59 298.5,-59 298.5,-82"/>
<text text-anchor="middle" x="242.88" y="-68.5" font-family="Helvetica,sans-Serif" font-size="10.00">src/sparse/matrix.hpp</text>
</a>
</g>
</g>
<!-- Node2 -->
<g id="Node000002" class="node">
<title>Node2</title>
<g id="a_Node000002"><a xlink:title=" ">
<polygon fill="#e0e0e0" stroke="#999999" points="37.75,-23 0,-23 0,0 37.75,0 37.75,-23"/>
<text text-anchor="middle" x="18.88" y="-9.5" font-family="Helvetica,sans-Serif" font-size="10.00">array</text>
</a>
</g>
</g>
<!-- Node1&#45;&gt;Node2 -->
<g id="edge1_Node000001_Node000002" class="edge">
<title>Node1&#45;&gt;Node2</title>
<g id="a_edge1_Node000001_Node000002"><a xlink:title=" ">
<path fill="none" stroke="#63b8ff" d="M188.73,-58.57C151.58,-50.64 101.01,-39 48.56,-23.25"/>
<polygon fill="#63b8ff" stroke="#63b8ff" points="49.63,-19.62 39.05,-20.05 47.59,-26.31 49.63,-19.62"/>
</a>
</g>
</g>
<!-- Node3 -->
<g id="Node000003" class="node">
<title>Node3</title>
<g id="a_Node000003"><a xlink:title=" ">
<polygon fill="#e0e0e0" stroke="#999999" points="111.75,-23 56,-23 56,0 111.75,0 111.75,-23"/>
<text text-anchor="middle" x="83.88" y="-9.5" font-family="Helvetica,sans-Serif" font-size="10.00">concepts</text>
</a>
</g>
</g>
<!-- Node1&#45;&gt;Node3 -->
<g id="edge2_Node000001_Node000003" class="edge">
<title>Node1&#45;&gt;Node3</title>
<g id="a_edge2_Node000001_Node000003"><a xlink:title=" ">
<path fill="none" stroke="#63b8ff" d="M212.22,-58.51C186.53,-49.3 149.74,-36.11 122.13,-26.21"/>
<polygon fill="#63b8ff" stroke="#63b8ff" points="123.63,-22.68 113.04,-22.6 121.27,-29.27 123.63,-22.68"/>
</a>
</g>
</g>
<!-- Node4 -->
<g id="Node000004" class="node">
<title>Node4</title>
<g id="a_Node000004"><a xlink:title=" ">
<polygon fill="#e0e0e0" stroke="#999999" points="164.25,-23 129.5,-23 129.5,0 164.25,0 164.25,-23"/>
<text text-anchor="middle" x="146.88" y="-9.5" font-family="Helvetica,sans-Serif" font-size="10.00">map</text>
</a>
</g>
</g>
<!-- Node1&#45;&gt;Node4 -->
<g id="edge3_Node000001_Node000004" class="edge">
<title>Node1&#45;&gt;Node4</title>
<g id="a_edge3_Node000001_Node000004"><a xlink:title=" ">
<path fill="none" stroke="#63b8ff" d="M224.37,-58.51C210.11,-50.04 190.18,-38.21 174.11,-28.67"/>
<polygon fill="#63b8ff" stroke="#63b8ff" points="176.06,-25.17 165.68,-23.07 172.49,-31.19 176.06,-25.17"/>
</a>
</g>
</g>
<!-- Node5 -->
<g id="Node000005" class="node">
<title>Node5</title>
<g id="a_Node000005"><a xlink:title=" ">
<polygon fill="#e0e0e0" stroke="#999999" points="233.88,-23 181.88,-23 181.88,0 233.88,0 233.88,-23"/>
<text text-anchor="middle" x="207.88" y="-9.5" font-family="Helvetica,sans-Serif" font-size="10.00">memory</text>
</a>
</g>
</g>
<!-- Node1&#45;&gt;Node5 -->
<g id="edge4_Node000001_Node000005" class="edge">
<title>Node1&#45;&gt;Node5</title>
<g id="a_edge4_Node000001_Node000005"><a xlink:title=" ">
<path fill="none" stroke="#63b8ff" d="M236.13,-58.51C231.62,-51.18 225.57,-41.32 220.22,-32.61"/>
<polygon fill="#63b8ff" stroke="#63b8ff" points="222.82,-31.15 214.6,-24.46 216.85,-34.81 222.82,-31.15"/>
</a>
</g>
</g>
<!-- Node6 -->
<g id="Node000006" class="node">
<title>Node6</title>
<g id="a_Node000006"><a xlink:title=" ">
<polygon fill="#e0e0e0" stroke="#999999" points="303.5,-23 252.25,-23 252.25,0 303.5,0 303.5,-23"/>
<text text-anchor="middle" x="277.88" y="-9.5" font-family="Helvetica,sans-Serif" font-size="10.00">ostream</text>
</a>
</g>
</g>
<!-- Node1&#45;&gt;Node6 -->
<g id="edge5_Node000001_Node000006" class="edge">
<title>Node1&#45;&gt;Node6</title>
<g id="a_edge5_Node000001_Node000006"><a xlink:title=" ">
<path fill="none" stroke="#63b8ff" d="M249.62,-58.51C254.13,-51.18 260.18,-41.32 265.53,-32.61"/>
<polygon fill="#63b8ff" stroke="#63b8ff" points="268.9,-34.81 271.15,-24.46 262.93,-31.15 268.9,-34.81"/>
</a>
</g>
</g>
<!-- Node7 -->
<g id="Node000007" class="node">
<title>Node7</title>
<g id="a_Node000007"><a xlink:title=" ">
<polygon fill="#e0e0e0" stroke="#999999" points="383.75,-23 322,-23 322,0 383.75,0 383.75,-23"/>
<text text-anchor="middle" x="352.88" y="-9.5" font-family="Helvetica,sans-Serif" font-size="10.00">type_traits</text>
</a>
</g>
</g>
<!-- Node1&#45;&gt;Node7 -->
<g id="edge6_Node000001_Node000007" class="edge">
<title>Node1&#45;&gt;Node7</title>
<g id="a_edge6_Node000001_Node000007"><a xlink:title=" ">
<path fill="none" stroke="#63b8ff" d="M264.08,-58.51C280.52,-49.99 303.53,-38.07 322,-28.5"/>
<polygon fill="#63b8ff" stroke="#63b8ff" points="323.46,-31.16 330.73,-23.46 320.24,-24.95 323.46,-31.16"/>
</a>
</g>
</g>
<!-- Node8 -->
<g id="Node000008" class="node">
<title>Node8</title>
<g id="a_Node000008"><a xlink:title=" ">
<polygon fill="#e0e0e0" stroke="#999999" points="441.5,-23 402.25,-23 402.25,0 441.5,0 441.5,-23"/>
<text text-anchor="middle" x="421.88" y="-9.5" font-family="Helvetica,sans-Serif" font-size="10.00">utility</text>
</a>
</g>
</g>
<!-- Node1&#45;&gt;Node8 -->
<g id="edge7_Node000001_Node000008" class="edge">
<title>Node1&#45;&gt;Node8</title>
<g id="a_edge7_Node000001_Node000008"><a xlink:title=" ">
<path fill="none" stroke="#63b8ff" d="M280.02,-58.51C308.27,-50.04 348.31,-37.78 391.74,-23.28"/>
<polygon fill="#63b8ff" stroke="#63b8ff" points="392.58,-26.35 400.95,-19.85 390.36,-19.72 392.58,-26.35"/>
</a>
</g>
</g>
<!-- Node9 -->
<g id="Node000009" class="node">
<title>Node9</title>
<g id="a_Node000009"><a xlink:href="logging_8hpp.html" target="_top" xlink:title=" ">
<polygon fill="white" stroke="#666666" points="546.12,-23 459.62,-23 459.62,0 546.12,0 546.12,-23"/>
<text text-anchor="middle" x="502.88" y="-9.5" font-family="Helvetica,sans-Serif" font-size="10.00">utils/logging.hpp</text>
</a>
</g>
</g>
<!-- Node1&#45;&gt;Node9 -->
<g id="edge8_Node000001_Node000009" class="edge">
<title>Node1&#45;&gt;Node9</title>
<g id="a_edge8_Node000001_Node000009"><a xlink:title=" ">
<path fill="none" stroke="#63b8ff" d="M293.01,-58.51C337.68,-48.72 402.89,-34.42 448.74,-24.37"/>
<polygon fill="#63b8ff" stroke="#63b8ff" points="449.36,-27.6 458.38,-22.04 447.86,-20.76 449.36,-27.6"/>
</a>
</g>
</g>
</g>
</svg>
