<?xml version="1.0" encoding="UTF-8" standalone="no"?>
<!DOCTYPE svg PUBLIC "-//W3C//DTD SVG 1.1//EN"
 "http://www.w3.org/Graphics/SVG/1.1/DTD/svg11.dtd">
<!-- Generated by graphviz version 8.1.0 (20230707.0739)
 -->
<!-- Title: sparse::details::CellAccessor&lt; T, N_DIMS &gt; Pages: 1 -->
<svg width="172pt" height="242pt"
 viewBox="0.00 0.00 172.00 242.00" xmlns="http://www.w3.org/2000/svg" xmlns:xlink="http://www.w3.org/1999/xlink">
<g id="graph0" class="graph" transform="scale(1 1) rotate(0) translate(4 238)">
<title>sparse::details::CellAccessor&lt; T, N_DIMS &gt;</title>
<!-- Node1 -->
<g id="Node000001" class="node">
<title>Node1</title>
<g id="a_Node000001"><a xlink:title=" ">
<polygon fill="#999999" stroke="none" points="164,-234 0,-234 0,0 164,0 164,-234"/>
<text text-anchor="start" x="17.5" y="-220.5" font-family="Helvetica,sans-Serif" font-size="10.00">sparse::details::CellAccessor</text>
<text text-anchor="start" x="48.25" y="-205.5" font-family="Helvetica,sans-Serif" font-size="10.00">&lt; T, N_DIMS &gt;</text>
<text text-anchor="start" x="80.5" y="-186.5" font-family="Helvetica,sans-Serif" font-size="10.00"> </text>
<text text-anchor="start" x="4" y="-167.5" font-family="Helvetica,sans-Serif" font-size="10.00">+</text>
<text text-anchor="start" x="14" y="-167.5" font-family="Helvetica,sans-Serif" font-size="10.00">virtual T const &amp; get</text>
<text text-anchor="start" x="14" y="-152.5" font-family="Helvetica,sans-Serif" font-size="10.00">(IndexType&lt; N_DIMS &gt;</text>
<text text-anchor="start" x="14" y="-137.5" font-family="Helvetica,sans-Serif" font-size="10.00"> const &amp;) const noexcept=0</text>
<text text-anchor="start" x="4" y="-118.5" font-family="Helvetica,sans-Serif" font-size="10.00">+</text>
<text text-anchor="start" x="14" y="-118.5" font-family="Helvetica,sans-Serif" font-size="10.00">virtual void set(IndexType</text>
<text text-anchor="start" x="14" y="-103.5" font-family="Helvetica,sans-Serif" font-size="10.00">&lt; N_DIMS &gt; const &amp;idx, T</text>
<text text-anchor="start" x="14" y="-88.5" font-family="Helvetica,sans-Serif" font-size="10.00"> const &amp;value) noexcept(noexcept</text>
<text text-anchor="start" x="14" y="-73.5" font-family="Helvetica,sans-Serif" font-size="10.00">(T(value)))=0</text>
<text text-anchor="start" x="4" y="-54.5" font-family="Helvetica,sans-Serif" font-size="10.00">+</text>
<text text-anchor="start" x="14" y="-54.5" font-family="Helvetica,sans-Serif" font-size="10.00">virtual void set(IndexType</text>
<text text-anchor="start" x="14" y="-39.5" font-family="Helvetica,sans-Serif" font-size="10.00">&lt; N_DIMS &gt; const &amp;idx, T</text>
<text text-anchor="start" x="14" y="-24.5" font-family="Helvetica,sans-Serif" font-size="10.00"> &amp;&amp;value) noexcept(noexcept</text>
<text text-anchor="start" x="14" y="-9.5" font-family="Helvetica,sans-Serif" font-size="10.00">(T(std::forward&lt; T &gt;(value))))=0</text>
<polygon fill="#666666" stroke="#666666" points="0,-198 0,-198 164,-198 164,-198 0,-198"/>
<polygon fill="#666666" stroke="#666666" points="0,-179 0,-179 164,-179 164,-179 0,-179"/>
<polygon fill="none" stroke="#666666" points="0,0 0,-234 164,-234 164,0 0,0"/>
</a>
</g>
</g>
</g>
</svg>
