<?xml version="1.0" encoding="UTF-8" standalone="no"?>
<!DOCTYPE svg PUBLIC "-//W3C//DTD SVG 1.1//EN"
 "http://www.w3.org/Graphics/SVG/1.1/DTD/svg11.dtd">
<!-- Generated by graphviz version 8.0.5 (20230430.1635)
 -->
<!-- Title: sparse::Matrix&lt; T, N_DIMS &gt; Pages: 1 -->
<svg width="198pt" height="439pt"
 viewBox="0.00 0.00 198.00 439.00" xmlns="http://www.w3.org/2000/svg" xmlns:xlink="http://www.w3.org/1999/xlink">

<svg id="main" version="1.1" xmlns="http://www.w3.org/2000/svg" xmlns:xlink="http://www.w3.org/1999/xlink" xml:space="preserve" onload="init(evt)">
<style type="text/css"><![CDATA[
.node, .edge {opacity: 0.7;}
.node.selected, .edge.selected {opacity: 1;}
.edge:hover path { stroke: red; }
.edge:hover polygon { stroke: red; fill: red; }
]]></style>
<script type="application/ecmascript" xlink:href="svg.min.js"/>
<svg id="graph" class="graph">
<g id="graph0" class="graph" transform="scale(1 1) rotate(0) translate(4 435)">
<title>sparse::Matrix&lt; T, N_DIMS &gt;</title>
<!-- Node1 -->
<g id="Node000001" class="node">
<title>Node1</title>
<g id="a_Node000001"><a xlink:title=" ">
<polygon fill="#999999" stroke="none" points="162.5,-266 72.5,-266 72.5,0 162.5,0 162.5,-266"/>
<text text-anchor="start" x="77.38" y="-252.5" font-family="Helvetica,sans-Serif" font-size="10.00">sparse::Matrix&lt; T,</text>
<text text-anchor="start" x="92.38" y="-237.5" font-family="Helvetica,sans-Serif" font-size="10.00"> N_DIMS &gt;</text>
<text text-anchor="start" x="84" y="-218.5" font-family="Helvetica,sans-Serif" font-size="10.00">&#45;</text>
<text text-anchor="start" x="98.5" y="-218.5" font-family="Helvetica,sans-Serif" font-size="10.00">_map</text>
<text text-anchor="start" x="82.5" y="-199.5" font-family="Helvetica,sans-Serif" font-size="10.00">+</text>
<text text-anchor="start" x="98.5" y="-199.5" font-family="Helvetica,sans-Serif" font-size="10.00">Matrix()</text>
<text text-anchor="start" x="82.5" y="-180.5" font-family="Helvetica,sans-Serif" font-size="10.00">+</text>
<text text-anchor="start" x="98.5" y="-180.5" font-family="Helvetica,sans-Serif" font-size="10.00">Matrix()</text>
<text text-anchor="start" x="82.5" y="-161.5" font-family="Helvetica,sans-Serif" font-size="10.00">+</text>
<text text-anchor="start" x="98.5" y="-161.5" font-family="Helvetica,sans-Serif" font-size="10.00">get()</text>
<text text-anchor="start" x="82.5" y="-142.5" font-family="Helvetica,sans-Serif" font-size="10.00">+</text>
<text text-anchor="start" x="98.5" y="-142.5" font-family="Helvetica,sans-Serif" font-size="10.00">set()</text>
<text text-anchor="start" x="82.5" y="-123.5" font-family="Helvetica,sans-Serif" font-size="10.00">+</text>
<text text-anchor="start" x="98.5" y="-123.5" font-family="Helvetica,sans-Serif" font-size="10.00">set()</text>
<text text-anchor="start" x="82.5" y="-104.5" font-family="Helvetica,sans-Serif" font-size="10.00">+</text>
<text text-anchor="start" x="98.5" y="-104.5" font-family="Helvetica,sans-Serif" font-size="10.00">operator[]()</text>
<text text-anchor="start" x="82.5" y="-85.5" font-family="Helvetica,sans-Serif" font-size="10.00">+</text>
<text text-anchor="start" x="98.5" y="-85.5" font-family="Helvetica,sans-Serif" font-size="10.00">size()</text>
<text text-anchor="start" x="82.5" y="-66.5" font-family="Helvetica,sans-Serif" font-size="10.00">+</text>
<text text-anchor="start" x="98.5" y="-66.5" font-family="Helvetica,sans-Serif" font-size="10.00">begin()</text>
<text text-anchor="start" x="82.5" y="-47.5" font-family="Helvetica,sans-Serif" font-size="10.00">+</text>
<text text-anchor="start" x="98.5" y="-47.5" font-family="Helvetica,sans-Serif" font-size="10.00">end()</text>
<text text-anchor="start" x="82.5" y="-28.5" font-family="Helvetica,sans-Serif" font-size="10.00">+</text>
<text text-anchor="start" x="98.5" y="-28.5" font-family="Helvetica,sans-Serif" font-size="10.00">cbegin()</text>
<text text-anchor="start" x="82.5" y="-9.5" font-family="Helvetica,sans-Serif" font-size="10.00">+</text>
<text text-anchor="start" x="98.5" y="-9.5" font-family="Helvetica,sans-Serif" font-size="10.00">cend()</text>
<polygon fill="#666666" stroke="#666666" points="72.5,-230 72.5,-230 162.5,-230 162.5,-230 72.5,-230"/>
<polygon fill="#666666" stroke="#666666" points="72.5,-211 72.5,-211 96.5,-211 96.5,-211 72.5,-211"/>
<polygon fill="#666666" stroke="#666666" points="96.5,-211 96.5,-211 162.5,-211 162.5,-211 96.5,-211"/>
<polygon fill="none" stroke="#666666" points="72.5,0 72.5,-266 162.5,-266 162.5,0 72.5,0"/>
</a>
</g>
</g>
<!-- Node2 -->
<g id="Node000002" class="node">
<title>Node2</title>
<g id="a_Node000002"><a xlink:href="structsparse_1_1details_1_1CellAccessor.html" target="_top" xlink:title=" ">
<polygon fill="white" stroke="none" points="139,-431 0,-431 0,-317 139,-317 139,-431"/>
<text text-anchor="start" x="5" y="-417.5" font-family="Helvetica,sans-Serif" font-size="10.00">sparse::details::CellAccessor</text>
<text text-anchor="start" x="35.75" y="-402.5" font-family="Helvetica,sans-Serif" font-size="10.00">&lt; T, N_DIMS &gt;</text>
<text text-anchor="start" x="68" y="-383.5" font-family="Helvetica,sans-Serif" font-size="10.00"> </text>
<text text-anchor="start" x="29.5" y="-364.5" font-family="Helvetica,sans-Serif" font-size="10.00">+</text>
<text text-anchor="start" x="65" y="-364.5" font-family="Helvetica,sans-Serif" font-size="10.00">get()</text>
<text text-anchor="start" x="29.5" y="-345.5" font-family="Helvetica,sans-Serif" font-size="10.00">+</text>
<text text-anchor="start" x="65" y="-345.5" font-family="Helvetica,sans-Serif" font-size="10.00">set()</text>
<text text-anchor="start" x="29.5" y="-326.5" font-family="Helvetica,sans-Serif" font-size="10.00">+</text>
<text text-anchor="start" x="65" y="-326.5" font-family="Helvetica,sans-Serif" font-size="10.00">set()</text>
<polygon fill="#666666" stroke="#666666" points="0,-395 0,-395 139,-395 139,-395 0,-395"/>
<polygon fill="#666666" stroke="#666666" points="0,-376 0,-376 139,-376 139,-376 0,-376"/>
<polygon fill="none" stroke="#666666" points="0,-317 0,-431 139,-431 139,-317 0,-317"/>
</a>
</g>
</g>
<!-- Node2&#45;&gt;Node1 -->
<g id="edge1_Node000001_Node000002" class="edge">
<title>Node2&#45;&gt;Node1</title>
<g id="a_edge1_Node000001_Node000002"><a xlink:title=" ">
<path fill="none" stroke="#63b8ff" d="M82.82,-306.67C85.42,-293.73 88.23,-279.76 91.08,-265.55"/>
<polygon fill="none" stroke="#63b8ff" points="79.23,-305.77 80.69,-316.27 86.09,-307.15 79.23,-305.77"/>
</a>
</g>
</g>
<!-- Node3 -->
<g id="Node000003" class="node">
<title>Node3</title>
<g id="a_Node000003"><a xlink:title=" ">
<polygon fill="white" stroke="none" points="173.5,-404.5 157.5,-404.5 157.5,-343.5 173.5,-343.5 173.5,-404.5"/>
<text text-anchor="start" x="162.5" y="-391" font-family="Helvetica,sans-Serif" font-size="10.00">T</text>
<text text-anchor="start" x="164" y="-372" font-family="Helvetica,sans-Serif" font-size="10.00"> </text>
<text text-anchor="start" x="164" y="-353" font-family="Helvetica,sans-Serif" font-size="10.00"> </text>
<polygon fill="#666666" stroke="#666666" points="157.5,-383.5 157.5,-383.5 173.5,-383.5 173.5,-383.5 157.5,-383.5"/>
<polygon fill="#666666" stroke="#666666" points="157.5,-364.5 157.5,-364.5 173.5,-364.5 173.5,-364.5 157.5,-364.5"/>
<polygon fill="none" stroke="#666666" points="157.5,-343.5 157.5,-404.5 173.5,-404.5 173.5,-343.5 157.5,-343.5"/>
</a>
</g>
</g>
<!-- Node3&#45;&gt;Node1 -->
<g id="edge2_Node000001_Node000003" class="edge">
<title>Node3&#45;&gt;Node1</title>
<g id="a_edge2_Node000001_Node000003"><a xlink:title=" ">
<path fill="none" stroke="#63b8ff" d="M159.61,-343.69C156.16,-326.47 151.5,-303.28 146.54,-278.58"/>
<polygon fill="none" stroke="#63b8ff" points="146.54,-278.61 141.44,-273.52 144.18,-266.85 149.28,-271.94 146.54,-278.61"/>
</a>
</g>
<text text-anchor="middle" x="169.75" y="-289.5" font-family="Helvetica,sans-Serif" font-size="10.00" fill="grey"> &#45;_default</text>
</g>
</g>
</svg>
</svg>

<style type='text/css'>
<![CDATA[
[data-mouse-over-selected='false'] { opacity: 0.7; }
[data-mouse-over-selected='true']  { opacity: 1.0; }
]]>
</style>
<script type="application/ecmascript"><![CDATA[
document.addEventListener('DOMContentLoaded', (event) => {
  highlightEdges();
  highlightAdjacentNodes();
});
]]></script>
</svg>
