<?xml version="1.0" encoding="UTF-8" standalone="no"?>
<!DOCTYPE svg PUBLIC "-//W3C//DTD SVG 1.1//EN"
 "http://www.w3.org/Graphics/SVG/1.1/DTD/svg11.dtd">
<!-- Generated by graphviz version 8.0.5 (20230430.1635)
 -->
<!-- Title: sparse::Matrix&lt; T, N_DIMS &gt; Pages: 1 -->
<svg width="201pt" height="534pt"
 viewBox="0.00 0.00 201.00 534.00" xmlns="http://www.w3.org/2000/svg" xmlns:xlink="http://www.w3.org/1999/xlink">
<g id="graph0" class="graph" transform="scale(1 1) rotate(0) translate(4 530)">
<title>sparse::Matrix&lt; T, N_DIMS &gt;</title>
<!-- Node1 -->
<g id="Node000001" class="node">
<title>Node1</title>
<g id="a_Node000001"><a xlink:title=" ">
<polygon fill="#999999" stroke="none" points="162.5,-361 72.5,-361 72.5,0 162.5,0 162.5,-361"/>
<text text-anchor="start" x="77.38" y="-347.5" font-family="Helvetica,sans-Serif" font-size="10.00">sparse::Matrix&lt; T,</text>
<text text-anchor="start" x="92.38" y="-332.5" font-family="Helvetica,sans-Serif" font-size="10.00"> N_DIMS &gt;</text>
<text text-anchor="start" x="84" y="-313.5" font-family="Helvetica,sans-Serif" font-size="10.00">&#45;</text>
<text text-anchor="start" x="98.5" y="-313.5" font-family="Helvetica,sans-Serif" font-size="10.00">_map</text>
<text text-anchor="start" x="82.5" y="-294.5" font-family="Helvetica,sans-Serif" font-size="10.00">+</text>
<text text-anchor="start" x="98.5" y="-294.5" font-family="Helvetica,sans-Serif" font-size="10.00">Matrix()</text>
<text text-anchor="start" x="82.5" y="-275.5" font-family="Helvetica,sans-Serif" font-size="10.00">+</text>
<text text-anchor="start" x="98.5" y="-275.5" font-family="Helvetica,sans-Serif" font-size="10.00">Matrix()</text>
<text text-anchor="start" x="82.5" y="-256.5" font-family="Helvetica,sans-Serif" font-size="10.00">+</text>
<text text-anchor="start" x="98.5" y="-256.5" font-family="Helvetica,sans-Serif" font-size="10.00">Matrix()</text>
<text text-anchor="start" x="82.5" y="-237.5" font-family="Helvetica,sans-Serif" font-size="10.00">+</text>
<text text-anchor="start" x="98.5" y="-237.5" font-family="Helvetica,sans-Serif" font-size="10.00">Matrix()</text>
<text text-anchor="start" x="82.5" y="-218.5" font-family="Helvetica,sans-Serif" font-size="10.00">+</text>
<text text-anchor="start" x="98.5" y="-218.5" font-family="Helvetica,sans-Serif" font-size="10.00">operator=()</text>
<text text-anchor="start" x="82.5" y="-199.5" font-family="Helvetica,sans-Serif" font-size="10.00">+</text>
<text text-anchor="start" x="98.5" y="-199.5" font-family="Helvetica,sans-Serif" font-size="10.00">operator=()</text>
<text text-anchor="start" x="82.5" y="-180.5" font-family="Helvetica,sans-Serif" font-size="10.00">+</text>
<text text-anchor="start" x="98.5" y="-180.5" font-family="Helvetica,sans-Serif" font-size="10.00">get()</text>
<text text-anchor="start" x="82.5" y="-161.5" font-family="Helvetica,sans-Serif" font-size="10.00">+</text>
<text text-anchor="start" x="98.5" y="-161.5" font-family="Helvetica,sans-Serif" font-size="10.00">set()</text>
<text text-anchor="start" x="82.5" y="-142.5" font-family="Helvetica,sans-Serif" font-size="10.00">+</text>
<text text-anchor="start" x="98.5" y="-142.5" font-family="Helvetica,sans-Serif" font-size="10.00">set()</text>
<text text-anchor="start" x="82.5" y="-123.5" font-family="Helvetica,sans-Serif" font-size="10.00">+</text>
<text text-anchor="start" x="98.5" y="-123.5" font-family="Helvetica,sans-Serif" font-size="10.00">operator[]()</text>
<text text-anchor="start" x="82.5" y="-104.5" font-family="Helvetica,sans-Serif" font-size="10.00">+</text>
<text text-anchor="start" x="98.5" y="-104.5" font-family="Helvetica,sans-Serif" font-size="10.00">size()</text>
<text text-anchor="start" x="82.5" y="-85.5" font-family="Helvetica,sans-Serif" font-size="10.00">+</text>
<text text-anchor="start" x="98.5" y="-85.5" font-family="Helvetica,sans-Serif" font-size="10.00">begin()</text>
<text text-anchor="start" x="82.5" y="-66.5" font-family="Helvetica,sans-Serif" font-size="10.00">+</text>
<text text-anchor="start" x="98.5" y="-66.5" font-family="Helvetica,sans-Serif" font-size="10.00">end()</text>
<text text-anchor="start" x="82.5" y="-47.5" font-family="Helvetica,sans-Serif" font-size="10.00">+</text>
<text text-anchor="start" x="98.5" y="-47.5" font-family="Helvetica,sans-Serif" font-size="10.00">cbegin()</text>
<text text-anchor="start" x="82.5" y="-28.5" font-family="Helvetica,sans-Serif" font-size="10.00">+</text>
<text text-anchor="start" x="98.5" y="-28.5" font-family="Helvetica,sans-Serif" font-size="10.00">cend()</text>
<text text-anchor="start" x="84" y="-9.5" font-family="Helvetica,sans-Serif" font-size="10.00">&#45;</text>
<text text-anchor="start" x="98.5" y="-9.5" font-family="Helvetica,sans-Serif" font-size="10.00">swap()</text>
<polygon fill="#666666" stroke="#666666" points="72.5,-325 72.5,-325 162.5,-325 162.5,-325 72.5,-325"/>
<polygon fill="#666666" stroke="#666666" points="72.5,-306 72.5,-306 96.5,-306 96.5,-306 72.5,-306"/>
<polygon fill="#666666" stroke="#666666" points="96.5,-306 96.5,-306 162.5,-306 162.5,-306 96.5,-306"/>
<polygon fill="none" stroke="#666666" points="72.5,0 72.5,-361 162.5,-361 162.5,0 72.5,0"/>
</a>
</g>
</g>
<!-- Node2 -->
<g id="Node000002" class="node">
<title>Node2</title>
<g id="a_Node000002"><a xlink:href="structsparse_1_1details_1_1CellAccessor.html" target="_top" xlink:title=" ">
<polygon fill="white" stroke="none" points="139,-526 0,-526 0,-412 139,-412 139,-526"/>
<text text-anchor="start" x="5" y="-512.5" font-family="Helvetica,sans-Serif" font-size="10.00">sparse::details::CellAccessor</text>
<text text-anchor="start" x="35.75" y="-497.5" font-family="Helvetica,sans-Serif" font-size="10.00">&lt; T, N_DIMS &gt;</text>
<text text-anchor="start" x="68" y="-478.5" font-family="Helvetica,sans-Serif" font-size="10.00"> </text>
<text text-anchor="start" x="29.5" y="-459.5" font-family="Helvetica,sans-Serif" font-size="10.00">+</text>
<text text-anchor="start" x="65" y="-459.5" font-family="Helvetica,sans-Serif" font-size="10.00">get()</text>
<text text-anchor="start" x="29.5" y="-440.5" font-family="Helvetica,sans-Serif" font-size="10.00">+</text>
<text text-anchor="start" x="65" y="-440.5" font-family="Helvetica,sans-Serif" font-size="10.00">set()</text>
<text text-anchor="start" x="29.5" y="-421.5" font-family="Helvetica,sans-Serif" font-size="10.00">+</text>
<text text-anchor="start" x="65" y="-421.5" font-family="Helvetica,sans-Serif" font-size="10.00">set()</text>
<polygon fill="#666666" stroke="#666666" points="0,-490 0,-490 139,-490 139,-490 0,-490"/>
<polygon fill="#666666" stroke="#666666" points="0,-471 0,-471 139,-471 139,-471 0,-471"/>
<polygon fill="none" stroke="#666666" points="0,-412 0,-526 139,-526 139,-412 0,-412"/>
</a>
</g>
</g>
<!-- Node2&#45;&gt;Node1 -->
<g id="edge1_Node000001_Node000002" class="edge">
<title>Node2&#45;&gt;Node1</title>
<g id="a_edge1_Node000001_Node000002"><a xlink:title=" ">
<path fill="none" stroke="#63b8ff" d="M80.67,-401.3C82.79,-388.69 85.09,-374.96 87.47,-360.72"/>
<polygon fill="none" stroke="#63b8ff" points="77.07,-400.64 78.87,-411.08 83.97,-401.8 77.07,-400.64"/>
</a>
</g>
</g>
<!-- Node3 -->
<g id="Node000003" class="node">
<title>Node3</title>
<g id="a_Node000003"><a xlink:title=" ">
<polygon fill="white" stroke="none" points="173.5,-499.5 157.5,-499.5 157.5,-438.5 173.5,-438.5 173.5,-499.5"/>
<text text-anchor="start" x="162.5" y="-486" font-family="Helvetica,sans-Serif" font-size="10.00">T</text>
<text text-anchor="start" x="164" y="-467" font-family="Helvetica,sans-Serif" font-size="10.00"> </text>
<text text-anchor="start" x="164" y="-448" font-family="Helvetica,sans-Serif" font-size="10.00"> </text>
<polygon fill="#666666" stroke="#666666" points="157.5,-478.5 157.5,-478.5 173.5,-478.5 173.5,-478.5 157.5,-478.5"/>
<polygon fill="#666666" stroke="#666666" points="157.5,-459.5 157.5,-459.5 173.5,-459.5 173.5,-459.5 157.5,-459.5"/>
<polygon fill="none" stroke="#666666" points="157.5,-438.5 157.5,-499.5 173.5,-499.5 173.5,-438.5 157.5,-438.5"/>
</a>
</g>
</g>
<!-- Node3&#45;&gt;Node1 -->
<g id="edge2_Node000001_Node000003" class="edge">
<title>Node3&#45;&gt;Node1</title>
<g id="a_edge2_Node000001_Node000003"><a xlink:title=" ">
<path fill="none" stroke="#63b8ff" d="M160.59,-438.69C157.74,-421.71 153.89,-398.73 149.66,-373.45"/>
<polygon fill="none" stroke="#63b8ff" points="149.68,-373.6 144.75,-368.34 147.7,-361.76 152.64,-367.02 149.68,-373.6"/>
</a>
</g>
<text text-anchor="middle" x="172.75" y="-384.5" font-family="Helvetica,sans-Serif" font-size="10.00" fill="grey"> &#45;_default</text>
</g>
</g>
</svg>
