<?xml version="1.0" encoding="UTF-8" standalone="no"?>
<!DOCTYPE svg PUBLIC "-//W3C//DTD SVG 1.1//EN"
 "http://www.w3.org/Graphics/SVG/1.1/DTD/svg11.dtd">
<!-- Generated by graphviz version 8.0.5 (20230430.1635)
 -->
<!-- Title: sparse::Matrix::swap Pages: 1 -->
<svg width="278pt" height="72pt"
 viewBox="0.00 0.00 277.75 72.00" xmlns="http://www.w3.org/2000/svg" xmlns:xlink="http://www.w3.org/1999/xlink">
<g id="graph0" class="graph" transform="scale(1 1) rotate(0) translate(4 68)">
<title>sparse::Matrix::swap</title>
<!-- Node1 -->
<g id="Node000001" class="node">
<title>Node1</title>
<g id="a_Node000001"><a xlink:title=" ">
<polygon fill="#999999" stroke="#666666" points="269.75,-43 162.25,-43 162.25,-20 269.75,-20 269.75,-43"/>
<text text-anchor="middle" x="216" y="-29.5" font-family="Helvetica,sans-Serif" font-size="10.00">sparse::Matrix::swap</text>
</a>
</g>
</g>
<!-- Node2 -->
<g id="Node000002" class="node">
<title>Node2</title>
<g id="a_Node000002"><a xlink:href="structsparse_1_1Matrix.html#acd2e9177dfdf722ab929b41cf9302814" target="_top" xlink:title=" ">
<polygon fill="white" stroke="#666666" points="119.12,-64 7.12,-64 7.12,-41 119.12,-41 119.12,-64"/>
<text text-anchor="middle" x="63.12" y="-50.5" font-family="Helvetica,sans-Serif" font-size="10.00">sparse::Matrix::Matrix</text>
</a>
</g>
</g>
<!-- Node1&#45;&gt;Node2 -->
<g id="edge1_Node000001_Node000002" class="edge">
<title>Node1&#45;&gt;Node2</title>
<g id="a_edge1_Node000001_Node000002"><a xlink:title=" ">
<path fill="none" stroke="#63b8ff" d="M151,-40.41C140.48,-41.87 129.67,-43.38 119.39,-44.81"/>
<polygon fill="#63b8ff" stroke="#63b8ff" points="151.39,-43.75 160.81,-38.9 150.42,-36.82 151.39,-43.75"/>
</a>
</g>
</g>
<!-- Node3 -->
<g id="Node000003" class="node">
<title>Node3</title>
<g id="a_Node000003"><a xlink:href="structsparse_1_1Matrix.html#a7a3c480a3134cad4d0ac7f02a1e521ca" target="_top" xlink:title=" ">
<polygon fill="white" stroke="#666666" points="126.25,-23 0,-23 0,0 126.25,0 126.25,-23"/>
<text text-anchor="middle" x="63.12" y="-9.5" font-family="Helvetica,sans-Serif" font-size="10.00">sparse::Matrix::operator=</text>
</a>
</g>
</g>
<!-- Node1&#45;&gt;Node3 -->
<g id="edge2_Node000001_Node000003" class="edge">
<title>Node1&#45;&gt;Node3</title>
<g id="a_edge2_Node000001_Node000003"><a xlink:title=" ">
<path fill="none" stroke="#63b8ff" d="M150.97,-23.01C142.91,-21.94 134.68,-20.85 126.65,-19.79"/>
<polygon fill="#63b8ff" stroke="#63b8ff" points="150.43,-26.6 160.81,-24.45 151.35,-19.66 150.43,-26.6"/>
</a>
</g>
</g>
</g>
</svg>
