<?xml version="1.0" encoding="UTF-8" standalone="no"?>
<!DOCTYPE svg PUBLIC "-//W3C//DTD SVG 1.1//EN"
 "http://www.w3.org/Graphics/SVG/1.1/DTD/svg11.dtd">
<!-- Generated by graphviz version 8.0.5 (20230430.1635)
 -->
<!-- Title: sparse::Matrix&lt; T, N_DIMS &gt; Pages: 1 -->
<svg width="204pt" height="838pt"
 viewBox="0.00 0.00 204.00 838.00" xmlns="http://www.w3.org/2000/svg" xmlns:xlink="http://www.w3.org/1999/xlink">
<g id="graph0" class="graph" transform="scale(1 1) rotate(0) translate(4 834)">
<title>sparse::Matrix&lt; T, N_DIMS &gt;</title>
<!-- Node1 -->
<g id="Node000001" class="node">
<title>Node1</title>
<g id="a_Node000001"><a xlink:title="sparse matrix with N_DIMS &quot;infinite&quot; dimensions">
<polygon fill="#999999" stroke="none" points="162.5,-665 72.5,-665 72.5,0 162.5,0 162.5,-665"/>
<text text-anchor="start" x="77.38" y="-651.5" font-family="Helvetica,sans-Serif" font-size="10.00">sparse::Matrix&lt; T,</text>
<text text-anchor="start" x="92.38" y="-636.5" font-family="Helvetica,sans-Serif" font-size="10.00"> N_DIMS &gt;</text>
<text text-anchor="start" x="84" y="-617.5" font-family="Helvetica,sans-Serif" font-size="10.00">&#45;</text>
<text text-anchor="start" x="98.5" y="-617.5" font-family="Helvetica,sans-Serif" font-size="10.00">_map</text>
<text text-anchor="start" x="82.5" y="-598.5" font-family="Helvetica,sans-Serif" font-size="10.00">+</text>
<text text-anchor="start" x="98.5" y="-598.5" font-family="Helvetica,sans-Serif" font-size="10.00">Matrix()</text>
<text text-anchor="start" x="82.5" y="-579.5" font-family="Helvetica,sans-Serif" font-size="10.00">+</text>
<text text-anchor="start" x="98.5" y="-579.5" font-family="Helvetica,sans-Serif" font-size="10.00">Matrix()</text>
<text text-anchor="start" x="82.5" y="-560.5" font-family="Helvetica,sans-Serif" font-size="10.00">+</text>
<text text-anchor="start" x="98.5" y="-560.5" font-family="Helvetica,sans-Serif" font-size="10.00">Matrix()</text>
<text text-anchor="start" x="82.5" y="-541.5" font-family="Helvetica,sans-Serif" font-size="10.00">+</text>
<text text-anchor="start" x="98.5" y="-541.5" font-family="Helvetica,sans-Serif" font-size="10.00">Matrix()</text>
<text text-anchor="start" x="82.5" y="-522.5" font-family="Helvetica,sans-Serif" font-size="10.00">+</text>
<text text-anchor="start" x="98.5" y="-522.5" font-family="Helvetica,sans-Serif" font-size="10.00">operator=()</text>
<text text-anchor="start" x="82.5" y="-503.5" font-family="Helvetica,sans-Serif" font-size="10.00">+</text>
<text text-anchor="start" x="98.5" y="-503.5" font-family="Helvetica,sans-Serif" font-size="10.00">operator=()</text>
<text text-anchor="start" x="82.5" y="-484.5" font-family="Helvetica,sans-Serif" font-size="10.00">+</text>
<text text-anchor="start" x="98.5" y="-484.5" font-family="Helvetica,sans-Serif" font-size="10.00">get()</text>
<text text-anchor="start" x="82.5" y="-465.5" font-family="Helvetica,sans-Serif" font-size="10.00">+</text>
<text text-anchor="start" x="98.5" y="-465.5" font-family="Helvetica,sans-Serif" font-size="10.00">set()</text>
<text text-anchor="start" x="82.5" y="-446.5" font-family="Helvetica,sans-Serif" font-size="10.00">+</text>
<text text-anchor="start" x="98.5" y="-446.5" font-family="Helvetica,sans-Serif" font-size="10.00">set()</text>
<text text-anchor="start" x="82.5" y="-427.5" font-family="Helvetica,sans-Serif" font-size="10.00">+</text>
<text text-anchor="start" x="98.5" y="-427.5" font-family="Helvetica,sans-Serif" font-size="10.00">operator[]()</text>
<text text-anchor="start" x="82.5" y="-408.5" font-family="Helvetica,sans-Serif" font-size="10.00">+</text>
<text text-anchor="start" x="98.5" y="-408.5" font-family="Helvetica,sans-Serif" font-size="10.00">size()</text>
<text text-anchor="start" x="82.5" y="-389.5" font-family="Helvetica,sans-Serif" font-size="10.00">+</text>
<text text-anchor="start" x="98.5" y="-389.5" font-family="Helvetica,sans-Serif" font-size="10.00">begin()</text>
<text text-anchor="start" x="82.5" y="-370.5" font-family="Helvetica,sans-Serif" font-size="10.00">+</text>
<text text-anchor="start" x="98.5" y="-370.5" font-family="Helvetica,sans-Serif" font-size="10.00">end()</text>
<text text-anchor="start" x="82.5" y="-351.5" font-family="Helvetica,sans-Serif" font-size="10.00">+</text>
<text text-anchor="start" x="98.5" y="-351.5" font-family="Helvetica,sans-Serif" font-size="10.00">cbegin()</text>
<text text-anchor="start" x="82.5" y="-332.5" font-family="Helvetica,sans-Serif" font-size="10.00">+</text>
<text text-anchor="start" x="98.5" y="-332.5" font-family="Helvetica,sans-Serif" font-size="10.00">cend()</text>
<text text-anchor="start" x="84" y="-313.5" font-family="Helvetica,sans-Serif" font-size="10.00">&#45;</text>
<text text-anchor="start" x="98.5" y="-313.5" font-family="Helvetica,sans-Serif" font-size="10.00">swap()</text>
<text text-anchor="start" x="83.62" y="-294.5" font-family="Helvetica,sans-Serif" font-size="10.00">*</text>
<text text-anchor="start" x="98.5" y="-294.5" font-family="Helvetica,sans-Serif" font-size="10.00">Matrix()</text>
<text text-anchor="start" x="83.62" y="-275.5" font-family="Helvetica,sans-Serif" font-size="10.00">*</text>
<text text-anchor="start" x="98.5" y="-275.5" font-family="Helvetica,sans-Serif" font-size="10.00">Matrix()</text>
<text text-anchor="start" x="83.62" y="-256.5" font-family="Helvetica,sans-Serif" font-size="10.00">*</text>
<text text-anchor="start" x="98.5" y="-256.5" font-family="Helvetica,sans-Serif" font-size="10.00">Matrix()</text>
<text text-anchor="start" x="83.62" y="-237.5" font-family="Helvetica,sans-Serif" font-size="10.00">*</text>
<text text-anchor="start" x="98.5" y="-237.5" font-family="Helvetica,sans-Serif" font-size="10.00">Matrix()</text>
<text text-anchor="start" x="83.62" y="-218.5" font-family="Helvetica,sans-Serif" font-size="10.00">*</text>
<text text-anchor="start" x="98.5" y="-218.5" font-family="Helvetica,sans-Serif" font-size="10.00">operator=()</text>
<text text-anchor="start" x="83.62" y="-199.5" font-family="Helvetica,sans-Serif" font-size="10.00">*</text>
<text text-anchor="start" x="98.5" y="-199.5" font-family="Helvetica,sans-Serif" font-size="10.00">operator=()</text>
<text text-anchor="start" x="83.62" y="-180.5" font-family="Helvetica,sans-Serif" font-size="10.00">*</text>
<text text-anchor="start" x="98.5" y="-180.5" font-family="Helvetica,sans-Serif" font-size="10.00">get()</text>
<text text-anchor="start" x="83.62" y="-161.5" font-family="Helvetica,sans-Serif" font-size="10.00">*</text>
<text text-anchor="start" x="98.5" y="-161.5" font-family="Helvetica,sans-Serif" font-size="10.00">set()</text>
<text text-anchor="start" x="83.62" y="-142.5" font-family="Helvetica,sans-Serif" font-size="10.00">*</text>
<text text-anchor="start" x="98.5" y="-142.5" font-family="Helvetica,sans-Serif" font-size="10.00">set()</text>
<text text-anchor="start" x="83.62" y="-123.5" font-family="Helvetica,sans-Serif" font-size="10.00">*</text>
<text text-anchor="start" x="98.5" y="-123.5" font-family="Helvetica,sans-Serif" font-size="10.00">operator[]()</text>
<text text-anchor="start" x="83.62" y="-104.5" font-family="Helvetica,sans-Serif" font-size="10.00">*</text>
<text text-anchor="start" x="98.5" y="-104.5" font-family="Helvetica,sans-Serif" font-size="10.00">size()</text>
<text text-anchor="start" x="83.62" y="-85.5" font-family="Helvetica,sans-Serif" font-size="10.00">*</text>
<text text-anchor="start" x="98.5" y="-85.5" font-family="Helvetica,sans-Serif" font-size="10.00">begin()</text>
<text text-anchor="start" x="83.62" y="-66.5" font-family="Helvetica,sans-Serif" font-size="10.00">*</text>
<text text-anchor="start" x="98.5" y="-66.5" font-family="Helvetica,sans-Serif" font-size="10.00">end()</text>
<text text-anchor="start" x="83.62" y="-47.5" font-family="Helvetica,sans-Serif" font-size="10.00">*</text>
<text text-anchor="start" x="98.5" y="-47.5" font-family="Helvetica,sans-Serif" font-size="10.00">cbegin()</text>
<text text-anchor="start" x="83.62" y="-28.5" font-family="Helvetica,sans-Serif" font-size="10.00">*</text>
<text text-anchor="start" x="98.5" y="-28.5" font-family="Helvetica,sans-Serif" font-size="10.00">cend()</text>
<text text-anchor="start" x="83.62" y="-9.5" font-family="Helvetica,sans-Serif" font-size="10.00">*</text>
<text text-anchor="start" x="98.5" y="-9.5" font-family="Helvetica,sans-Serif" font-size="10.00">operator&lt;&lt;</text>
<polygon fill="#666666" stroke="#666666" points="72.5,-629 72.5,-629 162.5,-629 162.5,-629 72.5,-629"/>
<polygon fill="#666666" stroke="#666666" points="72.5,-610 72.5,-610 96.5,-610 96.5,-610 72.5,-610"/>
<polygon fill="#666666" stroke="#666666" points="96.5,-610 96.5,-610 162.5,-610 162.5,-610 96.5,-610"/>
<polygon fill="none" stroke="#666666" points="72.5,0 72.5,-665 162.5,-665 162.5,0 72.5,0"/>
</a>
</g>
</g>
<!-- Node2 -->
<g id="Node000002" class="node">
<title>Node2</title>
<g id="a_Node000002"><a xlink:href="structsparse_1_1details_1_1CellAccessor.html" target="_top" xlink:title=" ">
<polygon fill="white" stroke="none" points="139,-830 0,-830 0,-716 139,-716 139,-830"/>
<text text-anchor="start" x="5" y="-816.5" font-family="Helvetica,sans-Serif" font-size="10.00">sparse::details::CellAccessor</text>
<text text-anchor="start" x="35.75" y="-801.5" font-family="Helvetica,sans-Serif" font-size="10.00">&lt; T, N_DIMS &gt;</text>
<text text-anchor="start" x="68" y="-782.5" font-family="Helvetica,sans-Serif" font-size="10.00"> </text>
<text text-anchor="start" x="29.5" y="-763.5" font-family="Helvetica,sans-Serif" font-size="10.00">+</text>
<text text-anchor="start" x="65" y="-763.5" font-family="Helvetica,sans-Serif" font-size="10.00">get()</text>
<text text-anchor="start" x="29.5" y="-744.5" font-family="Helvetica,sans-Serif" font-size="10.00">+</text>
<text text-anchor="start" x="65" y="-744.5" font-family="Helvetica,sans-Serif" font-size="10.00">set()</text>
<text text-anchor="start" x="29.5" y="-725.5" font-family="Helvetica,sans-Serif" font-size="10.00">+</text>
<text text-anchor="start" x="65" y="-725.5" font-family="Helvetica,sans-Serif" font-size="10.00">set()</text>
<polygon fill="#666666" stroke="#666666" points="0,-794 0,-794 139,-794 139,-794 0,-794"/>
<polygon fill="#666666" stroke="#666666" points="0,-775 0,-775 139,-775 139,-775 0,-775"/>
<polygon fill="none" stroke="#666666" points="0,-716 0,-830 139,-830 139,-716 0,-716"/>
</a>
</g>
</g>
<!-- Node2&#45;&gt;Node1 -->
<g id="edge1_Node000001_Node000002" class="edge">
<title>Node2&#45;&gt;Node1</title>
<g id="a_edge1_Node000001_Node000002"><a xlink:title=" ">
<path fill="none" stroke="#63b8ff" d="M76.82,-705.09C78.17,-692.79 79.66,-679.22 81.24,-664.77"/>
<polygon fill="none" stroke="#63b8ff" points="73.24,-704.7 75.63,-715.02 80.2,-705.46 73.24,-704.7"/>
</a>
</g>
</g>
<!-- Node3 -->
<g id="Node000003" class="node">
<title>Node3</title>
<g id="a_Node000003"><a xlink:title=" ">
<polygon fill="white" stroke="none" points="173.5,-803.5 157.5,-803.5 157.5,-742.5 173.5,-742.5 173.5,-803.5"/>
<text text-anchor="start" x="162.5" y="-790" font-family="Helvetica,sans-Serif" font-size="10.00">T</text>
<text text-anchor="start" x="164" y="-771" font-family="Helvetica,sans-Serif" font-size="10.00"> </text>
<text text-anchor="start" x="164" y="-752" font-family="Helvetica,sans-Serif" font-size="10.00"> </text>
<polygon fill="#666666" stroke="#666666" points="157.5,-782.5 157.5,-782.5 173.5,-782.5 173.5,-782.5 157.5,-782.5"/>
<polygon fill="#666666" stroke="#666666" points="157.5,-763.5 157.5,-763.5 173.5,-763.5 173.5,-763.5 157.5,-763.5"/>
<polygon fill="none" stroke="#666666" points="157.5,-742.5 157.5,-803.5 173.5,-803.5 173.5,-742.5 157.5,-742.5"/>
</a>
</g>
</g>
<!-- Node3&#45;&gt;Node1 -->
<g id="edge2_Node000001_Node000003" class="edge">
<title>Node3&#45;&gt;Node1</title>
<g id="a_edge2_Node000001_Node000003"><a xlink:title=" ">
<path fill="none" stroke="#63b8ff" d="M162.28,-742.55C160.46,-725.97 157.99,-703.35 155.12,-677.21"/>
<polygon fill="none" stroke="#63b8ff" points="155.14,-677.35 150.51,-671.82 153.83,-665.43 158.46,-670.95 155.14,-677.35"/>
</a>
</g>
<text text-anchor="middle" x="175.75" y="-688.5" font-family="Helvetica,sans-Serif" font-size="10.00" fill="grey"> &#45;_default</text>
</g>
</g>
</svg>
