<?xml version="1.0" encoding="UTF-8" standalone="no"?>
<!DOCTYPE svg PUBLIC "-//W3C//DTD SVG 1.1//EN"
 "http://www.w3.org/Graphics/SVG/1.1/DTD/svg11.dtd">
<!-- Generated by graphviz version 8.0.5 (20230430.1635)
 -->
<!-- Title: sparse::Matrix::size Pages: 1 -->
<svg width="188pt" height="318pt"
 viewBox="0.00 0.00 187.75 318.00" xmlns="http://www.w3.org/2000/svg" xmlns:xlink="http://www.w3.org/1999/xlink">

<svg id="main" version="1.1" xmlns="http://www.w3.org/2000/svg" xmlns:xlink="http://www.w3.org/1999/xlink" xml:space="preserve" onload="init(evt)">
<style type="text/css"><![CDATA[
.node, .edge {opacity: 0.7;}
.node.selected, .edge.selected {opacity: 1;}
.edge:hover path { stroke: red; }
.edge:hover polygon { stroke: red; fill: red; }
]]></style>
<script type="application/ecmascript" xlink:href="svg.min.js"/>
<svg id="graph" class="graph">
<g id="graph0" class="graph" transform="scale(1 1) rotate(0) translate(4 314)">
<title>sparse::Matrix::size</title>
<!-- Node1 -->
<g id="Node000001" class="node">
<title>Node1</title>
<g id="a_Node000001"><a xlink:title=" ">
<polygon fill="#999999" stroke="#666666" points="179.75,-166 76.75,-166 76.75,-143 179.75,-143 179.75,-166"/>
<text text-anchor="middle" x="128.25" y="-152.5" font-family="Helvetica,sans-Serif" font-size="10.00">sparse::Matrix::size</text>
</a>
</g>
</g>
<!-- Node2 -->
<g id="Node000002" class="node">
<title>Node2</title>
<g id="a_Node000002"><a xlink:href="main_8cpp.html#ae66f6b31b5ad750f1fe042a706a4e3d4" target="_top" xlink:title=" ">
<polygon fill="white" stroke="#666666" points="38.88,-310 1.88,-310 1.88,-287 38.88,-287 38.88,-310"/>
<text text-anchor="middle" x="20.38" y="-296.5" font-family="Helvetica,sans-Serif" font-size="10.00">main</text>
</a>
</g>
</g>
<!-- Node1&#45;&gt;Node2 -->
<g id="edge1_Node000001_Node000002" class="edge">
<title>Node1&#45;&gt;Node2</title>
<g id="a_edge1_Node000001_Node000002"><a xlink:title=" ">
<path fill="none" stroke="#63b8ff" d="M114.24,-175.25C98.09,-200.49 69.19,-243.99 40.75,-278.5 38.54,-281.19 36.04,-283.94 33.58,-286.52"/>
<polygon fill="#63b8ff" stroke="#63b8ff" points="117.56,-177.55 119.97,-167.23 111.65,-173.8 117.56,-177.55"/>
</a>
</g>
</g>
<!-- Node3 -->
<g id="Node000003" class="node">
<title>Node3</title>
<g id="a_Node000003"><a xlink:href="matrix__gtest_8cpp.html#a46a0df2bd863af6f0500a4907662b284" target="_top" xlink:title=" ">
<polygon fill="white" stroke="#666666" points="40.75,-269 0,-269 0,-246 40.75,-246 40.75,-269"/>
<text text-anchor="middle" x="20.38" y="-255.5" font-family="Helvetica,sans-Serif" font-size="10.00">TEST</text>
</a>
</g>
</g>
<!-- Node1&#45;&gt;Node3 -->
<g id="edge2_Node000001_Node000003" class="edge">
<title>Node1&#45;&gt;Node3</title>
<g id="a_edge2_Node000001_Node000003"><a xlink:title=" ">
<path fill="none" stroke="#63b8ff" d="M107.48,-173.74C85.84,-194.79 51.83,-227.88 33.7,-245.51"/>
<polygon fill="#63b8ff" stroke="#63b8ff" points="109.38,-176.8 114.1,-167.32 104.5,-171.78 109.38,-176.8"/>
</a>
</g>
</g>
<!-- Node4 -->
<g id="Node000004" class="node">
<title>Node4</title>
<g id="a_Node000004"><a xlink:href="matrix__gtest_8cpp.html#a78fa8120c7fa066d81d55e48a879c8eb" target="_top" xlink:title=" ">
<polygon fill="white" stroke="#666666" points="40.75,-228 0,-228 0,-205 40.75,-205 40.75,-228"/>
<text text-anchor="middle" x="20.38" y="-214.5" font-family="Helvetica,sans-Serif" font-size="10.00">TEST</text>
</a>
</g>
</g>
<!-- Node1&#45;&gt;Node4 -->
<g id="edge3_Node000001_Node000004" class="edge">
<title>Node1&#45;&gt;Node4</title>
<g id="a_edge3_Node000001_Node000004"><a xlink:title=" ">
<path fill="none" stroke="#63b8ff" d="M97.84,-171.72C79.71,-182.34 56.96,-195.66 41.01,-205"/>
<polygon fill="#63b8ff" stroke="#63b8ff" points="98.98,-174.53 105.84,-166.45 95.44,-168.49 98.98,-174.53"/>
</a>
</g>
</g>
<!-- Node5 -->
<g id="Node000005" class="node">
<title>Node5</title>
<g id="a_Node000005"><a xlink:href="matrix__gtest_8cpp.html#a185f799e534eaec00a4342a4c5ba734f" target="_top" xlink:title=" ">
<polygon fill="white" stroke="#666666" points="40.75,-187 0,-187 0,-164 40.75,-164 40.75,-187"/>
<text text-anchor="middle" x="20.38" y="-173.5" font-family="Helvetica,sans-Serif" font-size="10.00">TEST</text>
</a>
</g>
</g>
<!-- Node1&#45;&gt;Node5 -->
<g id="edge4_Node000001_Node000005" class="edge">
<title>Node1&#45;&gt;Node5</title>
<g id="a_edge4_Node000001_Node000005"><a xlink:title=" ">
<path fill="none" stroke="#63b8ff" d="M65.94,-166.66C57.03,-168.43 48.45,-170.13 41.23,-171.56"/>
<polygon fill="#63b8ff" stroke="#63b8ff" points="66.36,-169.95 75.48,-164.57 64.99,-163.08 66.36,-169.95"/>
</a>
</g>
</g>
<!-- Node6 -->
<g id="Node000006" class="node">
<title>Node6</title>
<g id="a_Node000006"><a xlink:href="matrix__gtest_8cpp.html#a7c318cecefdac69deeb0cd7e03305c92" target="_top" xlink:title=" ">
<polygon fill="white" stroke="#666666" points="40.75,-146 0,-146 0,-123 40.75,-123 40.75,-146"/>
<text text-anchor="middle" x="20.38" y="-132.5" font-family="Helvetica,sans-Serif" font-size="10.00">TEST</text>
</a>
</g>
</g>
<!-- Node1&#45;&gt;Node6 -->
<g id="edge5_Node000001_Node000006" class="edge">
<title>Node1&#45;&gt;Node6</title>
<g id="a_edge5_Node000001_Node000006"><a xlink:title=" ">
<path fill="none" stroke="#63b8ff" d="M65.94,-142.92C57.03,-141.24 48.45,-139.61 41.23,-138.25"/>
<polygon fill="#63b8ff" stroke="#63b8ff" points="65.01,-146.49 75.48,-144.91 66.31,-139.61 65.01,-146.49"/>
</a>
</g>
</g>
<!-- Node7 -->
<g id="Node000007" class="node">
<title>Node7</title>
<g id="a_Node000007"><a xlink:href="matrix__gtest_8cpp.html#a813ab66a1439b0ce63f468c52f0f72c7" target="_top" xlink:title=" ">
<polygon fill="white" stroke="#666666" points="40.75,-105 0,-105 0,-82 40.75,-82 40.75,-105"/>
<text text-anchor="middle" x="20.38" y="-91.5" font-family="Helvetica,sans-Serif" font-size="10.00">TEST</text>
</a>
</g>
</g>
<!-- Node1&#45;&gt;Node7 -->
<g id="edge6_Node000001_Node000007" class="edge">
<title>Node1&#45;&gt;Node7</title>
<g id="a_edge6_Node000001_Node000007"><a xlink:title=" ">
<path fill="none" stroke="#63b8ff" d="M97.08,-137.12C79.05,-126.73 56.65,-113.83 40.92,-104.76"/>
<polygon fill="#63b8ff" stroke="#63b8ff" points="95.17,-140.63 105.58,-142.59 98.67,-134.57 95.17,-140.63"/>
</a>
</g>
</g>
<!-- Node8 -->
<g id="Node000008" class="node">
<title>Node8</title>
<g id="a_Node000008"><a xlink:href="matrix__gtest_8cpp.html#a572fcea986835ed2e78110ebc9df2f8c" target="_top" xlink:title=" ">
<polygon fill="white" stroke="#666666" points="40.75,-64 0,-64 0,-41 40.75,-41 40.75,-64"/>
<text text-anchor="middle" x="20.38" y="-50.5" font-family="Helvetica,sans-Serif" font-size="10.00">TEST</text>
</a>
</g>
</g>
<!-- Node1&#45;&gt;Node8 -->
<g id="edge7_Node000001_Node000008" class="edge">
<title>Node1&#45;&gt;Node8</title>
<g id="a_edge7_Node000001_Node000008"><a xlink:title=" ">
<path fill="none" stroke="#63b8ff" d="M107.19,-135.17C85.54,-114.32 51.75,-81.76 33.7,-64.38"/>
<polygon fill="#63b8ff" stroke="#63b8ff" points="104.47,-137.38 114.1,-141.8 109.33,-132.34 104.47,-137.38"/>
</a>
</g>
</g>
<!-- Node9 -->
<g id="Node000009" class="node">
<title>Node9</title>
<g id="a_Node000009"><a xlink:href="matrix__gtest_8cpp.html#a51c66a26454fec3be825acb49939132e" target="_top" xlink:title=" ">
<polygon fill="white" stroke="#666666" points="40.75,-23 0,-23 0,0 40.75,0 40.75,-23"/>
<text text-anchor="middle" x="20.38" y="-9.5" font-family="Helvetica,sans-Serif" font-size="10.00">TEST</text>
</a>
</g>
</g>
<!-- Node1&#45;&gt;Node9 -->
<g id="edge8_Node000001_Node000009" class="edge">
<title>Node1&#45;&gt;Node9</title>
<g id="a_edge8_Node000001_Node000009"><a xlink:title=" ">
<path fill="none" stroke="#63b8ff" d="M113.79,-133.84C97.39,-109.09 68.46,-66.69 40.75,-32.5 38.25,-29.42 35.42,-26.21 32.71,-23.26"/>
<polygon fill="#63b8ff" stroke="#63b8ff" points="111.2,-135.27 119.62,-141.7 117.04,-131.42 111.2,-135.27"/>
</a>
</g>
</g>
</g>
</svg>
</svg>

<style type='text/css'>
<![CDATA[
[data-mouse-over-selected='false'] { opacity: 0.7; }
[data-mouse-over-selected='true']  { opacity: 1.0; }
]]>
</style>
<script type="application/ecmascript"><![CDATA[
document.addEventListener('DOMContentLoaded', (event) => {
  highlightEdges();
  highlightAdjacentNodes();
});
]]></script>
</svg>
